<svg id="그룹_8" data-name="그룹 8" xmlns="http://www.w3.org/2000/svg" xmlns:xlink="http://www.w3.org/1999/xlink" width="160.547" height="194.808" viewBox="0 0 160.547 194.808">
  <defs>
    <clipPath id="clip-path">
      <rect id="사각형_7" data-name="사각형 7" width="160.547" height="194.808" fill="none"/>
    </clipPath>
  </defs>
  <g id="그룹_7" data-name="그룹 7" transform="translate(0 0)" clip-path="url(#clip-path)">
    <path id="패스_156" data-name="패스 156" d="M11.507,36.926S5.8,47.875,1.122,51.22A2.8,2.8,0,0,0,.85,55.472c5.113,5.1,19.266,14.638,55.581,18.6,0,0-20.551-10.72-25.786-27.227Z" transform="translate(-0.001 69.746)" fill="#002974"/>
    <path id="패스_157" data-name="패스 157" d="M85.088,42.518S88.266,54.449,92.1,58.736a2.8,2.8,0,0,1-.667,4.209c-6.1,3.862-22,10.07-58.3,6,0,0,22.4-5.965,31.116-20.93Z" transform="translate(62.571 80.308)" fill="#002974"/>
    <path id="패스_158" data-name="패스 158" d="M133.247,76.411c-3.764,33.973-34.981,58.395-69.728,54.547S3.652,96.453,7.413,62.481,42.391,4.086,77.141,7.934s59.865,34.5,56.107,68.477" transform="translate(13.297 14.231)" fill="#002974"/>
    <path id="패스_159" data-name="패스 159" d="M124.291,105.187c12.549,2.219,29.015-5.951,31.234-18.5S149.881,61.595,137.144,62c-3.984-23.163-23.036-44.586-47.51-48.914C63.045,8.377,35.205,26.51,24.832,50.2,12.725,46.223,1.689,54.168,1.7,67.708,1.7,80.45,14.732,92.375,27.443,93.3" transform="translate(3.202 23.298)" fill="#ffe8db"/>
    <path id="패스_160" data-name="패스 160" d="M129.447,107.925a25.683,25.683,0,0,1-4.463-.378,1.443,1.443,0,1,1,.5-2.843c11.578,2.037,27.479-5.549,29.561-17.33a21.246,21.246,0,0,0-4.434-17.518,15.458,15.458,0,0,0-12.48-5.477,1.562,1.562,0,0,1-1.47-1.2c-4.062-23.631-23.55-43.708-46.334-47.741C62.821,10.572,36.582,30.065,27.1,51.711a1.44,1.44,0,0,1-1.771.792,16.123,16.123,0,0,0-14.643,1.863c-4.192,3.042-6.6,8.245-6.6,14.277.006,11.5,11.873,23.241,24.414,24.151a1.445,1.445,0,0,1-.214,2.883C14.364,94.665,1.2,81.527,1.194,68.643c0-6.968,2.843-13.023,7.794-16.617a18.759,18.759,0,0,1,15.993-2.638C36.663,24.192,65.315,8.078,90.829,12.6c23.558,4.166,43.754,24.624,48.463,48.893A18.393,18.393,0,0,1,152.8,67.967a24.171,24.171,0,0,1,5.1,19.91c-2.155,12.165-16.264,20.048-28.449,20.048" transform="translate(2.255 22.36)" fill="#002974"/>
    <path id="패스_161" data-name="패스 161" d="M10.6,31.073C5.082,62.261,23.53,84.849,54.669,90.626c30.344,5.627,57.5-12.512,65.273-44" transform="translate(18.188 58.69)" fill="#ffe8db"/>
    <path id="패스_162" data-name="패스 162" d="M66.732,94.057A62.113,62.113,0,0,1,55.35,92.991C22.377,86.878,4.622,62.843,10.119,31.768a1.445,1.445,0,0,1,2.846.5C7.771,61.633,24.613,84.356,55.873,90.151c29.853,5.526,56-12.11,63.606-42.922a1.443,1.443,0,0,1,2.8.693c-7,28.386-29.036,46.135-55.549,46.135" transform="translate(17.247 57.744)" fill="#002974"/>
    <path id="패스_163" data-name="패스 163" d="M7.913,46.263a1.434,1.434,0,0,1-1.176-.607c-2.305-3.244-3.077-6.474-2.285-9.6,1.447-5.734,7.658-8.86,7.921-8.99a1.446,1.446,0,0,1,1.283,2.591c-.052.026-5.3,2.684-6.4,7.118-.569,2.265.049,4.691,1.837,7.208a1.445,1.445,0,0,1-1.176,2.282" transform="translate(7.84 50.832)" fill="#c8675d"/>
    <path id="패스_164" data-name="패스 164" d="M12.6,44.141l-.072,0a1.442,1.442,0,0,1-1.369-1.514c.176-3.446-.494-6.009-1.988-7.624a5.48,5.48,0,0,0-3.594-1.754A1.445,1.445,0,0,1,5.6,30.358h.012a8.39,8.39,0,0,1,5.622,2.623c2.083,2.2,3.027,5.5,2.808,9.787A1.444,1.444,0,0,1,12.6,44.141" transform="translate(7.852 57.34)" fill="#c8675d"/>
    <path id="패스_165" data-name="패스 165" d="M52.019,52.929a1.444,1.444,0,0,1-.818-2.635c2.545-1.751,3.958-3.816,4.2-6.139.477-4.547-3.536-8.843-3.573-8.883A1.444,1.444,0,0,1,53.92,33.28c.205.211,4.966,5.278,4.359,11.162-.332,3.207-2.164,5.977-5.443,8.233a1.416,1.416,0,0,1-.818.254" transform="translate(95.528 62.013)" fill="#c8675d"/>
    <path id="패스_166" data-name="패스 166" d="M49.974,47.843a1.428,1.428,0,0,1-.425-.064,1.445,1.445,0,0,1-.956-1.806c1.268-4.105,3.285-6.875,6-8.233a8.394,8.394,0,0,1,6.179-.534,1.445,1.445,0,0,1-.959,2.727,5.461,5.461,0,0,0-3.975.413c-1.953,1-3.464,3.184-4.481,6.477a1.447,1.447,0,0,1-1.381,1.02" transform="translate(91.662 69.606)" fill="#c8675d"/>
    <path id="패스_167" data-name="패스 167" d="M29.391,34.188a3.232,3.232,0,1,1-2.617-3.744,3.23,3.23,0,0,1,2.617,3.744" transform="translate(43.401 57.407)" fill="#002974"/>
    <path id="패스_168" data-name="패스 168" d="M25.786,31.665a.673.673,0,1,1-.6-.742.672.672,0,0,1,.6.742" transform="translate(46.172 58.399)" fill="#fff"/>
    <path id="패스_169" data-name="패스 169" d="M33.266,32.493a.673.673,0,1,1-.6-.742.672.672,0,0,1,.6.742" transform="translate(60.3 59.963)" fill="#fff"/>
    <path id="패스_170" data-name="패스 170" d="M9.179,50.966l1.6,2.245s13.381-4.189,22.195-3.079l6.251-11.183.991,11.85s33.08-1.141,46.386,4.469l5.246-12.093L94.1,57.033s18.509,1.733,28.987,7.988c0,0,.569-19.26-6.02-28.261s-49.353-26.41-49.353-26.41L22.367,23.609Z" transform="translate(17.338 19.546)" fill="#002974"/>
    <path id="패스_171" data-name="패스 171" d="M125.551,68.519l-2.109-1.26c-10.073-6.012-28.2-7.774-28.38-7.791l-1.112-.1L92.3,49.265l-3.857,8.889L87.13,57.6c-12.858-5.422-45.453-4.365-45.774-4.356l-1.378.043-.711-8.508-4.414,7.9-.968-.121c-8.4-1.043-21.455,2.984-21.585,3.025l-1,.312L8.6,52.1,22.438,23.4l.615-.179,45.834-13.4.465.191c1.762.716,43.223,17.668,49.974,26.9,6.8,9.288,6.321,28.345,6.3,29.151Zm-29.1-11.81c3.9.448,17.012,2.239,26.288,6.878-.1-5.347-.855-18.3-5.74-24.977-4.963-6.783-33.464-19.682-48.267-25.734L24.48,25.814,11.945,51.825l.5.7c3.2-.927,13.234-3.573,20.82-2.935l8.095-14.482,1.268,15.2c6.257-.153,31.69-.439,44.289,4.1l6.65-15.337Z" transform="translate(16.244 18.549)" fill="#002974"/>
    <path id="패스_172" data-name="패스 172" d="M13.693,24.218c-.168.116-2.929,12.136-2.929,12.136L9.152,25.475Z" transform="translate(17.287 45.742)" fill="#002974"/>
    <path id="패스_173" data-name="패스 173" d="M11.707,38.741h-.055a1.44,1.44,0,0,1-1.372-1.231L8.668,26.634a1.442,1.442,0,0,1,1.043-1.6l4.541-1.257a1.434,1.434,0,0,1,1.7.774,1.461,1.461,0,0,1,0,1.219c-.295.93-1.884,7.707-2.837,11.856a1.443,1.443,0,0,1-1.407,1.118m.006-11.266.306,2.074c.22-.924.4-1.684.558-2.314Z" transform="translate(16.343 44.797)" fill="#002974"/>
    <path id="패스_174" data-name="패스 174" d="M47.539,28.293c.133.15.205,12.483.205,12.483L51.7,30.515Z" transform="translate(89.793 53.439)" fill="#002974"/>
    <path id="패스_175" data-name="패스 175" d="M48.685,43.164a1.637,1.637,0,0,1-.26-.023,1.447,1.447,0,0,1-1.184-1.413c-.023-4.258-.09-11.223-.17-12.194a1.443,1.443,0,0,1,2.091-1.574l4.157,2.222a1.446,1.446,0,0,1,.667,1.794L50.035,42.237a1.445,1.445,0,0,1-1.349.927M50.04,31.7c.014.65.026,1.433.038,2.383l.754-1.962Z" transform="translate(88.849 52.495)" fill="#002974"/>
    <path id="패스_176" data-name="패스 176" d="M42.543,48.812A16.118,16.118,0,1,1,28.3,31.019,16.118,16.118,0,0,1,42.543,48.812" transform="translate(19.651 58.4)" fill="#ffcfbc"/>
    <path id="패스_177" data-name="패스 177" d="M65.886,51.4A16.118,16.118,0,1,1,51.638,33.6,16.118,16.118,0,0,1,65.886,51.4" transform="translate(63.742 63.283)" fill="#ffcfbc"/>
    <path id="패스_178" data-name="패스 178" d="M34.764,19.317S23.575,9.952,32.089,2.77Z" transform="translate(54.573 5.231)" fill="#002974"/>
    <path id="패스_179" data-name="패스 179" d="M10.083,33.877A21.394,21.394,0,0,1,19,26.41l-7.78-2.817Z" transform="translate(19.045 44.562)" fill="#002974"/>
    <path id="패스_180" data-name="패스 180" d="M52.08,37.889a21.418,21.418,0,0,0-7.066-9.238l8.2-1.046Z" transform="translate(85.024 52.14)" fill="#002974"/>
    <path id="패스_181" data-name="패스 181" d="M93.287,110.977l-73.44-8.129a13.234,13.234,0,0,1-11.7-14.612l3.64-32.881A13.237,13.237,0,0,1,26.4,43.656l73.437,8.132a13.235,13.235,0,0,1,11.7,14.612L107.9,99.278a13.237,13.237,0,0,1-14.612,11.7" transform="translate(15.24 82.304)" fill="#fff"/>
    <path id="패스_182" data-name="패스 182" d="M95.7,113.447a14.636,14.636,0,0,1-1.624-.09l-73.44-8.129A14.7,14.7,0,0,1,7.659,89.019L11.3,56.141A14.681,14.681,0,0,1,27.5,43.165l73.44,8.132a14.681,14.681,0,0,1,12.977,16.2l-3.64,32.881A14.7,14.7,0,0,1,95.7,113.447m-1.309-2.961a11.789,11.789,0,0,0,13.017-10.42l3.64-32.881a11.788,11.788,0,0,0-10.423-13.017l-73.44-8.132A11.794,11.794,0,0,0,14.167,56.459L10.53,89.337a11.807,11.807,0,0,0,10.42,13.02Z" transform="translate(14.296 81.36)" fill="#002974"/>
    <path id="패스_183" data-name="패스 183" d="M5.9,55.386a9.137,9.137,0,0,1,5.96-4.992c2.288-.607,5.165-.89,7.364.494,4.3,2.707-2.025,5.729-2.025,5.729s5.425.731,5.419,3.868S18,64.448,18,64.448s4.287,2.025,3.409,4.512-4.348,2.7-4.348,2.7,3.03,1.751,2.083,3.706a2.706,2.706,0,0,1-1.372,1.251,4.612,4.612,0,0,1-4.466-.436c-4.377-2.952-11.827-11.122-7.4-20.8" transform="translate(8.584 94.237)" fill="#ffe8db"/>
    <path id="패스_184" data-name="패스 184" d="M16.908,79.393a6.252,6.252,0,0,1-3.472-1.066C8.611,75.072.756,66.163,5.529,55.728a10.517,10.517,0,0,1,6.907-5.789c3.417-.91,6.358-.679,8.5.67,1.889,1.187,2.222,2.542,2.167,3.469a4.568,4.568,0,0,1-1.6,2.941c1.849.82,3.507,2.224,3.5,4.411a5.006,5.006,0,0,1-2.9,4.345c1.225,1.1,2.285,2.684,1.609,4.6A5.15,5.15,0,0,1,20.917,73.3a3.414,3.414,0,0,1,.465,3.643,4.15,4.15,0,0,1-2.077,1.938,5.7,5.7,0,0,1-2.4.514m-.6-27.115a12.5,12.5,0,0,0-3.137.454,7.624,7.624,0,0,0-5.015,4.2c-3.969,8.675,2.773,16.221,6.893,19a3.165,3.165,0,0,0,3.053.318,1.307,1.307,0,0,0,.679-.566c.231-.482-.861-1.447-1.514-1.829a1.446,1.446,0,0,1,.638-2.69c.02,0,2.542-.222,3.079-1.748.306-.867-1.618-2.222-2.666-2.721a1.446,1.446,0,0,1,.358-2.727c.032-.006,3.435-.69,3.438-2.545,0-1.4-2.86-2.259-4.166-2.435a1.444,1.444,0,0,1-.433-2.733c1.248-.6,2.669-1.733,2.7-2.346.009-.165-.243-.494-.823-.861a5.769,5.769,0,0,0-3.088-.771m-9.467,4.05h0Z" transform="translate(7.641 93.294)" fill="#002974"/>
    <path id="패스_185" data-name="패스 185" d="M58.8,61.44a9.13,9.13,0,0,0-4.723-6.176c-2.1-1.092-4.845-2-7.294-1.127-4.79,1.7.722,6.035.722,6.035s-5.451-.477-6.133,2.585,3.646,4.879,3.646,4.879-4.631,1.037-4.316,3.657,3.651,3.591,3.651,3.591-3.339,1.043-2.843,3.16a2.687,2.687,0,0,0,1.066,1.52,4.6,4.6,0,0,0,4.452.552C51.947,78.195,61,71.851,58.8,61.44" transform="translate(76.854 101.596)" fill="#ffe8db"/>
    <path id="패스_186" data-name="패스 186" d="M46.219,82.836a5.88,5.88,0,0,1-3.571-1.179,4.112,4.112,0,0,1-1.6-2.343A3.417,3.417,0,0,1,42.3,75.862a5.115,5.115,0,0,1-2.086-3.452c-.243-2.025,1.135-3.34,2.577-4.148a5.007,5.007,0,0,1-1.886-4.873c.474-2.135,2.4-3.14,4.385-3.539a4.563,4.563,0,0,1-.924-3.221c.153-.916.774-2.164,2.88-2.912,2.38-.849,5.3-.425,8.444,1.21a10.52,10.52,0,0,1,5.469,7.159c2.378,11.229-7.242,18.2-12.662,20.32a6.328,6.328,0,0,1-2.279.43m1.453-20.308c-1.462,0-3.686.324-3.943,1.488-.4,1.811,2.765,3.221,2.8,3.236a1.445,1.445,0,0,1-.246,2.736c-1.135.26-3.308,1.164-3.2,2.08.194,1.6,2.6,2.366,2.62,2.372a1.446,1.446,0,0,1,.035,2.765c-.719.231-2,.933-1.872,1.456a1.3,1.3,0,0,0,.534.7,3.138,3.138,0,0,0,3.048.352c4.628-1.808,12.864-7.7,10.885-17.03a7.731,7.731,0,0,0-3.978-5.194c-1.681-.875-4.1-1.762-6.142-1.049-.647.231-.965.494-.991.656-.1.6,1.06,2.04,2.123,2.883a1.444,1.444,0,0,1,.445,1.664,1.382,1.382,0,0,1-1.462.91c-.188-.014-.413-.026-.656-.026" transform="translate(75.909 100.653)" fill="#002974"/>
    <path id="패스_187" data-name="패스 187" d="M19.551,51.376c.1-.017.2-.032.286-.046s.176-.02.263-.023a1.728,1.728,0,0,1,.378-.012,1.976,1.976,0,0,1,.425.069,1.164,1.164,0,0,1,.37.17.577.577,0,0,1,.237.315,2,2,0,0,1,.061.517,5.844,5.844,0,0,1-.032.589c-.023.2-.049.4-.078.586s-.052.367-.069.523L20.183,64.974c-.017.156-.029.315-.04.482a4.485,4.485,0,0,1-.066.5,1.447,1.447,0,0,1-.182.465.947.947,0,0,1-.361.338,1.314,1.314,0,0,1-.826.159,2.468,2.468,0,0,1-.852-.217.629.629,0,0,1-.4-.54,3.458,3.458,0,0,1,.006-.734q.16-2.834.471-5.535t.627-5.558a.467.467,0,0,1-.309.159,4.255,4.255,0,0,1-.572.09c-.211.02-.413.032-.6.04a3.106,3.106,0,0,1-.367,0,2.09,2.09,0,0,1-1-.228.913.913,0,0,1-.43-.9,1.209,1.209,0,0,1,.428-1.034A2.493,2.493,0,0,1,16.78,52c.474-.1.936-.217,1.387-.332s.913-.211,1.384-.289" transform="translate(28.852 96.877)" fill="#002974"/>
    <path id="패스_188" data-name="패스 188" d="M23.146,67.067a6.135,6.135,0,0,1-.774-.139,3.413,3.413,0,0,1-.757-.292,4.71,4.71,0,0,1-1.028-.751,6.178,6.178,0,0,1-.852-.991A7.835,7.835,0,0,1,18.477,62a9.942,9.942,0,0,1-.182-3.25,11.259,11.259,0,0,1,1.329-4.2,5.879,5.879,0,0,1,.48-.722,6.526,6.526,0,0,1,.641-.719,6.425,6.425,0,0,1,.716-.6,2.43,2.43,0,0,1,.722-.373c.326-.11.685-.214,1.072-.315a4.805,4.805,0,0,1,1.557-.023,7.354,7.354,0,0,1,1.537.367A3.957,3.957,0,0,1,27.944,53.2a5.718,5.718,0,0,1,1.034,1.586,7.961,7.961,0,0,1,.566,1.921,14.472,14.472,0,0,1,.182,2.06,8.889,8.889,0,0,1-.087,1.364c-.064.448-.15.9-.257,1.343-.1.407-.217.812-.341,1.216a8.85,8.85,0,0,1-.442,1.161,6.194,6.194,0,0,1-.612,1.046,4.589,4.589,0,0,1-.855.887,6.324,6.324,0,0,1-1.9,1.034,5.394,5.394,0,0,1-2.092.254M24.5,54.619a3.126,3.126,0,0,0-.592-.012,1.447,1.447,0,0,0-.569.165,2.334,2.334,0,0,0-.586.41,3.652,3.652,0,0,0-.468.532,5.27,5.27,0,0,0-.8,1.574,9.276,9.276,0,0,0-.367,1.754,9.471,9.471,0,0,0-.006,1.921,5.126,5.126,0,0,0,.537,1.875,3.021,3.021,0,0,0,.534.74,2.164,2.164,0,0,0,.774.508,2.494,2.494,0,0,0,.858.159,1.914,1.914,0,0,0,.852-.185,2.848,2.848,0,0,0,1.095-.916,5.346,5.346,0,0,0,.7-1.329,7.963,7.963,0,0,0,.384-1.514,13.488,13.488,0,0,0,.147-1.433,8.283,8.283,0,0,0-.064-1.366,4.93,4.93,0,0,0-.361-1.338,2.845,2.845,0,0,0-.771-1.046,2.191,2.191,0,0,0-1.294-.5" transform="translate(34.446 97.742)" fill="#002974"/>
    <path id="패스_189" data-name="패스 189" d="M28.638,51.922A4.789,4.789,0,0,1,31.8,53.678a5.362,5.362,0,0,1-.91,6.468,4.192,4.192,0,0,1-3.2.7c-.254-.029-.526-.061-.809-.09a6.986,6.986,0,0,1-.861-.15,4.937,4.937,0,0,1-.884-.3,4.274,4.274,0,0,1-.91-.555,2.82,2.82,0,0,1-.7-.812,3.959,3.959,0,0,1-.4-.985,4.541,4.541,0,0,1-.153-1.063,7.453,7.453,0,0,1,.04-1.054,5.04,5.04,0,0,1,.61-1.988,3.979,3.979,0,0,1,1.228-1.332,4.178,4.178,0,0,1,1.716-.653,6.051,6.051,0,0,1,2.068.055m7.424,16.663a1.37,1.37,0,0,1,.581.228.866.866,0,0,1-.364,1.522,1.647,1.647,0,0,1-.54.072c-.179-.006-.338-.017-.48-.032l-9.5-1.052-.9-.1c-.312-.035-.624-.078-.936-.127a.94.94,0,0,1-.763-.451,1.813,1.813,0,0,1-.173-.864l.078-1.482c.009-.084.02-.188.035-.309a3.276,3.276,0,0,1,.064-.381,2.9,2.9,0,0,1,.107-.378.58.58,0,0,1,.182-.272,1.386,1.386,0,0,1,.725-.309,4.15,4.15,0,0,1,.864.012l.662.072a1.371,1.371,0,0,1,.17.029.593.593,0,0,0,.124.026l8.883.982.092-.855-9.094-1.005c-.072-.009-.144-.02-.222-.035a.975.975,0,0,0-.246-.017L24.9,63.8c-.142-.014-.269-.029-.384-.043a1.376,1.376,0,0,1-.335-.078c-.127-.043-.24-.084-.344-.124a.449.449,0,0,1-.243-.246,1.207,1.207,0,0,1-.02-.994.577.577,0,0,1,.222-.246,1.141,1.141,0,0,1,.315-.127,2.209,2.209,0,0,1,.344-.061c.11-.009.208-.017.292-.02.116,0,.228,0,.335.006s.22.012.332.023l.364.04a1.093,1.093,0,0,0,.2.046c.064.006.133.014.2.02L35.4,63.024a3.411,3.411,0,0,1,1.626.514,1.151,1.151,0,0,1,.456,1.141l-.217,1.964a1.081,1.081,0,0,1-.2.529,1.376,1.376,0,0,1-.529.407,1.145,1.145,0,0,1-.575.118c-.188-.014-.373-.029-.558-.049L25.7,66.571l-.1.855Zm-6.121-11.46a2.328,2.328,0,0,0-.087-1.459,1.839,1.839,0,0,0-.936-1.011,3.078,3.078,0,0,0-.968-.257,2.817,2.817,0,0,0-1.034.069,2.2,2.2,0,0,0-.893.462,1.742,1.742,0,0,0-.546.922,2.623,2.623,0,0,0-.09.823,1.8,1.8,0,0,0,.205.777,1.86,1.86,0,0,0,.566.636,2.539,2.539,0,0,0,.991.413,4.218,4.218,0,0,0,.844.1,2.4,2.4,0,0,0,.794-.13,1.811,1.811,0,0,0,.662-.413,1.848,1.848,0,0,0,.451-.76Zm7.976,3.885a2.966,2.966,0,0,1-.162.48,1.859,1.859,0,0,1-.237.373,1.026,1.026,0,0,1-.378.295,1.184,1.184,0,0,1-.618.1,1.229,1.229,0,0,1-.676-.312,1.128,1.128,0,0,1-.312-.488,2.047,2.047,0,0,1-.147-.731,6.753,6.753,0,0,1,.023-.8c.023-.269.055-.537.1-.8s.078-.514.1-.757c.032-.3.066-.581.1-.841s.069-.52.1-.768.055-.5.084-.76.061-.532.092-.832l.032-.277a4.031,4.031,0,0,1,.043-.5,2.214,2.214,0,0,1,.13-.494,1.873,1.873,0,0,1,.462-.638.948.948,0,0,1,.511-.257,1.643,1.643,0,0,1,.679.02,1.069,1.069,0,0,1,.794.65,1.554,1.554,0,0,1,.04.7,4.519,4.519,0,0,1-.084.488Z" transform="translate(43.39 97.845)" fill="#002974"/>
    <path id="패스_190" data-name="패스 190" d="M32.426,62.842a1.848,1.848,0,0,0,.277-.283,1.946,1.946,0,0,1,.211-.225l.532-4.824a.317.317,0,0,1-.194,0,.617.617,0,0,0-.191-.043l-.575-.066c-.5-.055-.927-.107-1.288-.162a3.907,3.907,0,0,1-.688-.142,1.666,1.666,0,0,1-.618-.361,1.151,1.151,0,0,1-.329-.63,2.135,2.135,0,0,1-.035-.286.73.73,0,0,1,.055-.295,1.053,1.053,0,0,1,.272-.511.641.641,0,0,1,.214-.17,2.839,2.839,0,0,1,.274-.121.655.655,0,0,1,.269-.11c.09-.012.176-.029.266-.046l2.82.312c.017-.156.046-.373.092-.65s.072-.477.087-.607a2.573,2.573,0,0,1,.185-.485,3.256,3.256,0,0,1,.237-.4,1.223,1.223,0,0,1,.809-.451.941.941,0,0,1,.488-.032,1.52,1.52,0,0,1,.468.179,1.1,1.1,0,0,1,.286.217.744.744,0,0,1,.176.289,1.435,1.435,0,0,1,.254.636,2.976,2.976,0,0,1,.023.367,3.4,3.4,0,0,1-.023.387l-.1.875,1.3.144c.283.032.572.072.861.118s.534.1.731.144a1.586,1.586,0,0,1,.517.286,1.387,1.387,0,0,1,.37.482,1.138,1.138,0,0,1,.1.615.75.75,0,0,1-.144.526,1.415,1.415,0,0,1-1.078.552,2.986,2.986,0,0,1-.526-.014,4.24,4.24,0,0,0-.615-.026c-.225-.026-.5-.049-.812-.069a7.8,7.8,0,0,1-1-.133c-.012.116-.029.251-.055.4s-.046.312-.064.468-.032.3-.046.439a1.779,1.779,0,0,0-.017.332l-.26,2.349a.9.9,0,0,1-.043.2.419.419,0,0,0,0,.225l-.038.341a1.146,1.146,0,0,1,.179.248,2.289,2.289,0,0,0,.231.338,1.646,1.646,0,0,1,.217.283,2.119,2.119,0,0,0,.176.257c.064.092.121.185.176.28a2.5,2.5,0,0,0,.2.28,2.048,2.048,0,0,1,.182.28,2.429,2.429,0,0,0,.205.3c.035.075.072.144.107.205a1.259,1.259,0,0,0,.113.165,3.6,3.6,0,0,1,.173.387c.121.185.24.376.347.566a6.577,6.577,0,0,1,.318.653,3.046,3.046,0,0,1,.306.647,3.109,3.109,0,0,1,.136.633,1.525,1.525,0,0,1-.069.618,1.193,1.193,0,0,1-.364.543,1.162,1.162,0,0,1-.818.168,1.648,1.648,0,0,1-.43-.1,1.7,1.7,0,0,1-.763-.514q-.147-.156-.3-.3a4.315,4.315,0,0,1-.318-.459c-.1-.162-.2-.312-.295-.454a4.6,4.6,0,0,1-.283-.451c-.092-.162-.185-.326-.28-.5A4.989,4.989,0,0,1,34.561,66a1.766,1.766,0,0,0-.251-.364c-.1-.1-.182-.2-.257-.3l-.295.3c-.1.1-.194.2-.295.3s-.214.2-.312.289-.194.188-.292.292a5.152,5.152,0,0,1-.335.393,5.024,5.024,0,0,1-.376.37,5.186,5.186,0,0,1-.335.4,3.03,3.03,0,0,1-.419.364,2.618,2.618,0,0,1-.867.5,1.873,1.873,0,0,1-.774.078c-.072-.009-.139-.014-.2-.023a.523.523,0,0,1-.2-.066,1.026,1.026,0,0,1-.6-.647,1.16,1.16,0,0,1-.009-.693c.043-.139.087-.266.127-.384a.766.766,0,0,1,.185-.295,2.662,2.662,0,0,1,.188-.315c.066-.1.144-.2.228-.309a2.838,2.838,0,0,0,.234-.254,1.773,1.773,0,0,1,.277-.272,1.527,1.527,0,0,0,.144-.136,1.532,1.532,0,0,1,.144-.136l.3-.355a.81.81,0,0,1,.176-.228c.064-.058.162-.159.292-.3.127-.116.248-.231.364-.35s.22-.228.318-.332q.191-.173.373-.347c.121-.118.231-.225.329-.332m12.353-2.089a1.089,1.089,0,0,1,.2.043,1.011,1.011,0,0,0,.2.043,1.585,1.585,0,0,0,.231.058q.126.026.251.061a1.831,1.831,0,0,1,.454.211.743.743,0,0,1,.3.393,1.036,1.036,0,0,1,.087.572,2.753,2.753,0,0,1-.046.306,1.9,1.9,0,0,1-.087.3c-.04.11-.087.228-.136.352a.536.536,0,0,1-.237.277,1.633,1.633,0,0,1-.607.214,5.007,5.007,0,0,1-.835-.072c-.326-.049-.6-.081-.832-.092a.084.084,0,0,0-.046.017h-.02l-.023.017-.009.064c-.017.17-.04.376-.066.61s-.052.477-.081.725-.055.491-.081.725l-.069.63q-.078,1.118-.24,2.178l-.035.3c-.02.185-.046.39-.078.61s-.072.433-.124.644a2.833,2.833,0,0,1-.217.592,1.342,1.342,0,0,1-.352.448.865.865,0,0,1-.716.222l-.04-.026a1.277,1.277,0,0,1-.789-.39,1.789,1.789,0,0,1-.393-.734,3.024,3.024,0,0,1-.11-.867,7.59,7.59,0,0,1,.043-.783l1.4-12.682c0-.014.009-.081.02-.2A2.4,2.4,0,0,1,41.8,55.1a2.768,2.768,0,0,1,.2-.5,1.144,1.144,0,0,1,.312-.41.952.952,0,0,1,.462-.173A2.127,2.127,0,0,1,43.3,54a1.083,1.083,0,0,1,.754.407,1.147,1.147,0,0,1,.28.67c.012.222.02.456.02.7a1.16,1.16,0,0,1-.006.26c0,.246-.009.494-.032.751s-.038.514-.052.774c-.017.156-.032.309-.04.459s-.023.3-.04.459a1.055,1.055,0,0,0-.038.246c0,.078-.006.153-.014.225L44,60.147c-.006.072-.014.15-.026.237a.66.66,0,0,0,.017.24c0,.014.069.029.211.043s.222.026.237.026a.711.711,0,0,0,.295.055Z" transform="translate(54.204 98.674)" fill="#002974"/>
    <path id="패스_191" data-name="패스 191" d="M36.937,53.593a1.028,1.028,0,0,1,.514-.352,1.413,1.413,0,0,1,.589-.064q.238.026.459.061a3.149,3.149,0,0,1,.433.1.969.969,0,0,1,.578.636,3.294,3.294,0,0,1,.133,1.031,7.592,7.592,0,0,1-.1,1.124c-.064.367-.107.664-.133.893l-.7,6.3c-.032.286-.064.569-.1.852a2.206,2.206,0,0,1-.24.8.978.978,0,0,1-.612.471,2.066,2.066,0,0,1-.872.066,2.21,2.21,0,0,1-.832-.286,1.034,1.034,0,0,1-.5-.586,2.345,2.345,0,0,1-.043-.491c0-.194,0-.37,0-.529.014-.243.038-.5.075-.757s.069-.532.1-.8l.792-7.153a5.1,5.1,0,0,1,.136-.653,1.939,1.939,0,0,1,.312-.659m.936,14q.052.113.1.217a1.322,1.322,0,0,1,.072.234,2.836,2.836,0,0,1,.029.5,1.52,1.52,0,0,1-.1.5,1.442,1.442,0,0,1-.263.436.923.923,0,0,1-.442.274,1.535,1.535,0,0,1-.569.066,2.271,2.271,0,0,1-.615-.11,1.652,1.652,0,0,1-.529-.3.917.917,0,0,1-.312-.488,2.229,2.229,0,0,1-.04-.708,1.891,1.891,0,0,1,.17-.682.749.749,0,0,1,.456-.393,1.531,1.531,0,0,1,.61-.052,5.278,5.278,0,0,1,.8.11,1.1,1.1,0,0,1,.636.4" transform="translate(66.469 100.424)" fill="#002974"/>
    <path id="패스_192" data-name="패스 192" d="M50.472,53.149a5.71,5.71,0,0,1-1.811-.3c-2.785-.924-4.758-3.836-5.653-5.411a24.255,24.255,0,0,1-6.509.133,21.564,21.564,0,0,1-10.458-3.848c-2.923-2.2-4.365-4.934-4.059-7.7a1.444,1.444,0,0,1,2.872.315c-.188,1.713.849,3.519,2.926,5.079A18.62,18.62,0,0,0,36.817,44.7c4.134.465,8.178-.254,10.813-1.907a5.271,5.271,0,0,0,2.69-3.637,1.444,1.444,0,0,1,2.672-.586c.4.664,3.9,6.618,2.791,10.749a4.775,4.775,0,0,1-2.346,3.03,6.094,6.094,0,0,1-2.964.8m-4.524-6.422c.844,1.309,2.152,2.895,3.631,3.383a2.957,2.957,0,0,0,2.461-.289,1.876,1.876,0,0,0,.95-1.245c.419-1.563-.289-3.9-1.1-5.8a9.739,9.739,0,0,1-2.721,2.461,14.756,14.756,0,0,1-3.218,1.491" transform="translate(41.445 65.609)" fill="#c8675d"/>
    <path id="패스_193" data-name="패스 193" d="M34.2,44.073a1.448,1.448,0,0,1-1.251-.722l-2.158-3.735a1.444,1.444,0,1,1,2.5-1.444l2.158,3.735a1.445,1.445,0,0,1-.529,1.973,1.427,1.427,0,0,1-.722.194" transform="translate(57.796 70.731)" fill="#c8675d"/>
    <path id="패스_194" data-name="패스 194" d="M39.181,40.4a1.446,1.446,0,0,1-.731-.2l-8.476-4.977a1.446,1.446,0,0,1,.5-2.672l10.443-1.687a1.444,1.444,0,0,1,.462,2.851L34.9,34.769l5.012,2.941a1.445,1.445,0,0,1-.731,2.692" transform="translate(55.27 58.265)" fill="#002974"/>
    <path id="패스_195" data-name="패스 195" d="M22.533,12.174a.936.936,0,0,1,.116.9,1.516,1.516,0,0,1-.558.8,6.377,6.377,0,0,1-.93.624c-.289.153-.621.347-.994.578-.78.482-1.511.953-2.2,1.416s-1.41.942-2.155,1.45a1.671,1.671,0,0,1-1.335.306,2.114,2.114,0,0,1-1.1-.572c-.225-.231-.491-.494-.794-.792l-.945-.91c-.324-.312-.638-.615-.959-.913s-.589-.563-.818-.794c-.286-.283-.546-.529-.789-.731a1.566,1.566,0,0,1-.494-.878,1.055,1.055,0,0,1,.055-.662,1.611,1.611,0,0,1,.416-.6A1.9,1.9,0,0,1,9.7,11a1.418,1.418,0,0,1,.777-.058,2.791,2.791,0,0,1,.737.263,5.742,5.742,0,0,1,.618.381,3.426,3.426,0,0,1,.465.393c.107.118.254.277.428.477q1.924-1.382,3.961-2.658c-.292-.318-.589-.633-.887-.948a3.45,3.45,0,0,1-.514-.734.852.852,0,0,1-.026-.849,1.427,1.427,0,0,1,.575-.589,1.734,1.734,0,0,1,.846-.306,1.468,1.468,0,0,1,.745.153,3.533,3.533,0,0,1,.618.393,4.069,4.069,0,0,1,.612.56q2.037,2.3,3.877,4.691m10.221,4.414a1.744,1.744,0,0,1,.719-.11.972.972,0,0,1,.627.3.762.762,0,0,1-.075,1.257,1.977,1.977,0,0,1-.488.347c-.179.09-.341.168-.491.228a63.191,63.191,0,0,0-9.429,4.957c-.257.165-.52.338-.8.523s-.558.361-.838.537a1.016,1.016,0,0,1-.919.176,1.927,1.927,0,0,1-.748-.537c-.321-.378-.647-.751-.976-1.124a3.086,3.086,0,0,1-.361-.477,1.043,1.043,0,0,1-.173-.612,1.418,1.418,0,0,1,.361-.757,4.022,4.022,0,0,1,.725-.612c.205-.139.41-.277.615-.413a1.5,1.5,0,0,1,.168-.1A.918.918,0,0,0,20.8,20.1a66.584,66.584,0,0,1,9.14-5.029c-.136-.231-.274-.462-.416-.69a67.415,67.415,0,0,0-9.412,5.223c-.069.043-.139.09-.217.133a.97.97,0,0,0-.222.162c-.159.107-.321.217-.477.326-.13.09-.248.17-.355.246a1.437,1.437,0,0,1-.341.185c-.136.061-.266.116-.378.159a.564.564,0,0,1-.39,0,1.987,1.987,0,0,1-.462-.251.912.912,0,0,1-.286-.407.571.571,0,0,1-.009-.347,1.285,1.285,0,0,1,.162-.329,2.352,2.352,0,0,1,.243-.3c.087-.09.162-.168.231-.234.1-.087.194-.17.292-.246s.2-.147.3-.225.231-.156.347-.237a1.1,1.1,0,0,0,.208-.113c.061-.038.124-.084.194-.13a69.868,69.868,0,0,1,9.735-5.431,4.714,4.714,0,0,1,2.042-.508,1.417,1.417,0,0,1,1.242.742c.272.468.534.939.794,1.41a1.19,1.19,0,0,1,.15.607,1.229,1.229,0,0,1-.272.676,1.281,1.281,0,0,1-.506.422c-.194.092-.39.176-.586.263A65.622,65.622,0,0,0,21.683,21.5c.165.225.329.451.491.676a65.006,65.006,0,0,1,10.579-5.584M19.242,12.7a6.923,6.923,0,0,1-.584-.6,6.974,6.974,0,0,1-.529-.69Q16.1,12.66,14.193,14.017a2.284,2.284,0,0,0,.416.454,3.483,3.483,0,0,1,.456.425,2.1,2.1,0,0,0,.28.225c.052.035.165.006.329-.092s.321-.2.477-.312.306-.222.462-.329Q17.9,13.52,19.242,12.7M29.434,9.215c.078.153.147.309.214.474a1.305,1.305,0,0,1,.087.529.9.9,0,0,1-.173.552,1.334,1.334,0,0,1-.656.566,1.727,1.727,0,0,1-.771.147,1.7,1.7,0,0,1-.846-.243,1.857,1.857,0,0,1-.6-.506q-.715-1.04-1.47-2.063c-.277.136-.563.263-.858.384s-.54.217-.734.283a3.752,3.752,0,0,1-1.387.272,1.147,1.147,0,0,1-1.005-.679,1.285,1.285,0,0,1-.179-.786,1.016,1.016,0,0,1,.572-.638c.116-.061.22-.124.324-.185s.217-.124.347-.194c.194-.1.4-.211.607-.326s.422-.222.638-.332c-.367-.468-.737-.93-1.115-1.392-.023-.026-.075-.084-.165-.179s-.182-.2-.28-.315a2.627,2.627,0,0,1-.254-.37,1.075,1.075,0,0,1-.124-.341.86.86,0,0,1,.144-.48,1.685,1.685,0,0,1,.488-.465,3.087,3.087,0,0,1,.852-.361,1.889,1.889,0,0,1,.786-.035,2.219,2.219,0,0,1,.936.367,2.58,2.58,0,0,1,.52.506,5.366,5.366,0,0,1,.422.578q.39.516.771,1.031c.283.384.552.742.815,1.078s.508.667.745.994.468.664.685,1,.442.719.664,1.127" transform="translate(16.149 4.733)" fill="#002974"/>
    <path id="패스_196" data-name="패스 196" d="M29.084,17.013a4.46,4.46,0,0,0-.277.916,1.176,1.176,0,0,1-.523.766,1.026,1.026,0,0,1-.39.191,1.492,1.492,0,0,1-1.052-.153.986.986,0,0,1-.274-.165c-.072-.061-.139-.121-.2-.182a.368.368,0,0,0-.078-.049.455.455,0,0,1-.078-.052,3.137,3.137,0,0,1-.6-.428c-.24-.2-.485-.419-.742-.647s-.488-.445-.711-.641l-.488-.445a3.261,3.261,0,0,0-.107.517c-.04.254-.078.526-.11.818s-.064.558-.1.8a3.522,3.522,0,0,1-.087.474,5.118,5.118,0,0,0-.2.875,1.167,1.167,0,0,1-.454.74.952.952,0,0,1-.364.222,1.347,1.347,0,0,1-1.026-.072.789.789,0,0,1-.4-.318c-.09-.144-.173-.3-.26-.462a2.152,2.152,0,0,1-.176-.766,4.472,4.472,0,0,1,.029-.742c.035-1.4.072-2.794.1-4.189a1.937,1.937,0,0,0-.1-.711c-.092-.286-.17-.508-.24-.664-.107-.228-.22-.445-.344-.656s-.257-.439-.4-.682q-1.062-1.8-2.219-3.562c-.09-.13-.173-.263-.251-.378s-.156-.251-.228-.39a2.787,2.787,0,0,1-.24-.459c-.064-.162-.118-.3-.162-.439a2.363,2.363,0,0,1-.04-.309A1.249,1.249,0,0,1,16.3,5.44a.589.589,0,0,1,.194-.37,2.071,2.071,0,0,1,.39-.289l.043-.04a1.675,1.675,0,0,1,.838-.243,2.108,2.108,0,0,1,.485.058,1.024,1.024,0,0,1,.329.162l.352.254a3.009,3.009,0,0,1,.477.4,5.072,5.072,0,0,1,.442.508,22.148,22.148,0,0,1,1.317,1.889q.663,1.066,1.147,1.938c.1.182.191.338.26.471s.144.26.211.384.144.257.228.393.179.286.286.451c.173.286.373.6.6.948a5.578,5.578,0,0,0,.93,1.049q.754.715,1.476,1.444c.127-.806.251-1.609.378-2.415a1.1,1.1,0,0,0-.009-.335,2.278,2.278,0,0,0-.092-.381c-.046-.133-.09-.257-.136-.376s-.084-.211-.121-.28a4.714,4.714,0,0,0-.277-.685c-.11-.222-.228-.459-.358-.714Q24.477,7.277,23.1,4.934a2.323,2.323,0,0,1-.214-.477A2.318,2.318,0,0,1,22.781,4a2.516,2.516,0,0,1-.017-.309q0-.173.009-.321A.6.6,0,0,1,23,3.016a2.083,2.083,0,0,1,.422-.26l.046-.038a1.849,1.849,0,0,1,.9-.185,2.4,2.4,0,0,1,.491.092,1.059,1.059,0,0,1,.329.188c.1.087.217.179.344.277a3.745,3.745,0,0,1,.456.433,4.646,4.646,0,0,1,.416.543c.205.289.419.63.644,1.02s.456.783.685,1.19.433.8.627,1.19.358.737.5,1.04c.092.191.168.35.246.485s.142.269.2.4.13.266.2.41.153.3.231.477a2.816,2.816,0,0,0,.321.517c.142.182.3.373.468.56s.335.367.5.543a5.087,5.087,0,0,0,.459.433q1.114,1.1,2.164,2.239a1.96,1.96,0,0,0,.179.182,3.16,3.16,0,0,1,.251.266c.081.1.159.2.231.295a2.494,2.494,0,0,0,.156.208c.1.156.2.335.3.517a.9.9,0,0,1,.107.615,1,1,0,0,1-.341.578,1.377,1.377,0,0,1-.537.28l-.029.006a1.113,1.113,0,0,1-.76-.133c-.228-.133-.508-.3-.841-.506a7.076,7.076,0,0,1-.6-.477c-.263-.22-.526-.448-.809-.688s-.543-.471-.78-.679-.407-.37-.506-.474c-.2.818-.4,1.632-.592,2.45m5.237-6.942c-.274.009-.543.029-.8.061s-.523.055-.8.069a3.8,3.8,0,0,1-1.9-.277,1.9,1.9,0,0,1-.685-.511,1.468,1.468,0,0,1-.321-.768.841.841,0,0,1,.069-.419,1.427,1.427,0,0,1,.214-.376,1.8,1.8,0,0,1,.667-.436,7.543,7.543,0,0,1,1.1-.22,10.657,10.657,0,0,0,1.135-.211l.087-.014a.831.831,0,0,1-.038-.09c-.078-.179-.133-.309-.162-.4a2.314,2.314,0,0,0-.09-.237,1.831,1.831,0,0,0-.116-.22q-.065-.117-.2-.407c-.173-.384-.352-.763-.54-1.135s-.361-.745-.52-1.115c-.049-.1-.1-.205-.15-.309-.092-.194-.191-.4-.3-.63a5.8,5.8,0,0,1-.266-.693,2.2,2.2,0,0,1-.116-.673.948.948,0,0,1,.173-.569,1.373,1.373,0,0,1,.841-.454l.064-.009a2.706,2.706,0,0,1,1.355.136,3.3,3.3,0,0,1,1.037.627,3.779,3.779,0,0,1,.711.846,8.074,8.074,0,0,1,.436.812,92.945,92.945,0,0,1,4.911,13.609c.006.014.026.087.058.217a2.417,2.417,0,0,1,.072.471,3.015,3.015,0,0,1-.017.558.837.837,0,0,1-.234.482,1.147,1.147,0,0,1-.471.292,2.565,2.565,0,0,1-.615.147,1.654,1.654,0,0,1-1.109-.263,1.729,1.729,0,0,1-.612-.607c-.121-.217-.237-.454-.35-.7a.758.758,0,0,0-.055-.133,1.038,1.038,0,0,1-.061-.156,5.813,5.813,0,0,1-.295-.757c-.084-.272-.185-.54-.289-.806-.072-.162-.136-.324-.188-.48s-.107-.318-.165-.482-.118-.344-.179-.514c-.052-.147-.121-.35-.214-.6s-.194-.514-.3-.783-.208-.526-.3-.768-.173-.451-.234-.615c-.032-.075-.061-.156-.1-.246a.683.683,0,0,0-.153-.237" transform="translate(30.749 -0.002)" fill="#002974"/>
  </g>
</svg>
