<svg id="그룹_10" data-name="그룹 10" xmlns="http://www.w3.org/2000/svg" xmlns:xlink="http://www.w3.org/1999/xlink" width="172.896" height="194.29" viewBox="0 0 172.896 194.29">
  <defs>
    <clipPath id="clip-path">
      <rect id="사각형_8" data-name="사각형 8" width="172.896" height="194.29" fill="#002974"/>
    </clipPath>
  </defs>
  <g id="그룹_9" data-name="그룹 9" transform="translate(0 0)" clip-path="url(#clip-path)">
    <path id="패스_197" data-name="패스 197" d="M43.707,60.913s-6.57,10.3-5.838,13.143l-7.594-10.9a66.2,66.2,0,0,0,13.432-2.247" transform="translate(56.282 113.237)" fill="#fff"/>
    <path id="패스_198" data-name="패스 198" d="M38.8,76.414a1.427,1.427,0,0,1-1.172-.612L30.033,64.9a1.423,1.423,0,0,1-.114-1.444,1.438,1.438,0,0,1,1.2-.8,65.4,65.4,0,0,0,13.083-2.179,1.429,1.429,0,0,1,1.638,2.13c-3.322,5.209-5.97,10.824-5.661,12.016A1.43,1.43,0,0,1,38.8,76.414m-5-11.107,4.231,6.07a47.389,47.389,0,0,1,3.554-7.259A71.065,71.065,0,0,1,33.8,65.307" transform="translate(55.351 112.308)" fill="#002974"/>
    <path id="패스_199" data-name="패스 199" d="M35.1,64.728s11.09,4.695,12.054,7.465L47.415,58.8A66.937,66.937,0,0,1,35.1,64.728" transform="translate(65.244 109.311)" fill="#fff"/>
    <path id="패스_200" data-name="패스 200" d="M48.073,74.55a1.425,1.425,0,0,1-1.349-.963c-.4-1.152-5.661-4.243-11.259-6.61a1.434,1.434,0,0,1,.126-2.682,65.924,65.924,0,0,0,12-5.778,1.429,1.429,0,0,1,2.184,1.244L49.5,73.149A1.435,1.435,0,0,1,48.3,74.536a1.945,1.945,0,0,1-.223.014m-8.294-8.771a45.762,45.762,0,0,1,6.936,3.937l.152-7.459a72.646,72.646,0,0,1-7.087,3.522" transform="translate(64.315 108.38)" fill="#002974"/>
    <path id="패스_201" data-name="패스 201" d="M12.811,56.036S12,67.807,9.249,72.521A2.7,2.7,0,0,0,10.6,76.349c6.264,2.524,21.9,5.486,54.4-4.883,0,0-21.54-1.561-32.147-14.029Z" transform="translate(16.537 104.171)" fill="#002974"/>
    <path id="패스_202" data-name="패스 202" d="M75.527,42.835s7.148,9.246,12.014,11.542a2.709,2.709,0,0,1,.995,3.943c-3.78,5.709-15.053,17.211-47.58,27.481,0,0,16.917-13.766,18.807-30.2Z" transform="translate(76.138 79.63)" fill="#002974"/>
    <path id="패스_203" data-name="패스 203" d="M123.446,60.037a60.1,60.1,0,0,1-39.3,74.38A58.045,58.045,0,0,1,10.769,95.8a60.093,60.093,0,0,1,39.3-74.38,58.045,58.045,0,0,1,73.379,38.62" transform="translate(15.305 34.65)" fill="#002974"/>
    <path id="패스_204" data-name="패스 204" d="M126.035,92.056c11.545-2.839,22.575-16.276,19.807-28.118S131.7,44.1,120.966,49.308C108.955,30.527,84.716,19.017,62.2,24.555c-24.462,6.013-41.5,32.513-41.564,57.223-11.822,1.135-18.3,12.3-13.26,24.167,4.74,11.164,20.3,16.645,31.506,12.608" transform="translate(10.503 43.054)" fill="#ffe8db"/>
    <path id="패스_205" data-name="패스 205" d="M31.936,122.216c-10.413,0-21.182-5.918-24.953-14.8-2.636-6.21-2.413-12.683.606-17.76a17.551,17.551,0,0,1,12.557-8.225C20.78,54.889,39.3,29.847,62.785,24.078c21.688-5.341,46.565,4.883,59.633,24.342a16.866,16.866,0,0,1,13.749.466c5.878,2.8,10.358,8.646,11.994,15.639,3.025,12.943-8.94,26.9-20.862,29.831a1.429,1.429,0,0,1-.68-2.776c10.613-2.607,21.351-15.3,18.758-26.406-1.438-6.153-5.338-11.279-10.438-13.709a13.9,13.9,0,0,0-12.425.043,1.441,1.441,0,0,1-1.827-.517c-12.237-19.13-36.312-29.271-57.22-24.136-19.839,4.877-40.4,27.1-40.478,55.839a1.432,1.432,0,0,1-1.292,1.421,14.718,14.718,0,0,0-11.648,7c-2.553,4.289-2.71,9.821-.435,15.184,4.269,10.038,18.7,15.785,29.708,11.819a1.432,1.432,0,0,1,.972,2.693,24.653,24.653,0,0,1-8.357,1.4" transform="translate(9.58 42.142)" fill="#002974"/>
    <path id="패스_206" data-name="패스 206" d="M13.231,66.787c6.876,29.434,31.029,42.2,59.779,35.389,28.013-6.636,44.475-32.884,39.409-63.436" transform="translate(24.597 72.017)" fill="#ffe8db"/>
    <path id="패스_207" data-name="패스 207" d="M59.168,106.342a47.39,47.39,0,0,1-25.262-6.836C23.364,92.979,16.054,82.1,12.769,68.043a1.43,1.43,0,1,1,2.785-.649c3.108,13.3,9.972,23.564,19.856,29.682,10.467,6.473,23.675,8.077,38.2,4.637,27.521-6.516,43.28-31.935,38.328-61.809a1.429,1.429,0,0,1,2.819-.469c5.212,31.426-11.442,58.178-40.489,65.06a65.655,65.655,0,0,1-15.1,1.847" transform="translate(23.667 71.087)" fill="#002974"/>
    <path id="패스_208" data-name="패스 208" d="M14.28,65.1a1.418,1.418,0,0,1-.752-.214c-3.174-1.964-5.038-4.494-5.541-7.531-.923-5.6,3.251-10.747,3.428-10.964a1.431,1.431,0,0,1,2.21,1.818c-.037.04-3.537,4.38-2.816,8.694.366,2.179,1.784,4.045,4.223,5.552A1.429,1.429,0,0,1,14.28,65.1" transform="translate(14.601 85.267)" fill="#c8675d"/>
    <path id="패스_209" data-name="패스 209" d="M19.519,59.889a1.429,1.429,0,0,1-1.344-.938c-1.132-3.1-2.659-5.083-4.534-5.91a4.859,4.859,0,0,0-3.588-.146A1.429,1.429,0,0,1,8.92,50.271a7.788,7.788,0,0,1,5.8.123c2.65,1.132,4.72,3.68,6.147,7.574A1.434,1.434,0,0,1,20.01,59.8a1.472,1.472,0,0,1-.492.086" transform="translate(14.998 92.527)" fill="#c8675d"/>
    <path id="패스_210" data-name="패스 210" d="M56.413,52.372a1.408,1.408,0,0,1-.743-.209,1.429,1.429,0,0,1-.477-1.964c1.532-2.525,1.967-4.892,1.284-7.033-1.312-4.128-6.241-6.3-6.293-6.321a1.43,1.43,0,0,1,1.135-2.625c.252.109,6.178,2.725,7.885,8.08.943,2.965.415,6.121-1.57,9.386a1.426,1.426,0,0,1-1.221.686" transform="translate(91.689 63.391)" fill="#c8675d"/>
    <path id="패스_211" data-name="패스 211" d="M51.367,50.927a1.425,1.425,0,0,1-1.418-1.275c-.449-4.14.269-7.368,2.136-9.6a7.873,7.873,0,0,1,5.08-2.773A1.418,1.418,0,0,1,58.7,38.6a1.433,1.433,0,0,1-1.315,1.527,4.961,4.961,0,0,0-3.136,1.8c-1.324,1.615-1.813,4.108-1.452,7.416a1.429,1.429,0,0,1-1.267,1.575,1.407,1.407,0,0,1-.157.009" transform="translate(92.615 69.288)" fill="#c8675d"/>
    <path id="패스_212" data-name="패스 212" d="M10.05,80.658l2.2,1.358s9.875-8.771,17.817-11.159L31.25,58.675,36.5,68.681S64.337,55.073,77.789,54.915l-.014-12.6L84.853,53.6s16.456-5.535,27.73-4.048c0,0-6.67-17.094-15.645-22.469s-51.977-4.331-51.977-4.331l-33.814,28.9Z" transform="translate(18.683 42.142)" fill="#002974"/>
    <path id="패스_213" data-name="패스 213" d="M13.351,84.723,9.54,82.37,10.7,51.91,45.372,22.268l.506-.011c1.764-.043,43.523-.995,52.746,4.532,9.286,5.564,15.962,22.46,16.239,23.178l.881,2.253-2.4-.314c-10.79-1.43-26.926,3.928-27.089,3.983l-1.066.36-5.029-8.02.011,9.032-1.418.017c-12.974.152-40.4,13.486-40.675,13.62l-1.249.609-3.671-6.993-.812,8.368-.918.274c-7.545,2.267-17.183,10.776-17.28,10.861Zm-.892-3.911.6.369c2.447-2.073,9.941-8.12,16.625-10.461L31.237,54.7l6.839,13.029c5.444-2.582,26.818-12.391,39.231-13.254l-.017-16.2,9.132,14.564c3.591-1.121,15.293-4.494,24.859-3.985-2.087-4.674-7.522-15.65-14.126-19.607-6.967-4.174-38.454-4.411-50.7-4.137L13.5,53.265Z" transform="translate(17.735 41.21)" fill="#002974"/>
    <path id="패스_214" data-name="패스 214" d="M13.53,42.187c-.1.166,2.007,11.751,2.007,11.751L10.119,45.02Z" transform="translate(18.811 78.425)" fill="#002974"/>
    <path id="패스_215" data-name="패스 215" d="M16.467,56.3a1.443,1.443,0,0,1-1.224-.686l-5.418-8.92a1.433,1.433,0,0,1,.309-1.841l3.414-2.833a1.429,1.429,0,0,1,2.342,1.124c.094.929,1.258,7.473,1.984,11.47a1.438,1.438,0,0,1-.9,1.6,1.506,1.506,0,0,1-.509.091M12.91,46.263l.789,1.3c-.114-.655-.212-1.224-.292-1.713Z" transform="translate(17.882 77.494)" fill="#002974"/>
    <path id="패스_216" data-name="패스 216" d="M44.62,31.616c.172.08,4.815,10.861,4.815,10.861l-.44-10.5Z" transform="translate(82.949 58.774)" fill="#002974"/>
    <path id="패스_217" data-name="패스 217" d="M50.362,44.834a1.433,1.433,0,0,1-1.312-.863c-1.6-3.714-4.237-9.778-4.672-10.61a1.425,1.425,0,0,1,1.289-2.239l4.374.36a1.43,1.43,0,0,1,1.312,1.364l.437,10.5A1.431,1.431,0,0,1,50.682,44.8a1.34,1.34,0,0,1-.32.034m-2.45-10.661c.2.449.435.972.7,1.584l-.063-1.53Z" transform="translate(82.019 57.847)" fill="#002974"/>
    <path id="패스_218" data-name="패스 218" d="M44.575,56.5a15.479,15.479,0,0,1-9.906,19.267A14.951,14.951,0,0,1,15.885,65.607a15.478,15.478,0,0,1,9.906-19.267A14.95,14.95,0,0,1,44.575,56.5" transform="translate(28.276 84.859)" fill="#ffcfbc"/>
    <path id="패스_219" data-name="패스 219" d="M65.695,49.8a15.479,15.479,0,0,1-9.906,19.267A14.951,14.951,0,0,1,37,58.9a15.478,15.478,0,0,1,9.906-19.267A14.95,14.95,0,0,1,65.695,49.8" transform="translate(67.538 72.398)" fill="#ffcfbc"/>
    <path id="패스_220" data-name="패스 220" d="M28.972,29.254s-13.04-3.943-8.434-13.483Z" transform="translate(36.348 29.318)" fill="#002974"/>
    <path id="패스_221" data-name="패스 221" d="M13.714,51.5a20.684,20.684,0,0,1,4.843-9.944l-7.694.5Z" transform="translate(20.196 77.25)" fill="#002974"/>
    <path id="패스_222" data-name="패스 222" d="M51.788,40.331a19.832,19.832,0,0,0-9.469-5.4l6.619-4.046Z" transform="translate(78.672 57.415)" fill="#002974"/>
    <path id="패스_223" data-name="패스 223" d="M23.965,40.351c.091.229.174.463.246.7-.071-.24-.132-.48-.183-.723Z" transform="translate(44.551 74.975)" fill="#f6ce07"/>
    <path id="패스_224" data-name="패스 224" d="M25.881,46.635c-.014-.049-.034-.1-.049-.146.014.049.029.1.04.149Z" transform="translate(48.022 86.423)" fill="#f6ce07"/>
    <path id="패스_225" data-name="패스 225" d="M36.492,46.805a8.723,8.723,0,0,1-9.546-6.221,9.042,9.042,0,0,1-4.451,10.664,8.72,8.72,0,0,1,9.543,6.221,9.04,9.04,0,0,1,4.454-10.664" transform="translate(41.817 75.445)" fill="#f6ce07"/>
    <path id="패스_226" data-name="패스 226" d="M31.927,37.824c.091.229.174.463.246.7-.071-.24-.132-.48-.183-.723Z" transform="translate(59.353 70.277)" fill="#f6ce07"/>
    <path id="패스_227" data-name="패스 227" d="M33.843,44.108c-.014-.049-.034-.1-.049-.146.014.049.029.1.04.149Z" transform="translate(62.823 81.725)" fill="#f6ce07"/>
    <path id="패스_228" data-name="패스 228" d="M44.454,44.278a8.723,8.723,0,0,1-9.546-6.221,9.042,9.042,0,0,1-4.451,10.664A8.721,8.721,0,0,1,40,54.939a9.038,9.038,0,0,1,4.454-10.661" transform="translate(56.618 70.748)" fill="#f6ce07"/>
    <path id="패스_229" data-name="패스 229" d="M37.364,66.16a4.687,4.687,0,0,1-2.176-.578c-2.353-1.244-4.56-4.469-5.749-8.42-1.827-6.067-.712-11.433,2.6-12.482a4.252,4.252,0,0,1,3.314.4c2.356,1.244,4.56,4.469,5.752,8.42,1.83,6.07.715,11.433-2.6,12.485a3.743,3.743,0,0,1-1.141.174m-4.183-18.8a.9.9,0,0,0-.28.043c-1.272.4-2.184,4.083-.726,8.932,1.1,3.634,2.973,5.99,4.349,6.716a1.473,1.473,0,0,0,1.118.209c1.272-.406,2.187-4.086.726-8.932-1.1-3.637-2.976-6-4.351-6.719a1.825,1.825,0,0,0-.835-.249" transform="translate(53.101 82.731)" fill="#c8675d"/>
    <path id="패스_230" data-name="패스 230" d="M22.973,38.605l-.555-.875c-3.3-5.172-3.362-5.272-10.627-14.435l6.722-5.329c7.328,9.246,7.639,9.669,11.136,15.156l.555.872Z" transform="translate(21.92 33.398)" fill="#002974"/>
    <path id="패스_231" data-name="패스 231" d="M27.163,33.708l-.02-1.032c-.134-6.553-.109-7.085.849-18.955l8.548.692c-.952,11.779-.949,11.9-.823,18.086l.023,1.041Z" transform="translate(50.35 25.507)" fill="#002974"/>
    <path id="패스_232" data-name="패스 232" d="M34.9,36.049l-6.661,5.624L10.151,19.115,6.709,22.022,2.566,16.859,12.673,8.328Z" transform="translate(4.77 15.48)" fill="#fff"/>
    <path id="패스_233" data-name="패스 233" d="M29.173,44.031c-.046,0-.091,0-.14-.006a1.435,1.435,0,0,1-.975-.532L10.884,22.082,8.56,24.041a1.5,1.5,0,0,1-1.058.335,1.43,1.43,0,0,1-.978-.532L2.381,18.677a1.424,1.424,0,0,1,.192-1.984L12.683,8.167a1.424,1.424,0,0,1,1.061-.335,1.44,1.44,0,0,1,.972.532L36.95,36.083a1.427,1.427,0,0,1-.194,1.987l-6.661,5.621a1.405,1.405,0,0,1-.921.34M11.081,18.614c.046,0,.091,0,.137.006a1.437,1.437,0,0,1,.978.529L29.371,40.563l4.477-3.78L13.4,11.3,5.484,17.977l2.353,2.936,2.324-1.961a1.417,1.417,0,0,1,.921-.337" transform="translate(3.84 14.552)" fill="#002974"/>
    <path id="패스_234" data-name="패스 234" d="M37.144,13.925a22.464,22.464,0,0,1,4.466,1.249A12.274,12.274,0,0,1,45.493,17.6a11.13,11.13,0,0,1,2.67,3.905,13.638,13.638,0,0,1,.872,5.749,12.674,12.674,0,0,1-1.2,5.395,10.174,10.174,0,0,1-2.562,3.291A9.738,9.738,0,0,1,42.2,37.655a16.656,16.656,0,0,1-2.7.695,10.861,10.861,0,0,1-1.218.16c-.546.049-1.152.069-1.81.063s-1.347-.037-2.056-.1a11.262,11.262,0,0,1-1.944-.32,11.284,11.284,0,0,1-1.178-.3q-.785-.232-1.741-.62a19.553,19.553,0,0,1-2-.958,12.7,12.7,0,0,1-1.961-1.315l.229-6.9a6.273,6.273,0,0,0,.975,1.227,11.581,11.581,0,0,0,1.5,1.272,20.038,20.038,0,0,0,1.841,1.184,14.315,14.315,0,0,0,2.024.961,6.154,6.154,0,0,0,1.029.314c.426.1.869.183,1.329.252a12.31,12.31,0,0,0,1.309.12,7.074,7.074,0,0,0,.966-.017,4.127,4.127,0,0,0,1.956-.666,4.558,4.558,0,0,0,1.307-1.352,6,6,0,0,0,.726-1.7,8.506,8.506,0,0,0,.257-1.773,14.23,14.23,0,0,0-.08-2.01,7.3,7.3,0,0,0-.529-2.024,5.447,5.447,0,0,0-1.252-1.8,6.848,6.848,0,0,0-2.21-1.372,13.768,13.768,0,0,0-2.793-.809,28.227,28.227,0,0,0-2.813-.355c-.923-.066-1.824-.1-2.7-.094s-1.7.009-2.456.017L26.841.5l20.931.735L47.531,8.5l-15.985-.56-.183,5.481c1.124.009,2.1.049,2.945.129s1.784.209,2.836.38" transform="translate(47.58 0.932)" fill="#fff"/>
    <path id="패스_235" data-name="패스 235" d="M37.6,40.937h-.206c-.7-.009-1.418-.043-2.161-.1a13.321,13.321,0,0,1-2.193-.366,10.842,10.842,0,0,1-1.215-.309,18.774,18.774,0,0,1-1.878-.666A21.783,21.783,0,0,1,27.8,38.467a14.731,14.731,0,0,1-2.181-1.461,1.432,1.432,0,0,1-.526-1.155l.229-6.9A1.431,1.431,0,0,1,28,28.286a5.029,5.029,0,0,0,.755.941,10.368,10.368,0,0,0,1.309,1.109,18.2,18.2,0,0,0,1.713,1.1A13.256,13.256,0,0,0,33.6,32.3a5.147,5.147,0,0,0,.846.26c.386.089.789.166,1.209.223a9.36,9.36,0,0,0,1.149.109,5.862,5.862,0,0,0,.763-.006,2.724,2.724,0,0,0,1.3-.426,3.092,3.092,0,0,0,.9-.926,4.628,4.628,0,0,0,.555-1.3,6.811,6.811,0,0,0,.214-1.461,13.119,13.119,0,0,0-.074-1.815,5.63,5.63,0,0,0-.423-1.624,3.989,3.989,0,0,0-.932-1.327,5.5,5.5,0,0,0-1.753-1.075,12.5,12.5,0,0,0-2.5-.726,25.15,25.15,0,0,0-2.662-.332c-.889-.066-1.744-.1-2.593-.091L27.15,21.8h-.011a1.436,1.436,0,0,1-1.43-1.478l.632-18.932a1.428,1.428,0,0,1,.455-1A1.291,1.291,0,0,1,27.819.007L48.753.739a1.434,1.434,0,0,1,1.378,1.478l-.243,7.259a1.428,1.428,0,0,1-.455,1,1.582,1.582,0,0,1-1.026.383L33.86,10.348l-.089,2.6c.58.023,1.115.054,1.6.1.863.08,1.838.214,2.928.392h.011a23.786,23.786,0,0,1,4.749,1.332,13.621,13.621,0,0,1,4.329,2.7,12.657,12.657,0,0,1,3.019,4.4,15.143,15.143,0,0,1,.983,6.353,14.1,14.1,0,0,1-1.358,6,11.569,11.569,0,0,1-2.93,3.745,11.225,11.225,0,0,1-3.531,1.964,18.075,18.075,0,0,1-2.936.749,11.286,11.286,0,0,1-1.3.174c-.537.046-1.118.069-1.747.069M27.976,35.21a12.028,12.028,0,0,0,1.2.749,18.815,18.815,0,0,0,1.853.886,16.379,16.379,0,0,0,1.6.572,7.967,7.967,0,0,0,1,.254,10.937,10.937,0,0,0,1.841.314c.669.054,1.321.083,1.95.091s1.164-.014,1.67-.06a9.228,9.228,0,0,0,1.029-.132,16.348,16.348,0,0,0,2.565-.655,8.358,8.358,0,0,0,2.627-1.478A8.75,8.75,0,0,0,47.5,32.92a11.275,11.275,0,0,0,1.038-4.789,12.284,12.284,0,0,0-.76-5.143,9.826,9.826,0,0,0-2.324-3.414,10.9,10.9,0,0,0-3.434-2.136,20.93,20.93,0,0,0-4.174-1.172c-1.015-.166-1.93-.289-2.739-.363s-1.747-.117-2.819-.126A1.426,1.426,0,0,1,30.867,14.3l.18-5.481a1.44,1.44,0,0,1,.455-1,1.459,1.459,0,0,1,1.026-.386l14.55.512.146-4.4L29.151,2.915l-.535,16.016.969-.006c.963.026,1.847.026,2.808.1a27.257,27.257,0,0,1,2.959.372,15.087,15.087,0,0,1,3.082.892A8.216,8.216,0,0,1,41.1,21.959a6.9,6.9,0,0,1,1.575,2.267,8.612,8.612,0,0,1,.629,2.427,15.428,15.428,0,0,1,.091,2.213,9.483,9.483,0,0,1-.3,2.073,7.466,7.466,0,0,1-.895,2.107,5.965,5.965,0,0,1-1.718,1.773,5.536,5.536,0,0,1-2.619.915,9.218,9.218,0,0,1-1.152.02,13.232,13.232,0,0,1-1.47-.134c-.5-.077-.989-.163-1.452-.274a7.976,7.976,0,0,1-1.252-.389,16.128,16.128,0,0,1-2.181-1.035,20.945,20.945,0,0,1-1.973-1.272c-.109-.074-.212-.152-.312-.232Z" transform="translate(46.65 0)" fill="#002974"/>
    <path id="패스_236" data-name="패스 236" d="M45.514,63.857a2.515,2.515,0,0,0-.529-1.764c-3.574-4.572-14.318,4.795-14.318,4.795-5.9-10.87-8.52-11.21-10.67-10.187-1.561.74-2.041,3.359-1.481,5.026,1.247,3.714,3.133,11.1,8.428,19.639C33.91,92.6,44.9,86.546,44.9,86.546c2.739-1.061,8.388-6.887,9.286-9.589A2.317,2.317,0,0,0,52.3,73.787c2.69-5.209-3.148-4.743-3.148-4.743,1.49-6.4-3.64-5.186-3.64-5.186L41.5,67.828" transform="translate(34.003 104.701)" fill="#ffe8db"/>
    <path id="패스_237" data-name="패스 237" d="M39.02,90.52c-3.914,0-8.669-1.527-12.354-7.471a75.89,75.89,0,0,1-7.98-18.1c-.217-.686-.412-1.3-.589-1.833-.789-2.333-.069-5.689,2.221-6.776,3.657-1.738,6.9.786,11.7,9.286,2.5-1.958,7.714-5.644,11.7-5.261a4.691,4.691,0,0,1,3.331,1.781,3.812,3.812,0,0,1,.618,1.126,4.29,4.29,0,0,1,2.882,1.181,5.012,5.012,0,0,1,1.207,4.186,4.409,4.409,0,0,1,3.053,1.741,4.015,4.015,0,0,1,.3,3.574,3.638,3.638,0,0,1,1.144,1.161,3.741,3.741,0,0,1,.232,3.222c-1.026,3.093-6.987,9.257-10.124,10.473A17.012,17.012,0,0,1,39.02,90.52M22.352,58.705a1.763,1.763,0,0,0-.806.217c-.729.343-1.129,2.121-.74,3.282.186.549.386,1.178.606,1.881A72.459,72.459,0,0,0,29.093,81.54c6.15,9.918,15.656,4.9,16.059,4.68,2.493-.978,7.859-6.51,8.611-8.783a1.123,1.123,0,0,0,.037-.846,1.447,1.447,0,0,0-.8-.466,1.431,1.431,0,0,1-1.035-2.067c.6-1.155.629-1.841.463-2.1-.314-.472-1.618-.615-2.224-.569A1.426,1.426,0,0,1,48.7,69.646c.36-1.544.3-2.7-.16-3.162a1.914,1.914,0,0,0-1.415-.352L43.44,69.775a1.429,1.429,0,0,1-2.01-2.033l3.542-3.505a1.044,1.044,0,0,0-.174-.329,1.823,1.823,0,0,0-1.355-.7c-3.256-.335-8.966,4-10.9,5.684a1.423,1.423,0,0,1-2.193-.395c-4.569-8.423-6.81-9.795-7.994-9.795" transform="translate(33.07 103.769)" fill="#002974"/>
    <line id="선_2" data-name="선 2" x1="4.474" y2="4.046" transform="translate(78.685 173.741)" fill="#ffe8db"/>
    <path id="패스_238" data-name="패스 238" d="M28.451,67.175a1.429,1.429,0,0,1-.958-2.49l4.474-4.046a1.429,1.429,0,1,1,1.916,2.121l-4.474,4.045a1.429,1.429,0,0,1-.958.369" transform="translate(50.234 112.041)" fill="#002974"/>
    <line id="선_3" data-name="선 3" x1="4.051" y2="3.259" transform="translate(82.256 178.485)" fill="#ffe8db"/>
    <path id="패스_239" data-name="패스 239" d="M29.7,68.049A1.43,1.43,0,0,1,28.8,65.5l4.051-3.259a1.429,1.429,0,1,1,1.79,2.227l-4.051,3.262a1.425,1.425,0,0,1-.895.314" transform="translate(52.557 115.127)" fill="#002974"/>
    <path id="패스_240" data-name="패스 240" d="M20.479,61.912a7.1,7.1,0,0,0,6.121-1.9" transform="translate(38.071 111.57)" fill="#ffe8db"/>
    <path id="패스_241" data-name="패스 241" d="M22.571,64.366a7.273,7.273,0,0,1-1.464-.132,1.428,1.428,0,0,1,.595-2.793,5.667,5.667,0,0,0,4.817-1.507,1.429,1.429,0,1,1,2.021,2.021,8.337,8.337,0,0,1-5.97,2.41" transform="translate(37.143 110.642)" fill="#002974"/>
    <path id="패스_242" data-name="패스 242" d="M40.672,68.843a2.52,2.52,0,0,1-.535-1.761c.432-5.844,14.455-4.337,14.455-4.337-1.118-12.388.861-14.186,3.2-14.59,1.7-.294,3.534,1.592,3.988,3.291,1.015,3.788,3.522,10.973,3.854,21.088.44,13.312-11.968,14.681-11.968,14.681-2.842.712-10.713-.826-12.94-2.539s-.192-3.708-.192-3.708c-5.086-2.739-.014-5.738-.014-5.738-4.752-4.423.152-6.387.152-6.387l5.5.955" transform="translate(71.145 89.463)" fill="#ffe8db"/>
    <path id="패스_243" data-name="패스 243" d="M52.721,89.763c-3.777,0-9.826-1.4-11.936-3.025a3.7,3.7,0,0,1-1.6-2.753,3.6,3.6,0,0,1,.309-1.667,3.984,3.984,0,0,1-1.727-3.065A4.534,4.534,0,0,1,39.344,76a5.028,5.028,0,0,1-1.329-4.111,4.415,4.415,0,0,1,1.744-2.679,4.111,4.111,0,0,1-.12-1.3,4.828,4.828,0,0,1,1.8-3.405c3.059-2.547,9.415-2.547,12.517-2.387-.723-9.8.552-13.76,4.52-14.444,2.539-.415,4.969,1.936,5.615,4.334.146.543.32,1.161.52,1.847a76.746,76.746,0,0,1,3.382,19.561c.475,14.467-13.106,16.131-13.243,16.148a8.5,8.5,0,0,1-2.03.2m-10.9-18.5a2.023,2.023,0,0,0-1,1.161c-.117.655.466,1.638,1.6,2.693a1.433,1.433,0,0,1-.246,2.279c-.64.38-1.564,1.249-1.55,1.807.009.4.575.935,1.512,1.438a1.431,1.431,0,0,1,.323,2.282,1.508,1.508,0,0,0-.423.9,1.107,1.107,0,0,0,.483.649c1.867,1.435,9.306,2.9,11.725,2.284.638-.086,11.273-1.455,10.884-13.246a73,73,0,0,0-3.271-18.867c-.206-.706-.386-1.338-.538-1.9-.312-1.164-1.6-2.4-2.364-2.25-.941.163-3.145.54-2.018,13.051a1.429,1.429,0,0,1-.42,1.146,1.412,1.412,0,0,1-1.155.4c-2.513-.266-9.575-.5-12.1,1.607a1.954,1.954,0,0,0-.778,1.415,1.085,1.085,0,0,0,.029.363l4.823.838a1.429,1.429,0,0,1-.486,2.816Z" transform="translate(70.216 88.535)" fill="#002974"/>
    <line id="선_4" data-name="선 4" x2="5.921" y2="0.746" transform="translate(111.667 164.694)" fill="#ffe8db"/>
    <path id="패스_244" data-name="패스 244" d="M45.912,60.714a1.27,1.27,0,0,1-.18-.011l-5.924-.746a1.429,1.429,0,0,1,.357-2.836l5.924.746a1.429,1.429,0,0,1-.177,2.848" transform="translate(71.68 106.157)" fill="#002974"/>
    <line id="선_5" data-name="선 5" x2="5.138" y2="0.343" transform="translate(111.68 170.432)" fill="#ffe8db"/>
    <path id="패스_245" data-name="패스 245" d="M45.133,62.315c-.034,0-.066,0-.1,0L39.9,61.969a1.434,1.434,0,0,1-1.332-1.521,1.489,1.489,0,0,1,1.521-1.332l5.138.343a1.43,1.43,0,0,1-.091,2.856" transform="translate(71.689 109.891)" fill="#002974"/>
    <path id="패스_246" data-name="패스 246" d="M50.074,52.545a7.133,7.133,0,0,1-6.1,1.981" transform="translate(81.758 97.681)" fill="#ffe8db"/>
    <path id="패스_247" data-name="패스 247" d="M46.072,56.988a8.228,8.228,0,0,1-1.415-.126,1.429,1.429,0,1,1,.5-2.813,5.637,5.637,0,0,0,4.8-1.55,1.43,1.43,0,0,1,2.1,1.947,8.734,8.734,0,0,1-5.981,2.542" transform="translate(80.828 96.752)" fill="#002974"/>
    <path id="패스_248" data-name="패스 248" d="M6.208,48.965A1.436,1.436,0,0,1,4.839,47.95L1.4,36.557a1.429,1.429,0,1,1,2.736-.826l3.439,11.39A1.433,1.433,0,0,1,6.623,48.9a1.483,1.483,0,0,1-.415.06" transform="translate(2.492 64.531)" fill="#002974"/>
    <path id="패스_249" data-name="패스 249" d="M1.431,42.471A1.43,1.43,0,0,1,1,39.678l11.1-3.522a1.43,1.43,0,0,1,.866,2.725l-11.1,3.525a1.507,1.507,0,0,1-.432.066" transform="translate(-0.001 67.091)" fill="#002974"/>
    <path id="패스_250" data-name="패스 250" d="M61.8,55a1.436,1.436,0,0,1-1.369-1.015L56.992,42.6a1.429,1.429,0,1,1,2.736-.826l3.437,11.387a1.432,1.432,0,0,1-.955,1.784A1.483,1.483,0,0,1,61.8,55" transform="translate(105.835 75.758)" fill="#002974"/>
    <path id="패스_251" data-name="패스 251" d="M57.02,48.51a1.43,1.43,0,0,1-.432-2.793l11.1-3.522a1.43,1.43,0,1,1,.866,2.725L57.451,48.444a1.507,1.507,0,0,1-.432.066" transform="translate(103.339 78.315)" fill="#002974"/>
  </g>
</svg>
