<svg id="그룹_79" data-name="그룹 79" xmlns="http://www.w3.org/2000/svg" xmlns:xlink="http://www.w3.org/1999/xlink" width="174.146" height="173.057" viewBox="0 0 174.146 173.057">
  <defs>
    <clipPath id="clip-path">
      <rect id="사각형_6" data-name="사각형 6" width="174.146" height="173.057" fill="none"/>
    </clipPath>
  </defs>
  <g id="그룹_5" data-name="그룹 5" clip-path="url(#clip-path)">
    <path id="패스_106" data-name="패스 106" d="M14.32,45.879S12.244,57.674,8.9,62.135a2.714,2.714,0,0,0,.993,4.012c6.221,3.223,22.1,7.9,56.839.94,0,0-22.139-3.9-31.81-17.633Z" transform="translate(16.694 91.398)" fill="#002974"/>
    <path id="패스_107" data-name="패스 107" d="M80.866,37.558s6.43,10.1,11.227,12.947a2.712,2.712,0,0,1,.613,4.087C88.191,59.948,75.31,70.343,40.547,77.2c0,0,18.967-12.07,22.651-28.458Z" transform="translate(80.776 74.822)" fill="#002974"/>
    <path id="패스_108" data-name="패스 108" d="M131.474,59.759c6.463,32.516-15.26,64.233-48.518,70.842S17.5,116.212,11.037,83.7,26.3,19.464,59.554,12.854s65.456,14.389,71.919,46.905" transform="translate(19.72 23.184)" fill="#002974"/>
    <path id="패스_109" data-name="패스 109" d="M71.6,134.324a62.89,62.89,0,0,1-34.467-10.248,60.581,60.581,0,0,1-16.966-85.36,63.891,63.891,0,0,1,87.215-17.334,60.588,60.588,0,0,1,16.966,85.36,63.2,63.2,0,0,1-40.1,26.328A64.908,64.908,0,0,1,71.6,134.324M72.908,14.129A62.058,62.058,0,0,0,60.847,15.32,60.236,60.236,0,0,0,22.634,40.406a57.584,57.584,0,0,0,16.131,81.162,60.89,60.89,0,0,0,83.11-16.517,57.587,57.587,0,0,0-16.128-81.162,59.894,59.894,0,0,0-32.839-9.76" transform="translate(18.717 22.184)" fill="#002974"/>
    <path id="패스_110" data-name="패스 110" d="M131.812,91.525c12.253-1.619,25.089-13.991,23.47-26.247s-12.561-21.549-24.221-17.453C120.6,27.571,96.714,13.337,72.812,16.494c-25.963,3.432-46.4,28.345-49.062,53.278C11.389,69.644,3.511,80.218,7.479,92.737c3.734,11.783,19.275,18.994,31.3,16.131" transform="translate(12.838 31.985)" fill="#ffe8db"/>
    <path id="패스_111" data-name="패스 111" d="M34.263,111.98c-11.744,0-23.979-7.573-27.223-17.8C4.991,87.7,5.85,81.241,9.4,76.445a18.258,18.258,0,0,1,14.009-7.154c3.468-26.726,25.281-50,50.2-53.293,23.025-3.034,47.7,9.964,59.182,31.017a17.924,17.924,0,0,1,14.383,2.068,23.532,23.532,0,0,1,10.583,16.989C159.53,79.494,145.661,92.324,133,94a1.5,1.5,0,0,1-.392-2.968c11.251-1.484,23.695-13.115,22.181-24.566a20.523,20.523,0,0,0-9.18-14.835,15.027,15.027,0,0,0-13.061-1.4,1.5,1.5,0,0,1-1.828-.724C120.069,28.873,96.2,16.018,74,18.966c-26.81,3.543-45.34,29.2-47.773,51.953a1.5,1.5,0,0,1-1.487,1.34c-.153,0-.147,0-.221,0A15.478,15.478,0,0,0,11.8,78.225c-2.974,4.015-3.668,9.5-1.912,15.048,3.36,10.592,17.72,17.938,29.527,15.128a1.476,1.476,0,0,1,1.8,1.107,1.491,1.491,0,0,1-1.107,1.8,25.206,25.206,0,0,1-5.85.67" transform="translate(11.849 30.998)" fill="#002974"/>
    <path id="패스_112" data-name="패스 112" d="M14.052,50.688c4.024,30.454,27.689,45.945,58.176,42.174,29.706-3.671,49.514-28.393,47.486-59.783" transform="translate(27.994 65.899)" fill="#ffe8db"/>
    <path id="패스_113" data-name="패스 113" d="M64.291,95.923c-27.579,0-47.1-16.577-50.726-44.042a1.5,1.5,0,0,1,2.968-.392C20.315,80.107,42.5,96.144,73.04,92.377c29.171-3.606,48.159-27.54,46.175-58.2a1.5,1.5,0,0,1,2.986-.192c2.092,32.321-17.974,57.554-48.793,61.366a74.4,74.4,0,0,1-9.117.575" transform="translate(26.997 64.9)" fill="#002974"/>
    <path id="패스_114" data-name="패스 114" d="M14.513,55.68a1.49,1.49,0,0,1-.9-.3C10.507,53.035,8.84,50.249,8.651,47.1c-.341-5.772,4.521-10.508,4.725-10.706a1.5,1.5,0,0,1,2.074,2.154c-.039.039-4.078,4-3.809,8.384.138,2.232,1.406,4.273,3.773,6.059a1.5,1.5,0,0,1-.9,2.69" transform="translate(17.201 71.664)" fill="#c8675d"/>
    <path id="패스_115" data-name="패스 115" d="M19.9,50.915A1.487,1.487,0,0,1,18.459,49.8c-.85-3.238-2.217-5.4-4.069-6.43a5.205,5.205,0,0,0-3.7-.545,1.5,1.5,0,0,1-.883-2.858,8.22,8.22,0,0,1,6.041.787c2.591,1.442,4.443,4.234,5.5,8.291a1.486,1.486,0,0,1-1.068,1.822,1.362,1.362,0,0,1-.377.051" transform="translate(17.432 79.106)" fill="#c8675d"/>
    <path id="패스_116" data-name="패스 116" d="M56.9,47.941a1.473,1.473,0,0,1-.919-.314,1.5,1.5,0,0,1-.263-2.1c1.825-2.34,2.519-4.635,2.074-6.828-.88-4.3-5.808-7.079-5.856-7.109a1.5,1.5,0,0,1,1.442-2.621c.251.141,6.173,3.456,7.34,9.111.637,3.094-.251,6.215-2.636,9.285a1.5,1.5,0,0,1-1.182.577" transform="translate(101.917 57.341)" fill="#c8675d"/>
    <path id="패스_117" data-name="패스 117" d="M52.49,45.362a1.5,1.5,0,0,1-1.5-1.484c-.03-4.195,1.035-7.37,3.166-9.437a8.269,8.269,0,0,1,5.628-2.331,1.5,1.5,0,0,1,1.442,1.553A1.625,1.625,0,0,1,59.693,35.1,5.477,5.477,0,0,0,56.2,36.625c-1.493,1.478-2.241,3.914-2.217,7.229A1.5,1.5,0,0,1,52.5,45.362Z" transform="translate(101.588 63.968)" fill="#c8675d"/>
    <path id="패스_118" data-name="패스 118" d="M38.958,51.836a20.536,20.536,0,0,1-6.786-1.074c-3.71-1.3-6.074-3.635-6.655-6.562a1.49,1.49,0,0,1,1.176-1.759l30.215-6.005a1.5,1.5,0,0,1,1.759,1.173c.583,2.929-.709,5.987-3.638,8.608a23.206,23.206,0,0,1-10.865,5.1,26.758,26.758,0,0,1-5.206.521m-9.937-6.81a7.781,7.781,0,0,0,4.141,2.914,20.2,20.2,0,0,0,10.416.44,20.186,20.186,0,0,0,9.455-4.389,7.782,7.782,0,0,0,2.714-4.273Z" transform="translate(50.777 72.521)" fill="#c8675d"/>
    <path id="패스_119" data-name="패스 119" d="M11.468,69.646,13.6,71.252s11.149-7.786,19.626-9.341l2.507-12.169,4.381,10.67s30.26-10.736,44.206-9.44l1.311-12.72,6.143,12.154s17.621-3.812,29.138-1.092c0,0-5.108-17.977-13.833-24.371s-53.365-9.982-53.365-9.982L15.657,40.487Z" transform="translate(22.846 29.805)" fill="#002974"/>
    <path id="패스_120" data-name="패스 120" d="M14.638,74.121l-3.707-2.792,4.407-30.688L54.38,14.448l.521.042c1.84.147,45.167,3.7,54.131,10.266,9.036,6.625,14.174,24.416,14.389,25.17l.7,2.448-2.48-.583c-11.062-2.615-28.309,1.065-28.482,1.1l-1.128.245L87.665,44.5l-.94,9.114-1.472-.135c-13.5-1.266-43.267,9.252-43.569,9.359l-1.34.476-3.067-7.456-1.72,8.36-.993.186C26.511,65.88,15.635,73.426,15.527,73.5ZM14.145,70l.572.434c2.744-1.825,11.14-7.121,18.312-8.767l3.3-16.005,5.706,13.893c5.886-2.011,29.126-9.566,42.016-9.15l1.685-16.361,7.929,15.691c3.812-.742,16.262-2.866,26.133-1.349C118.1,43.4,113.646,31.847,107.26,27.171c-6.78-4.973-39.386-8.608-52.078-9.656L18.109,42.383Z" transform="translate(21.776 28.783)" fill="#002974"/>
    <path id="패스_121" data-name="패스 121" d="M15.343,32.629c-.12.156.841,12.079.841,12.079l-4.671-9.587Z" transform="translate(22.936 65.002)" fill="#231814"/>
    <path id="패스_122" data-name="패스 122" d="M17.181,47.2a1.487,1.487,0,0,1-1.343-.841l-4.674-9.587a1.5,1.5,0,0,1,.53-1.909l3.83-2.492a1.495,1.495,0,0,1,2.3,1.433c0,.966.518,7.681.847,11.78a1.486,1.486,0,0,1-1.49,1.616m-2.75-10.55.637,1.308c-.048-.625-.084-1.17-.117-1.643Z" transform="translate(21.939 64.007)" fill="#002974"/>
    <path id="패스_123" data-name="패스 123" d="M46.812,25.868c.168.1,3.839,11.484,3.839,11.484L51.3,26.706Z" transform="translate(93.257 51.533)" fill="#002974"/>
    <path id="패스_124" data-name="패스 124" d="M51.648,39.844a1.5,1.5,0,0,1-1.424-1.038c-1.263-3.917-3.357-10.317-3.722-11.212a1.5,1.5,0,0,1,1.58-2.2l4.491.841a1.485,1.485,0,0,1,1.218,1.556l-.649,10.649a1.5,1.5,0,0,1-1.308,1.394,1.316,1.316,0,0,1-.186.012M50.113,28.815c.156.449.326.969.524,1.562l.087-1.448Z" transform="translate(92.26 50.537)" fill="#002974"/>
    <path id="패스_125" data-name="패스 125" d="M46.7,49.471A15.633,15.633,0,1,1,28.321,37.185,15.636,15.636,0,0,1,46.7,49.471" transform="translate(31.342 73.477)" fill="#ffcfbc"/>
    <path id="패스_126" data-name="패스 126" d="M68.272,45.184A15.633,15.633,0,1,1,49.891,32.9,15.636,15.636,0,0,1,68.272,45.184" transform="translate(74.313 64.936)" fill="#ffcfbc"/>
    <path id="패스_127" data-name="패스 127" d="M32.238,22.556S19.15,17.17,24.922,8.035Z" transform="translate(46.719 16.007)" fill="#002974"/>
    <path id="패스_128" data-name="패스 128" d="M14.048,40.446a18.928,18.928,0,0,1,6.307-8.264L12.4,32.14Z" transform="translate(24.695 64.028)" fill="#002974"/>
    <path id="패스_129" data-name="패스 129" d="M14.874,47.17,11.786,31.638l14.317.075-3.647,2.678a17.576,17.576,0,0,0-5.778,7.537Zm.56-12.525L15.9,37a20.722,20.722,0,0,1,1.828-2.343Z" transform="translate(23.48 63.028)" fill="#002974"/>
    <path id="패스_130" data-name="패스 130" d="M53.5,33.811a19.259,19.259,0,0,0-9.045-5.5l7.328-3.145Z" transform="translate(88.553 50.131)" fill="#002974"/>
    <path id="패스_131" data-name="패스 131" d="M59.143,40.559l-3.734-4.378a17.941,17.941,0,0,0-8.282-5.024l-4.21-1.1,13.022-5.592ZM51.51,29.619a21.114,21.114,0,0,1,2.723,1.607l-.512-2.555Z" transform="translate(85.497 48.73)" fill="#002974"/>
    <path id="패스_132" data-name="패스 132" d="M42.779,83.416c.305.027,11.262.1,15.113-16.277,0,0,2.376-8.579-.482-12.6a2.914,2.914,0,0,0-4.539-.23c-1.077,1.221-.685,4.722-3.489,7.337,0,0-9.611-13.719-15.912-17.148a2.119,2.119,0,0,0-3.106,1.99c.135,1.954,1.682,5.4,6.813,11.493,0,0-10.275-9.279-15.682-9.374-5.844-.1,8.243,14.368,8.243,14.368s-9.545-6.771-12.866-4.629,10.287,11.7,10.287,11.7-8.049-3.57-10.885-1.352,11.248,13.381,26.5,14.721" transform="translate(31.69 88.148)" fill="#ffe8db"/>
    <path id="패스_133" data-name="패스 133" d="M43.726,85.9l-.078,0h0c-13.249-1.164-26.684-9.751-28.1-14.527a2.529,2.529,0,0,1,.8-2.858,6.873,6.873,0,0,1,4.853-.987c-2.846-2.492-5.392-5.29-5.353-7.3a2.542,2.542,0,0,1,1.209-2.139c1.676-1.089,4.183-.673,6.676.275-2.819-3.558-4.743-6.912-3.947-8.755a2.62,2.62,0,0,1,2.729-1.5c2.5.045,5.733,1.679,8.692,3.6a11.08,11.08,0,0,1-1.343-4.123,3.617,3.617,0,0,1,5.317-3.405c5.278,2.875,12.486,12.22,15.269,16.005A11.2,11.2,0,0,0,51.58,57.1a6.532,6.532,0,0,1,1.164-2.786,4.413,4.413,0,0,1,6.885.359c3.175,4.467.963,12.911.7,13.86C56.359,85.436,44.8,85.9,43.726,85.9m.144-2.986h0c.473,0,10.057-.212,13.563-15.125.619-2.256,1.753-8.576-.245-11.385a1.381,1.381,0,0,0-1.062-.58,1.514,1.514,0,0,0-1.137.473,6.134,6.134,0,0,0-.509,1.538,11.129,11.129,0,0,1-3.079,5.9,1.567,1.567,0,0,1-1.176.392,1.491,1.491,0,0,1-1.068-.628c-.1-.135-9.482-13.468-15.407-16.69a.62.62,0,0,0-.613.033.6.6,0,0,0-.284.536c.084,1.2,1.032,4.186,6.466,10.634a1.5,1.5,0,0,1-2.145,2.074c-2.708-2.442-10.52-8.743-14.545-8.982.539,1.882,4.488,7,9.18,11.822a1.5,1.5,0,0,1-1.939,2.265c-4.033-2.861-9.237-5.332-10.984-4.689.488,1.532,5.039,5.736,10.131,9.312A1.495,1.495,0,0,1,27.553,72.4c-2.759-1.215-7.373-2.516-9.09-1.7.954,2.477,12.106,11.029,25.406,12.211" transform="translate(30.692 87.155)" fill="#002974"/>
    <path id="패스_134" data-name="패스 134" d="M30.07,50.063s-6.882,5.975-3.564,12.447" transform="translate(51.003 99.734)" fill="#ffe8db"/>
    <path id="패스_135" data-name="패스 135" d="M27.514,65a1.5,1.5,0,0,1-1.332-.814c-3.809-7.43,3.6-13.982,3.914-14.261a1.5,1.5,0,0,1,1.969,2.259c-.248.212-5.954,5.3-3.22,10.637A1.5,1.5,0,0,1,27.514,65" transform="translate(49.995 98.737)" fill="#002974"/>
    <path id="패스_136" data-name="패스 136" d="M61.3,80.337c-.272.141-10.368,4.4-20.188-9.261,0,0-5.476-7.017-4.375-11.825A2.916,2.916,0,0,1,40.846,57.3c1.46.715,2.439,4.1,6.029,5.446,0,0,3.635-16.352,8.145-21.932a2.12,2.12,0,0,1,3.632.655c.619,1.855.509,5.634-1.9,13.222,0,0,5.948-12.5,10.906-14.659,5.362-2.331-2.121,16.427-2.121,16.427s6.23-9.9,10.119-9.195S70.618,62.01,70.618,62.01s6.074-6.376,9.545-5.41S74.884,73.263,61.3,80.337" transform="translate(72.895 79.358)" fill="#ffe8db"/>
    <path id="패스_137" data-name="패스 137" d="M58,83.588c-4.288,0-10.772-1.831-17.106-10.64-.569-.73-5.841-7.687-4.617-13.031a4.358,4.358,0,0,1,2.391-2.971,4.412,4.412,0,0,1,3.836.009,6.486,6.486,0,0,1,2.139,2.13,11.178,11.178,0,0,0,2.223,2.421c1.125-4.563,4.21-15.957,7.986-20.634a3.621,3.621,0,0,1,6.218,1.122,11.047,11.047,0,0,1,.335,4.321c2-2.911,4.363-5.658,6.655-6.655A2.636,2.636,0,0,1,71.151,40c1.442,1.4.946,5.236-.3,9.6,1.942-1.834,4.105-3.16,6.062-2.81a2.548,2.548,0,0,1,1.936,1.517c.8,1.843-.479,5.4-2.157,8.794a6.843,6.843,0,0,1,4.862-.946,2.538,2.538,0,0,1,1.837,2.334c.518,4.955-8.608,18.028-20.41,24.168l0,0A12.521,12.521,0,0,1,58,83.588m4.3-2.253h0ZM40.574,59.5a1.472,1.472,0,0,0-.619.141,1.378,1.378,0,0,0-.763.937c-.772,3.363,2.7,8.773,4.1,10.574,8.979,12.489,17.923,9.009,18.354,8.836,11.834-6.182,18.869-18.345,18.8-21-.033,0-.06,0-.093,0-1.933,0-5.607,2.905-7.654,5.051A1.5,1.5,0,0,1,70.352,62.2c3.339-5.254,5.936-10.87,5.8-12.48-1.84.075-5.718,4.348-8.354,8.534A1.5,1.5,0,0,1,65.14,56.9C67.614,50.7,69.3,44.489,69.1,42.508,65.3,44.561,60.636,53.1,59.1,56.332a1.495,1.495,0,0,1-2.774-1.1c2.549-8.031,2.289-11.149,1.906-12.292a.589.589,0,0,0-.47-.389.579.579,0,0,0-.58.2C52.944,48,49.365,63.908,49.332,64.067a1.491,1.491,0,0,1-.748.99,1.527,1.527,0,0,1-1.236.09,11.1,11.1,0,0,1-5.1-4.273,6.29,6.29,0,0,0-1.059-1.23,1.4,1.4,0,0,0-.61-.141" transform="translate(71.898 78.36)" fill="#002974"/>
    <path id="패스_138" data-name="패스 138" d="M40.027,47.493s8.641,2.89,8.052,10.137" transform="translate(79.74 94.614)" fill="#ffe8db"/>
    <path id="패스_139" data-name="패스 139" d="M49.076,60.123c-.042,0-.081,0-.126-.006A1.5,1.5,0,0,1,47.583,58.5c.485-5.975-6.729-8.495-7.038-8.6a1.5,1.5,0,0,1,.952-2.837c.4.135,9.745,3.357,9.066,11.681a1.493,1.493,0,0,1-1.487,1.373" transform="translate(78.746 93.617)" fill="#002974"/>
    <path id="패스_140" data-name="패스 140" d="M33.275,40.7a1.5,1.5,0,0,1-.96-2.642l7.624-6.4a1.494,1.494,0,1,1,1.921,2.289l-4.44,3.731,5.093-.036h.012a1.5,1.5,0,0,1,.012,2.992l-9.249.066Z" transform="translate(63.309 62.352)" fill="#002974"/>
    <path id="패스_141" data-name="패스 141" d="M26.672,42.768a1.5,1.5,0,0,1-.56-2.881l4.722-1.918L25.3,36.221a1.5,1.5,0,0,1,.9-2.852l9.494,3a1.5,1.5,0,0,1,.111,2.813l-8.576,3.477a1.48,1.48,0,0,1-.56.111" transform="translate(48.323 66.344)" fill="#002974"/>
    <path id="패스_142" data-name="패스 142" d="M30.325,31.016a1.464,1.464,0,0,1-.85-.266L4.682,13.608a1.5,1.5,0,0,1,1.7-2.463L31.175,28.29a1.5,1.5,0,0,1-.85,2.726" transform="translate(8.04 21.667)" fill="#fdd143"/>
    <path id="패스_143" data-name="패스 143" d="M29.1,30.359a1.5,1.5,0,0,1-.341-.036L1.155,23.854a1.5,1.5,0,1,1,.685-2.911l27.606,6.463a1.5,1.5,0,0,1-.341,2.953" transform="translate(0 41.641)" fill="#fdd143"/>
    <path id="패스_144" data-name="패스 144" d="M3.482,34.879A1.5,1.5,0,0,1,3.1,31.935L17.76,28.129a1.5,1.5,0,1,1,.754,2.9l-14.656,3.8a1.5,1.5,0,0,1-.377.048" transform="translate(3.954 55.942)" fill="#fdd143"/>
    <path id="패스_145" data-name="패스 145" d="M42.556,30.747a1.463,1.463,0,0,1-.811-.239A1.494,1.494,0,0,1,41.3,28.44L57.655,3.12a1.5,1.5,0,1,1,2.513,1.625L43.813,30.062a1.5,1.5,0,0,1-1.257.685" transform="translate(81.798 4.848)" fill="#fdd143"/>
    <path id="패스_146" data-name="패스 146" d="M47.884,29.679a1.5,1.5,0,0,1-.874-2.711L70.044,10.433a1.5,1.5,0,0,1,1.747,2.433L48.758,29.4a1.482,1.482,0,0,1-.874.281" transform="translate(92.412 20.225)" fill="#fdd143"/>
    <path id="패스_147" data-name="패스 147" d="M51.966,23.8a1.5,1.5,0,0,1-.2-2.977l14.994-2.086a1.516,1.516,0,0,1,1.691,1.272A1.5,1.5,0,0,1,67.172,21.7l-15,2.086a1.643,1.643,0,0,1-.209.015" transform="translate(100.55 37.296)" fill="#fdd143"/>
    <path id="패스_148" data-name="패스 148" d="M13.177,7.439a1.1,1.1,0,0,1,.428-.5,5.945,5.945,0,0,1,.8-.449q2.958-1.423,6.011-2.675c.215-.09.458-.191.727-.308a4.074,4.074,0,0,1,.808-.257A2.226,2.226,0,0,1,22.71,3.2a1.062,1.062,0,0,1,.634.326,1.31,1.31,0,0,1,.275.449,1.392,1.392,0,0,1,.108.554,1.143,1.143,0,0,1-.144.539.941.941,0,0,1-.449.4,6.152,6.152,0,0,1-1.29.572c-.467.15-.91.314-1.329.488-.467.194-.868.383-1.2.563s-.727.368-1.17.566c-.177.078-.4.171-.673.281a2.227,2.227,0,0,0-.6.323.507.507,0,0,0-.206.3.8.8,0,0,0-.009.338,1.382,1.382,0,0,0,.12.332c.06.1.108.2.153.278.117.224.23.461.332.7s.2.482.308.715c.132.323.269.467.416.44a1.737,1.737,0,0,0,.64-.383,7.559,7.559,0,0,1,1.613-.946,8.4,8.4,0,0,1,2.349-.667,5.626,5.626,0,0,1,2.175.129,4.4,4.4,0,0,1,1.807.975,4.9,4.9,0,0,1,1.257,1.855c.054.141.1.272.147.4a2.175,2.175,0,0,1,.1.395,4.708,4.708,0,0,1-.12,2.714,5.289,5.289,0,0,1-1.559,2.28,9.625,9.625,0,0,1-2.887,1.834,6.8,6.8,0,0,1-3.327.488,4.163,4.163,0,0,1-.952-.191,2.278,2.278,0,0,1-.826-.479,1.852,1.852,0,0,1-.554-.817.967.967,0,0,1,.2-.949,1.3,1.3,0,0,1,.613-.443,2.132,2.132,0,0,1,.688-.087,3.923,3.923,0,0,1,.727.1,3.706,3.706,0,0,0,.721.1,9.775,9.775,0,0,0,1.209-.1,4.748,4.748,0,0,0,1.209-.356,3.61,3.61,0,0,0,1.858-1.6,2.406,2.406,0,0,0,.033-2.175,2.254,2.254,0,0,0-1.661-1.379,4.3,4.3,0,0,0-2.678.4,8.377,8.377,0,0,0-.748.383,5.5,5.5,0,0,0-.691.494c-.212.165-.413.332-.61.509a4.043,4.043,0,0,1-.607.452,1.978,1.978,0,0,1-.685.257,1.556,1.556,0,0,1-.823-.108,1.08,1.08,0,0,1-.658-.53,6.759,6.759,0,0,1-.359-.751q-.274-.592-.574-1.176c-.2-.389-.392-.781-.577-1.173s-.371-.784-.566-1.17-.383-.769-.572-1.167a1.7,1.7,0,0,1-.189-.586,1.006,1.006,0,0,1,.066-.461" transform="translate(26.113 6.352)" fill="#002974"/>
    <path id="패스_149" data-name="패스 149" d="M22.43,3.357a6.809,6.809,0,0,1,4.59.3,4.445,4.445,0,0,1,2.325,3.279,4.326,4.326,0,0,1-.506,3.342,5.4,5.4,0,0,1-3.223,1.984c-.29.081-.6.168-.919.26a8.951,8.951,0,0,1-1,.236,7.373,7.373,0,0,1-1.1.111,6.119,6.119,0,0,1-1.245-.1,3.492,3.492,0,0,1-1.152-.428,4.64,4.64,0,0,1-.931-.721,4.882,4.882,0,0,1-.715-.913,7.97,7.97,0,0,1-.506-.993,4.5,4.5,0,0,1-.383-2.139,3.737,3.737,0,0,1,.676-1.849,5.043,5.043,0,0,1,1.634-1.451,8.377,8.377,0,0,1,2.445-.919M37.66,16.849a1.7,1.7,0,0,1,.694.057.862.862,0,0,1,.494.437.8.8,0,0,1-.41,1.2,2,2,0,0,1-.545.227c-.195.048-.362.084-.521.111a95.071,95.071,0,0,0-10.1,2.322c-.3.087-.6.177-.931.275s-.646.186-.975.272a1.04,1.04,0,0,1-.943-.1,1.922,1.922,0,0,1-.557-.745q-.3-.718-.6-1.439c-.03-.084-.063-.186-.108-.305s-.078-.251-.114-.392a3.535,3.535,0,0,1-.066-.4.619.619,0,0,1,.06-.338,1.486,1.486,0,0,1,.6-.616,4.391,4.391,0,0,1,.892-.371l.715-.215a1.125,1.125,0,0,1,.192-.045,1.178,1.178,0,0,0,.141-.03A99.15,99.15,0,0,1,35.439,14.4c-.066-.293-.132-.586-.2-.883a100.968,100.968,0,0,0-10.173,2.442,2.2,2.2,0,0,1-.251.063,1.155,1.155,0,0,0-.263.093c-.186.054-.374.111-.56.171-.156.045-.3.09-.419.129a1.639,1.639,0,0,1-.383.075c-.15.015-.29.03-.413.036a.516.516,0,0,1-.368-.117,1.219,1.219,0,0,1-.494-.931.563.563,0,0,1,.114-.332,1.338,1.338,0,0,1,.269-.266,3.232,3.232,0,0,1,.332-.212c.108-.057.212-.108.3-.153.123-.054.239-.1.356-.147s.239-.084.362-.123.269-.084.407-.123a1.345,1.345,0,0,0,.233-.045c.072-.021.144-.045.224-.069A102.724,102.724,0,0,1,35.033,11.5a4.378,4.378,0,0,1,2.017,0,1.233,1.233,0,0,1,.9,1.008c.138.679.269,1.358.4,2.038a1.064,1.064,0,0,1-.048.589,1.482,1.482,0,0,1-.452.563,1.357,1.357,0,0,1-.583.29c-.206.042-.41.084-.616.117a98.172,98.172,0,0,0-10.607,2.48c.09.287.183.572.272.859a97.438,97.438,0,0,1,11.343-2.6M26.433,7.744a2.16,2.16,0,0,0-.772-1.361A2.366,2.366,0,0,0,24.1,5.82a4.414,4.414,0,0,0-1.239.186,3.946,3.946,0,0,0-1.149.542,2.52,2.52,0,0,0-.781.853,1.616,1.616,0,0,0-.147,1.125,2.548,2.548,0,0,0,.314.811,1.857,1.857,0,0,0,.613.634,2.382,2.382,0,0,0,.937.338,3.564,3.564,0,0,0,1.29-.054,5.57,5.57,0,0,0,.978-.278,3,3,0,0,0,.823-.461,2.071,2.071,0,0,0,.557-.673,1.751,1.751,0,0,0,.165-.919l-.03-.18m10.748.96a2.4,2.4,0,0,1-.018.527,1.66,1.66,0,0,1-.141.446,1.076,1.076,0,0,1-.329.41,1.584,1.584,0,0,1-.667.3,1.733,1.733,0,0,1-.886-.1A1.363,1.363,0,0,1,34.6,9.9a2.065,2.065,0,0,1-.44-.673,6.3,6.3,0,0,1-.281-.8c-.078-.275-.144-.548-.194-.823s-.1-.539-.171-.784c-.081-.305-.15-.6-.212-.868s-.126-.536-.191-.793-.135-.515-.206-.775-.15-.548-.23-.856c-.027-.093-.051-.189-.078-.281a3.019,3.019,0,0,1-.156-.512,2.064,2.064,0,0,1-.048-.533,1.72,1.72,0,0,1,.293-.793,1.159,1.159,0,0,1,.527-.431,2.428,2.428,0,0,1,.847-.209,1.529,1.529,0,0,1,1.239.386,1.444,1.444,0,0,1,.326.679,3.05,3.05,0,0,1,.084.512q.776,3.173,1.469,6.355" transform="translate(35.181 1.532)" fill="#002974"/>
    <path id="패스_150" data-name="패스 150" d="M30.374,11.538a1.884,1.884,0,0,0,.245-.353,1.52,1.52,0,0,1,.183-.275q-.368-2.531-.784-5.057a.421.421,0,0,1-.239.045,1.13,1.13,0,0,0-.245,0q-.364.031-.727.072c-.628.063-1.167.117-1.622.156a5.665,5.665,0,0,1-.883.039,2.642,2.642,0,0,1-.874-.194,1.424,1.424,0,0,1-.622-.542,2.068,2.068,0,0,1-.144-.278.616.616,0,0,1-.039-.314.918.918,0,0,1,.147-.592.681.681,0,0,1,.2-.23,2.677,2.677,0,0,1,.293-.2.847.847,0,0,1,.293-.186c.108-.036.206-.078.311-.12q1.8-.229,3.618-.4c-.03-.165-.057-.392-.093-.682s-.066-.506-.09-.64a2.039,2.039,0,0,1,.072-.539,2.29,2.29,0,0,1,.174-.461,1.422,1.422,0,0,1,.883-.643A1.529,1.529,0,0,1,31.056,0a2.641,2.641,0,0,1,.661.087,1.8,1.8,0,0,1,.44.162.9.9,0,0,1,.314.263,1.529,1.529,0,0,1,.521.6,2.459,2.459,0,0,1,.144.377,3.259,3.259,0,0,1,.09.4l.135.919c.566-.033,1.128-.063,1.7-.087.368-.018.748-.024,1.131-.024s.706.021.972.039a2.469,2.469,0,0,1,.739.221,1.807,1.807,0,0,1,.592.455,1.144,1.144,0,0,1,.284.628.639.639,0,0,1-.06.566,1.689,1.689,0,0,1-1.221.724,4.733,4.733,0,0,1-.667.063,6.588,6.588,0,0,0-.772.069c-.29.012-.634.033-1.032.066s-.823.048-1.278.045c.018.123.027.263.042.428s.03.329.051.494.042.32.06.461a1.834,1.834,0,0,0,.072.347c.1.823.2,1.649.3,2.472a.742.742,0,0,1,0,.215.359.359,0,0,0,.054.233c.012.12.027.242.039.359a1.3,1.3,0,0,1,.272.224,2.926,2.926,0,0,0,.359.308,2.1,2.1,0,0,1,.329.257,2.456,2.456,0,0,0,.269.236q.139.13.269.26a3.819,3.819,0,0,0,.3.26,2.733,2.733,0,0,1,.281.26,2.751,2.751,0,0,0,.308.281c.057.075.117.141.171.2a1.935,1.935,0,0,0,.168.153,3.873,3.873,0,0,1,.284.374c.183.177.362.356.524.542a7.008,7.008,0,0,1,.5.634,3.241,3.241,0,0,1,.479.634,3.311,3.311,0,0,1,.272.64,1.455,1.455,0,0,1,.033.655,1.151,1.151,0,0,1-.317.61,1.4,1.4,0,0,1-.9.284,2.112,2.112,0,0,1-.506-.042,4.058,4.058,0,0,1-.515-.156,3.16,3.16,0,0,1-.452-.266c-.129-.093-.266-.186-.4-.266a5.426,5.426,0,0,1-.455-.422c-.147-.15-.29-.29-.434-.419s-.287-.272-.425-.419-.281-.305-.434-.464a6.115,6.115,0,0,1-.667-.613,1.758,1.758,0,0,0-.377-.326c-.138-.09-.26-.177-.371-.257-.087.126-.177.248-.263.368s-.174.242-.257.371c-.1.129-.2.245-.284.359a4.3,4.3,0,0,0-.257.362,5.058,5.058,0,0,1-.281.476c-.1.162-.212.311-.326.458a4.621,4.621,0,0,1-.275.476,3.074,3.074,0,0,1-.371.464,3.123,3.123,0,0,1-.826.706,2.342,2.342,0,0,1-.832.26l-.227.027a.72.72,0,0,1-.236-.018,1.21,1.21,0,0,1-.835-.512,1.176,1.176,0,0,1-.209-.7c.009-.153.018-.293.03-.425a.775.775,0,0,1,.12-.344,2.879,2.879,0,0,1,.114-.365c.048-.12.1-.245.168-.374a3.548,3.548,0,0,0,.189-.317,1.707,1.707,0,0,1,.233-.344,1.359,1.359,0,0,0,.123-.174,1.742,1.742,0,0,1,.126-.174c.078-.144.156-.29.236-.434a.909.909,0,0,1,.135-.275,4.5,4.5,0,0,0,.248-.38c.114-.147.218-.293.317-.44s.186-.284.269-.413c.114-.147.227-.3.335-.443s.206-.284.29-.41m14.5-3.962a1.474,1.474,0,0,1,.26.033,1.027,1.027,0,0,0,.257.036,2.567,2.567,0,0,0,.3.048c.108.015.215.033.326.051a2.866,2.866,0,0,1,.6.206.912.912,0,0,1,.44.4.99.99,0,0,1,.194.6,2.834,2.834,0,0,1-.009.329,1.589,1.589,0,0,1-.066.323q-.054.18-.117.377a.519.519,0,0,1-.254.3,2.139,2.139,0,0,1-.715.251,8.013,8.013,0,0,1-1.035-.03,9.683,9.683,0,0,0-1.035-.042.088.088,0,0,0-.051.018h-.027l-.027.021,0,.069c0,.183.012.395.018.646s.009.5.018.769.015.521.018.766.009.473.012.667a21.281,21.281,0,0,1,.033,2.3c0,.108,0,.212,0,.317,0,.2-.006.407-.009.643a5.6,5.6,0,0,1-.063.685,2.777,2.777,0,0,1-.171.637,1.265,1.265,0,0,1-.344.494,1,1,0,0,1-.787.293l-.048-.024a1.587,1.587,0,0,1-.949-.335,2.039,2.039,0,0,1-.56-.73,3.349,3.349,0,0,1-.26-.892,7.157,7.157,0,0,1-.078-.823q-.247-6.7-.862-13.42c0-.018-.006-.084-.018-.215a1.975,1.975,0,0,1,.015-.452,2.284,2.284,0,0,1,.132-.545,1.079,1.079,0,0,1,.311-.464,1.3,1.3,0,0,1,.563-.236,3.536,3.536,0,0,1,.7-.072,1.761,1.761,0,0,1,1.086.359,1.355,1.355,0,0,1,.518.679c.063.236.12.488.177.742a.891.891,0,0,1,.045.272,7.605,7.605,0,0,1,.12.8c.027.272.054.545.087.817.012.168.024.329.042.488s.033.32.039.488a.76.76,0,0,0,0,.26,2.4,2.4,0,0,1,.024.239c.021.422.042.844.06,1.269,0,.072,0,.156.012.248a.676.676,0,0,0,.063.251c0,.015.093.024.272.033l.3.009a1.194,1.194,0,0,0,.38.039l.054,0" transform="translate(49.032 0)" fill="#002974"/>
    <path id="패스_151" data-name="패스 151" d="M33.264.868a1.168,1.168,0,0,1,.628-.38A2.326,2.326,0,0,1,34.67.422c.212.021.419.045.622.072a5.512,5.512,0,0,1,.6.117,1.438,1.438,0,0,1,.862.7,3.17,3.17,0,0,1,.317,1.107,6.666,6.666,0,0,1,0,1.2c-.039.392-.057.709-.066.952q-.085,3.348-.26,6.687c-.021.3-.033.6-.051.9a1.948,1.948,0,0,1-.233.835,1.04,1.04,0,0,1-.709.485,2.862,2.862,0,0,1-1.05.054,3.31,3.31,0,0,1-1.029-.311,1.318,1.318,0,0,1-.658-.616,2.047,2.047,0,0,1-.1-.518c-.024-.206-.042-.395-.054-.56-.012-.257-.009-.53,0-.808s.021-.56.027-.847q.063-3.793,0-7.6a3.528,3.528,0,0,1,.075-.7,1.482,1.482,0,0,1,.3-.7m2.762,14.889c.045.084.087.156.126.23a1.518,1.518,0,0,1,.1.251,2.424,2.424,0,0,1,.063.533,1.326,1.326,0,0,1-.09.521,1.436,1.436,0,0,1-.29.455.967.967,0,0,1-.5.278,1.908,1.908,0,0,1-.658.06,2.888,2.888,0,0,1-.721-.123,2.029,2.029,0,0,1-.634-.314,1.077,1.077,0,0,1-.4-.515,2.148,2.148,0,0,1-.1-.745,1.726,1.726,0,0,1,.144-.724.78.78,0,0,1,.506-.416,1.912,1.912,0,0,1,.721-.051,6.034,6.034,0,0,1,.957.126,1.476,1.476,0,0,1,.784.434" transform="translate(65.435 0.823)" fill="#002974"/>
    <path id="패스_152" data-name="패스 152" d="M43.51,52.958s-7.735,9.5-7.283,12.391L29.641,53.76a68.99,68.99,0,0,0,13.869-.8" transform="translate(59.05 105.501)" fill="#fff"/>
    <path id="패스_153" data-name="패스 153" d="M37.205,67.824a1.467,1.467,0,0,1-1.284-.739L29.336,55.5a1.494,1.494,0,0,1,.027-1.523,1.391,1.391,0,0,1,1.343-.712,68.371,68.371,0,0,0,13.507-.772,1.476,1.476,0,0,1,1.574.694,1.492,1.492,0,0,1-.123,1.714C41.8,59.649,38.543,64.891,38.7,66.115a1.509,1.509,0,0,1-1.5,1.709M33.241,56.31l3.567,6.275a46.25,46.25,0,0,1,4.228-6.613,67.887,67.887,0,0,1-7.795.338" transform="translate(58.053 104.507)" fill="#002974"/>
    <path id="패스_154" data-name="패스 154" d="M34.4,55.97s10.778,5.82,11.466,8.665L47.52,51.41A69.178,69.178,0,0,1,34.4,55.97" transform="translate(68.528 102.417)" fill="#fff"/>
    <path id="패스_155" data-name="패스 155" d="M46.861,67.128a1.494,1.494,0,0,1-1.454-1.146c-.323-1.188-5.335-4.79-10.721-7.7A1.5,1.5,0,0,1,35.1,55.5a68.492,68.492,0,0,0,12.777-4.443A1.5,1.5,0,0,1,50,52.592L48.345,65.817a1.5,1.5,0,0,1-1.4,1.308l-.084,0M39.368,57.5A45.74,45.74,0,0,1,45.807,62l.895-7.16A74.763,74.763,0,0,1,39.368,57.5" transform="translate(67.533 101.42)" fill="#002974"/>
  </g>
</svg>
