<svg xmlns="http://www.w3.org/2000/svg" width="175.994" height="200" viewBox="0 0 175.994 200">
  <g id="그림_오늘도_달성" data-name="그림_오늘도 달성" transform="translate(-2009.385 -392.039)">
    <path id="패스_156" data-name="패스 156" d="M12.041,0S6.065,11.353,1.174,14.822A2.884,2.884,0,0,0,.89,19.231c5.351,5.29,20.16,15.178,58.161,19.291,0,0-21.505-11.116-26.983-28.232Z" transform="matrix(0.995, -0.105, 0.105, 0.995, 2013.561, 503.55)" fill="#002974"/>
    <path id="패스_157" data-name="패스 157" d="M54.374,0S57.7,12.371,61.707,16.817a2.884,2.884,0,0,1-.7,4.364C54.622,25.186,37.986,31.623,0,27.4c0,0,23.437-6.186,32.56-21.7Z" transform="matrix(0.995, -0.105, 0.105, 0.995, 2117.123, 509.741)" fill="#002974"/>
    <path id="패스_158" data-name="패스 158" d="M134.079,71.541C130.136,106.767,97.017,132.044,60.1,128S-3.549,92.112.39,56.885,37.449-3.617,74.367.431s63.648,35.883,59.711,71.11" transform="matrix(0.995, -0.105, 0.105, 0.995, 2025.63, 413.87)" fill="#002974"/>
    <path id="패스_159" data-name="패스 159" d="M129.993,96.36c13.3,2.319,30.744-6.131,33.078-19.142s-6.018-26.03-19.517-25.632C139.3,27.56,119.077,5.315,93.132.793,64.944-4.125,35.463,14.641,24.5,39.19,11.664,35.053-.021,43.276,0,57.318c.024,13.215,13.852,25.6,27.326,26.574" transform="matrix(0.995, -0.105, 0.105, 0.995, 2011.042, 429.869)" fill="#ffe8db"/>
    <path id="패스_160" data-name="패스 160" d="M135.957,99.719a27.81,27.81,0,0,1-4.73-.4,1.5,1.5,0,1,1,.529-2.947c12.272,2.128,29.109-5.717,31.3-17.931a21.731,21.731,0,0,0-4.723-18.173,16.585,16.585,0,0,0-13.231-5.7,1.652,1.652,0,0,1-1.56-1.245C139.205,28.814,118.528,7.965,94.38,3.751,65.226-1.335,37.449,18.845,27.429,41.28a1.534,1.534,0,0,1-1.875.818c-5.6-1.8-11.26-1.105-15.514,1.912-4.437,3.149-6.983,8.541-6.975,14.8.022,11.93,12.613,24.118,25.9,25.08a1.5,1.5,0,1,1-.223,2.99C14,85.808.028,72.165,0,58.8-.006,51.577,3,45.3,8.24,41.581a20.211,20.211,0,0,1,16.942-2.713C37.527,12.754,67.864-3.917,94.905.8c24.969,4.353,46.4,25.6,51.419,50.773a19.713,19.713,0,0,1,14.322,6.736,24.725,24.725,0,0,1,5.427,20.655c-2.267,12.613-17.206,20.769-30.118,20.752" transform="matrix(0.995, -0.105, 0.105, 0.995, 2009.381, 428.548)" fill="#002974"/>
    <path id="패스_161" data-name="패스 161" d="M1.016,0C-4.758,32.339,14.546,55.761,47.131,61.752c31.753,5.835,60.172-12.973,68.3-45.621" transform="matrix(0.995, -0.105, 0.105, 0.995, 2042.894, 483.072)" fill="#ffe8db"/>
    <path id="패스_162" data-name="패스 162" d="M60.275,65.829a65.572,65.572,0,0,1-11.91-1.105C13.861,58.385-4.718,33.463,1.034,1.24a1.512,1.512,0,0,1,2.978.521C-1.423,32.207,16.2,55.77,48.912,61.779c31.239,5.73,58.6-12.557,66.559-44.507a1.51,1.51,0,0,1,2.932.719C111.079,47.424,88.02,65.829,60.275,65.829" transform="matrix(0.995, -0.105, 0.105, 0.995, 2040.296, 482.326)" fill="#002974"/>
    <path id="패스_163" data-name="패스 163" d="M3.937,20.064a1.5,1.5,0,0,1-1.23-.629C.294,16.071-.513,12.722.315,9.478,1.83,3.532,8.329.291,8.6.156a1.512,1.512,0,0,1,2.022.68,1.494,1.494,0,0,1-.68,2.007c-.054.027-5.541,2.783-6.7,7.381-.6,2.348.051,4.865,1.923,7.474a1.487,1.487,0,0,1-.354,2.088,1.506,1.506,0,0,1-.877.279" transform="matrix(0.995, -0.105, 0.105, 0.995, 2022.905, 472.413)" fill="#c8675d"/>
    <path id="패스_164" data-name="패스 164" d="M8.83,14.291l-.076,0a1.5,1.5,0,0,1-1.433-1.57c.184-3.574-.517-6.231-2.08-7.905A5.759,5.759,0,0,0,1.481,3,1.509,1.509,0,0,1,0,1.477,1.5,1.5,0,0,1,1.506,0h.012A8.821,8.821,0,0,1,7.4,2.72C9.58,5,10.568,8.42,10.339,12.869A1.5,1.5,0,0,1,8.83,14.291" transform="matrix(0.995, -0.105, 0.105, 0.995, 2024.003, 482.674)" fill="#c8675d"/>
    <path id="패스_165" data-name="패스 165" d="M1.511,20.839a1.513,1.513,0,0,1-1.245-.65,1.489,1.489,0,0,1,.39-2.082c2.663-1.815,4.141-3.957,4.4-6.365.5-4.715-3.7-9.169-3.739-9.211A1.49,1.49,0,0,1,1.369.413,1.515,1.515,0,0,1,3.5.464c.215.219,5.2,5.473,4.562,11.575-.348,3.325-2.264,6.2-5.7,8.537a1.491,1.491,0,0,1-.856.264" transform="matrix(0.995, -0.105, 0.105, 0.995, 2166.545, 475.378)" fill="#c8675d"/>
    <path id="패스_166" data-name="패스 166" d="M1.513,11.4A1.5,1.5,0,0,1,.068,9.459C1.4,5.2,3.505,2.329,6.344.922A8.858,8.858,0,0,1,12.81.367a1.5,1.5,0,0,1,.916,1.914,1.524,1.524,0,0,1-1.92.914,5.763,5.763,0,0,0-4.16.428C5.6,4.663,4.022,6.925,2.958,10.339A1.513,1.513,0,0,1,1.513,11.4" transform="matrix(0.995, -0.105, 0.105, 0.995, 2161.65, 488)" fill="#c8675d"/>
    <path id="패스_167" data-name="패스 167" d="M6.711,3.934A3.378,3.378,0,0,1,2.794,6.648,3.353,3.353,0,0,1,.052,2.766,3.379,3.379,0,0,1,3.972.052,3.352,3.352,0,0,1,6.711,3.934" transform="matrix(0.995, -0.105, 0.105, 0.995, 2083.435, 476.62)" fill="#002974"/>
    <path id="패스_168" data-name="패스 168" d="M1.4.774a.7.7,0,0,1-.777.617A.7.7,0,1,1,.781,0,.7.7,0,0,1,1.4.774" transform="matrix(0.995, -0.105, 0.105, 0.995, 2088.035, 477.72)" fill="#fff"/>
    <path id="패스_169" data-name="패스 169" d="M1.4.774a.7.7,0,0,1-.777.617A.7.7,0,1,1,.781,0,.7.7,0,0,1,1.4.774" transform="matrix(0.995, -0.105, 0.105, 0.995, 2109.186, 478.038)" fill="#fff"/>
    <path id="패스_170" data-name="패스 170" d="M0,42.017l1.705,2.331S15.95,40.03,25.338,41.2l6.635-11.586L33.051,41.9s35.223-1.119,49.4,4.725L88.017,34.1l2.429,14.376s19.712,1.833,30.882,8.34c0,0,.569-19.974-6.465-29.322S62.259.006,62.259.006L13.994,13.67Z" transform="matrix(0.995, -0.105, 0.105, 0.995, 2032.921, 421.588)" fill="#002974"/>
    <path id="패스_171" data-name="패스 171" d="M124.509,60.989l-2.247-1.31c-10.733-6.254-30.026-8.115-30.22-8.134l-1.184-.11L89.087,40.958,85,50.169l-1.4-.578c-13.7-5.648-48.385-4.613-48.726-4.6L33.4,45.03l-.772-8.825-4.683,8.189-1.03-.128c-8.946-1.1-22.83,3.055-22.968,3.1l-1.066.322L0,43.746,14.678,14l.655-.185L64.09.006l.5.2c1.877.746,46.036,18.405,53.239,27.99,7.258,9.645,6.78,29.409,6.76,30.245Zm-31-12.3c4.155.472,18.111,2.354,27.992,7.183-.115-5.546-.944-18.985-6.156-25.915C110.051,22.911,79.693,9.48,63.927,3.175L16.856,16.508,3.564,43.461l.536.732c3.4-.956,14.078-3.681,22.154-3l8.588-15L36.22,41.955c6.659-.147,33.728-.4,47.145,4.335L90.415,30.4Z" transform="matrix(0.995, -0.105, 0.105, 0.995, 2031.015, 420.198)" fill="#002974"/>
    <path id="패스_172" data-name="패스 172" d="M4.752,0C4.577.12,1.687,12.584,1.687,12.584L0,1.3Z" transform="matrix(0.995, -0.105, 0.105, 0.995, 2037.097, 462.806)" fill="#002974"/>
    <path id="패스_173" data-name="패스 173" d="M3.2,15.578H3.139A1.5,1.5,0,0,1,1.7,14.3L.017,3.024A1.5,1.5,0,0,1,1.108,1.362L5.86.059A1.5,1.5,0,0,1,7.637,2.126c-.308.965-1.971,7.992-2.969,12.293A1.507,1.507,0,0,1,3.2,15.578M3.2,3.9l.32,2.151c.23-.959.42-1.746.583-2.4Z" transform="matrix(0.995, -0.105, 0.105, 0.995, 2035.791, 461.473)" fill="#002974"/>
    <path id="패스_174" data-name="패스 174" d="M0,0C.139.156.215,12.943.215,12.943L4.35,2.3Z" transform="matrix(0.995, -0.105, 0.105, 0.995, 2155.996, 462.816)" fill="#002974"/>
    <path id="패스_175" data-name="패스 175" d="M1.723,15.938a1.729,1.729,0,0,1-.272-.024A1.5,1.5,0,0,1,.211,14.45C.187,10.034.118,2.812.033,1.806A1.5,1.5,0,0,1,.317.575a1.532,1.532,0,0,1,1.9-.4l4.35,2.3a1.493,1.493,0,0,1,.7,1.86L3.135,14.977a1.512,1.512,0,0,1-1.412.962M3.141,4.055c.015.674.027,1.486.039,2.471l.789-2.034Z" transform="matrix(0.995, -0.105, 0.105, 0.995, 2154.336, 461.486)" fill="#002974"/>
    <path id="패스_176" data-name="패스 176" d="M33.631,18.553A16.865,16.865,0,0,1,.1,14.874a16.865,16.865,0,0,1,33.527,3.678" transform="matrix(0.995, -0.105, 0.105, 0.995, 2045.31, 478.49)" fill="#ffcfbc"/>
    <path id="패스_177" data-name="패스 177" d="M33.631,18.553A16.865,16.865,0,0,1,.1,14.874a16.865,16.865,0,0,1,33.527,3.678" transform="matrix(0.995, -0.105, 0.105, 0.995, 2117.448, 478.815)" fill="#ffcfbc"/>
    <path id="패스_178" data-name="패스 178" d="M6.144,17.158S-5.564,7.447,3.345,0Z" transform="matrix(0.995, -0.105, 0.105, 0.995, 2090.803, 392.682)" fill="#002974"/>
    <path id="패스_179" data-name="패스 179" d="M0,10.664A22.319,22.319,0,0,1,9.332,2.921L1.191,0Z" transform="matrix(0.995, -0.105, 0.105, 0.995, 2040.113, 460.651)" fill="#002974"/>
    <path id="패스_180" data-name="패스 180" d="M7.394,10.664A22.215,22.215,0,0,0,0,1.084L8.585,0Z" transform="matrix(0.995, -0.105, 0.105, 0.995, 2147.817, 461.565)" fill="#002974"/>
    <path id="패스_181" data-name="패스 181" d="M89.175,69.891,12.326,61.462A13.753,13.753,0,0,1,.086,46.31L3.895,12.216A13.822,13.822,0,0,1,19.185.084L96.031,8.517a13.753,13.753,0,0,1,12.243,15.151l-3.809,34.092a13.822,13.822,0,0,1-15.29,12.132" transform="matrix(0.995, -0.105, 0.105, 0.995, 2041.054, 520.801)" fill="#fff"/>
    <path id="패스_182" data-name="패스 182" d="M92.221,72.97a15.448,15.448,0,0,1-1.7-.093L13.673,64.448A15.278,15.278,0,0,1,.094,47.64L3.9,13.549A15.109,15.109,0,0,1,9.568,3.34,15.365,15.365,0,0,1,20.859.093L97.708,8.525a15.3,15.3,0,0,1,10.3,5.617,15.025,15.025,0,0,1,3.277,11.185l-3.809,34.095A15.332,15.332,0,0,1,92.221,72.97M90.852,69.9a12.31,12.31,0,0,0,13.621-10.8L108.282,25a12.079,12.079,0,0,0-2.63-8.986A12.285,12.285,0,0,0,97.375,11.5L20.526,3.07a12.334,12.334,0,0,0-9.069,2.609,12.126,12.126,0,0,0-4.553,8.2L3.1,47.97A12.27,12.27,0,0,0,14,61.47Z" transform="matrix(0.995, -0.105, 0.105, 0.995, 2039.398, 519.469)" fill="#002974"/>
    <path id="패스_183" data-name="패스 183" d="M1.419,5.7A9.54,9.54,0,0,1,7.656.52c2.394-.629,5.405-.923,7.705.512,4.5,2.807-2.119,5.94-2.119,5.94s5.677.758,5.671,4.011-4.837,4.11-4.837,4.11,4.486,2.1,3.567,4.679-4.55,2.8-4.55,2.8,3.171,1.815,2.18,3.843a2.822,2.822,0,0,1-1.436,1.3,4.864,4.864,0,0,1-4.673-.452C4.584,24.2-3.212,15.731,1.419,5.7" transform="matrix(0.995, -0.105, 0.105, 0.995, 2031.284, 540.735)" fill="#ffe8db"/>
    <path id="패스_184" data-name="패스 184" d="M13.459,31.108A6.585,6.585,0,0,1,9.826,30C4.777,26.627-3.442,17.388,1.552,6.569a10.98,10.98,0,0,1,7.228-6c3.576-.944,6.653-.7,8.9.695C19.653,2.492,20,3.9,19.943,4.858a4.725,4.725,0,0,1-1.678,3.049c1.935.851,3.67,2.307,3.667,4.574a5.191,5.191,0,0,1-3.038,4.505c1.282,1.141,2.391,2.783,1.684,4.775a5.363,5.363,0,0,1-2.923,3.025,3.514,3.514,0,0,1,.487,3.777,4.327,4.327,0,0,1-2.173,2.01,6.01,6.01,0,0,1-2.509.533M12.834,2.992a13.2,13.2,0,0,0-3.283.47A7.96,7.96,0,0,0,4.3,7.815c-4.154,9,2.9,16.82,7.213,19.7a3.338,3.338,0,0,0,3.2.329,1.364,1.364,0,0,0,.71-.587c.242-.5-.9-1.5-1.584-1.9a1.5,1.5,0,0,1,.668-2.789c.021,0,2.66-.231,3.222-1.812.32-.9-1.693-2.3-2.79-2.822a1.5,1.5,0,0,1,.375-2.828c.033-.006,3.594-.716,3.6-2.639,0-1.453-2.993-2.342-4.359-2.525A1.494,1.494,0,0,1,14.1,7.117c1.306-.623,2.793-1.8,2.829-2.432.009-.171-.254-.512-.862-.893a6.081,6.081,0,0,0-3.232-.8m-9.906,4.2h0Z" transform="matrix(0.995, -0.105, 0.105, 0.995, 2029.628, 539.405)" fill="#002974"/>
    <path id="패스_185" data-name="패스 185" d="M18.955,7.933a9.479,9.479,0,0,0-4.943-6.4C11.815.4,8.943-.541,6.379.361c-5.012,1.761.756,6.258.756,6.258S1.431,6.124.717,9.3s3.815,5.059,3.815,5.059S-.313,15.434.016,18.151s3.821,3.723,3.821,3.723S.343,22.956.862,25.151a2.787,2.787,0,0,0,1.115,1.576,4.848,4.848,0,0,0,4.658.572c5.145-1.992,14.622-8.57,12.318-19.366" transform="matrix(0.995, -0.105, 0.105, 0.995, 2143.385, 540.92)" fill="#ffe8db"/>
    <path id="패스_186" data-name="패스 186" d="M6.311,30.637a6.191,6.191,0,0,1-3.736-1.222A4.263,4.263,0,0,1,.9,26.986a3.527,3.527,0,0,1,1.312-3.58,5.3,5.3,0,0,1-2.183-3.58c-.254-2.1,1.188-3.463,2.7-4.3A5.169,5.169,0,0,1,.752,10.472c.5-2.214,2.512-3.256,4.589-3.669a4.7,4.7,0,0,1-.967-3.34c.16-.95.81-2.244,3.014-3.019C9.878-.438,12.934,0,16.223,1.7a10.922,10.922,0,0,1,5.722,7.423c2.488,11.643-7.579,18.872-13.25,21.07a6.675,6.675,0,0,1-2.385.446M7.831,9.579c-1.53,0-3.857.335-4.126,1.543C3.282,13,6.6,14.462,6.634,14.477a1.494,1.494,0,0,1-.257,2.837c-1.188.27-3.461,1.207-3.349,2.157.2,1.656,2.718,2.453,2.742,2.459A1.5,1.5,0,0,1,5.806,24.8c-.753.24-2.089.968-1.959,1.51a1.348,1.348,0,0,0,.559.728A3.308,3.308,0,0,0,7.6,27.4c4.843-1.875,13.461-7.98,11.39-17.658a8.027,8.027,0,0,0-4.163-5.386C13.064,3.447,10.531,2.528,8.4,3.268c-.677.24-1.01.512-1.037.68-.1.62,1.109,2.115,2.222,2.989a1.489,1.489,0,0,1,.466,1.725,1.447,1.447,0,0,1-1.53.944c-.2-.015-.432-.027-.686-.027" transform="matrix(0.995, -0.105, 0.105, 0.995, 2141.724, 539.591)" fill="#002974"/>
    <path id="패스_192" data-name="패스 192" d="M29.855,19.093a6.025,6.025,0,0,1-1.9-.312c-2.914-.959-4.979-3.978-5.916-5.611a25.61,25.61,0,0,1-6.811.138A22.691,22.691,0,0,1,4.29,9.318C1.23,7.039-.278,4.2.042,1.332A1.514,1.514,0,0,1,1.711.008,1.5,1.5,0,0,1,3.047,1.659c-.2,1.776.889,3.648,3.062,5.266a19.6,19.6,0,0,0,9.456,3.406c4.326.482,8.558-.264,11.315-1.977a5.471,5.471,0,0,0,2.814-3.771,1.515,1.515,0,0,1,2.8-.608c.42.689,4.078,6.863,2.92,11.146a4.958,4.958,0,0,1-2.455,3.142,6.422,6.422,0,0,1-3.1.83m-4.734-6.659c.883,1.357,2.252,3,3.8,3.508a3.119,3.119,0,0,0,2.576-.3,1.947,1.947,0,0,0,.995-1.291c.438-1.621-.3-4.041-1.155-6.015a10.159,10.159,0,0,1-2.848,2.552,15.507,15.507,0,0,1-3.368,1.546" transform="matrix(0.995, -0.105, 0.105, 0.995, 2081.86, 489.882)" fill="#c8675d"/>
    <path id="패스_193" data-name="패스 193" d="M3.77,6.87a1.518,1.518,0,0,1-1.309-.749L.2,2.248A1.491,1.491,0,0,1,.756.2,1.518,1.518,0,0,1,2.82.75L5.079,4.623A1.5,1.5,0,0,1,3.77,6.87" transform="matrix(0.995, -0.105, 0.105, 0.995, 2108.878, 495.223)" fill="#c8675d"/>
    <path id="패스_194" data-name="패스 194" d="M10.38,9.907a1.524,1.524,0,0,1-.765-.2L.745,4.542a1.5,1.5,0,0,1,.523-2.771L12.2.022a1.5,1.5,0,1,1,.484,2.957L5.9,4.065l5.245,3.049a1.5,1.5,0,0,1,.541,2.052,1.518,1.518,0,0,1-1.306.74" transform="matrix(0.995, -0.105, 0.105, 0.995, 2102.777, 475.987)" fill="#002974"/>
    <text id="화이팅_" data-name="화이팅!" transform="translate(2068.181 556.718) rotate(1)" fill="#002974" font-size="21" font-family="NEXONLv1GothicOTFBold, NEXON Lv1 Gothic OTF"><tspan x="0" y="0">화이팅!</tspan></text>
  </g>
</svg>
