<svg id="그룹_4" data-name="그룹 4" xmlns="http://www.w3.org/2000/svg" xmlns:xlink="http://www.w3.org/1999/xlink" width="194.122" height="190.354" viewBox="0 0 194.122 190.354">
  <defs>
    <clipPath id="clip-path">
      <rect id="사각형_5" data-name="사각형 5" width="194.122" height="190.354" fill="#002974"/>
    </clipPath>
  </defs>
  <g id="그룹_3" data-name="그룹 3" transform="translate(0 0)" clip-path="url(#clip-path)">
    <path id="패스_51" data-name="패스 51" d="M18.133,45.727s-.352,11.285-2.873,15.9a2.561,2.561,0,0,0,1.468,3.61c6.236,2.169,21.681,4.4,53.155-6.766,0,0-21.18-.661-32.05-12.173Z" transform="translate(34.275 104.756)" fill="#002974"/>
    <path id="패스_52" data-name="패스 52" d="M74.414,33.332S81.773,41.895,86.63,43.9a2.557,2.557,0,0,1,1.122,3.729c-3.492,5.608-14.115,17.034-45.622,28.1,0,0,16.07-13.812,17.3-29.6Z" transform="translate(96.517 76.36)" fill="#002974"/>
    <path id="패스_53" data-name="패스 53" d="M28.185,82.533,15.936,74.168l-5.861,9.718L18.4,98.692l9.787-16.158-6.6,10.906,39.794,24.606s4.959,7.194,5.624,9.09l76.412-26.973c-.665-1.9-1.326-10.607-1.326-10.607l15.533-44.135-11.992-4.344,17.761,6.437L160.573,30.76l-10.666-3.883-4.281,14.2Z" transform="translate(23.081 61.572)" fill="#fff"/>
    <path id="패스_54" data-name="패스 54" d="M68.145,129.925a1.641,1.641,0,0,1-1.55-1.1c-.418-1.185-3.35-5.67-5.233-8.418L23.273,96.858l-2.32,3.831a1.714,1.714,0,0,1-1.432.793,1.643,1.643,0,0,1-1.409-.836L9.787,85.84a1.63,1.63,0,0,1,.026-1.655l5.864-9.725a1.628,1.628,0,0,1,1.056-.757,1.674,1.674,0,0,1,1.28.247l11.554,7.9,115.87-40.9,4.041-13.4a1.632,1.632,0,0,1,.839-1,1.662,1.662,0,0,1,1.3-.076l10.666,3.887a1.647,1.647,0,0,1,1.06,1.274l2.814,16.754a1.644,1.644,0,0,1-2.185,1.817l-4.209-1.527L144.9,90.918c.263,3.324.793,8.652,1.214,9.843a1.644,1.644,0,0,1-1.007,2.1L68.692,129.833a1.642,1.642,0,0,1-.546.092M24.981,94.044l38.405,23.747a1.66,1.66,0,0,1,.49.467c.691,1,3.65,5.328,5.1,7.98l73.644-26c-.53-2.975-.944-8.2-1.037-9.415a1.659,1.659,0,0,1,.089-.671l14.993-42.595-9.9-3.59L30.431,85.033ZM13.124,85.06,19.6,96.571l7.516-12.413-9.521-6.509ZM148.8,41.2l13.644,4.95-2.188-13.029-8.125-2.959Z" transform="translate(21.934 60.428)" fill="#002974"/>
    <path id="패스_55" data-name="패스 55" d="M13.571,83.557l6.6-10.906L137.619,31.192,149.6,35.539l-15.53,44.135,1.326,10.6L58.992,117.25l-5.627-9.086Z" transform="translate(31.09 71.458)" fill="#fdd143"/>
    <path id="패스_56" data-name="패스 56" d="M60.133,120.041a1.642,1.642,0,0,1-1.4-.78l-5.42-8.757L13.853,86.1a1.643,1.643,0,0,1-.543-2.251l6.6-10.906a1.642,1.642,0,0,1,.859-.7L138.217,30.784a1.666,1.666,0,0,1,1.109.007l11.986,4.347a1.644,1.644,0,0,1,.991,2.093L136.9,81l1.28,10.222a1.647,1.647,0,0,1-1.086,1.757L60.68,119.948a1.562,1.562,0,0,1-.546.092M16.969,84.159,55.375,107.91a1.559,1.559,0,0,1,.533.533l4.927,7.961L134.749,90.31l-1.162-9.287a1.678,1.678,0,0,1,.079-.754l14.993-42.595-9.9-3.59L22.419,75.152Z" transform="translate(29.946 70.313)" fill="#002974"/>
    <line id="선_1" data-name="선 1" x1="11.554" y1="8.138" transform="translate(39.71 135.968)" fill="#fdd143"/>
    <path id="패스_57" data-name="패스 57" d="M24.765,52.245a1.633,1.633,0,0,1-.948-.3L12.263,43.811a1.648,1.648,0,0,1,1.9-2.7l11.554,8.138a1.646,1.646,0,0,1-.948,2.991" transform="translate(26.498 93.509)" fill="#002974"/>
    <path id="패스_58" data-name="패스 58" d="M31.4,22.372S18.471,19.107,22.627,9.807Z" transform="translate(49.951 22.466)" fill="#002974"/>
    <path id="패스_59" data-name="패스 59" d="M29.576,66.5c.267-.016,9.721-1.31,11-15.908,0,0,.981-7.688-1.981-10.8a2.539,2.539,0,0,0-3.943.365c-.773,1.185,0,4.156-2.093,6.756,0,0-9.988-10.63-15.846-12.805a1.848,1.848,0,0,0-2.432,2.1c.362,1.665,2.123,4.446,7.3,9.06,0,0-10.011-6.72-14.684-6.131C1.856,39.776,15.8,50.5,15.8,50.5s-9.07-4.65-11.666-2.389,10.324,8.8,10.324,8.8S7.072,54.839,4.9,57.1s11.357,10.136,24.675,9.4" transform="translate(8.672 77.883)" fill="#ffe8db"/>
    <path id="패스_60" data-name="패스 60" d="M29,69.336c-11.166,0-22.783-5.466-24.537-9.284a2.557,2.557,0,0,1,.4-2.942,5.54,5.54,0,0,1,3.314-1.458c-2.55-1.744-4.653-3.666-4.864-5.341a2.553,2.553,0,0,1,.892-2.3c1.178-1.03,3.008-1.162,4.959-.869-2.906-2.906-4.17-5.117-3.765-6.611a2.641,2.641,0,0,1,2.452-1.882c1.935-.25,4.538.51,7.062,1.59A8.472,8.472,0,0,1,13.824,37.7a3.489,3.489,0,0,1,4.611-3.992C23.2,35.479,30.21,42.17,33.326,45.306a11.36,11.36,0,0,0,.385-2.208,6.008,6.008,0,0,1,.714-2.7,4.184,4.184,0,0,1,6.513-.6c3.4,3.574,2.527,11.271,2.419,12.14C41.932,68.165,30.931,69.28,30.819,69.287h-.007c-.6.033-1.211.049-1.817.049m1.724-1.692h0Zm0,0h0ZM7.707,59.1c1.866,2.29,12.061,7.457,22.872,6.908.467-.076,8.372-1.517,9.507-14.414.234-1.859.438-7.451-1.534-9.521a.893.893,0,0,0-.708-.26.9.9,0,0,0-.668.395,7.082,7.082,0,0,0-.191,1.237,10.113,10.113,0,0,1-1.994,5.647,1.664,1.664,0,0,1-1.218.615,1.681,1.681,0,0,1-1.264-.52C29.805,46.306,21.8,38.471,17.29,36.8c-.036,1.2,1.132,3.577,6.536,8.389a1.645,1.645,0,0,1-2.007,2.6c-3.413-2.29-9.633-5.7-12.868-5.887,1.165,1.751,4.936,5.325,8.991,8.445a1.647,1.647,0,0,1-1.754,2.771C12.455,51.2,8.348,49.986,6.828,50.3c1.1,1.369,5.2,4.1,9.511,6.292a1.646,1.646,0,0,1-1.188,3.054c-2.656-.747-6.042-1.079-7.444-.546" transform="translate(7.527 76.741)" fill="#002974"/>
    <path id="패스_61" data-name="패스 61" d="M14.135,51.885a1.638,1.638,0,0,1-1.343-.694c-4.357-6.147,1.379-12.914,1.626-13.2a1.646,1.646,0,0,1,2.491,2.152c-.178.2-4.295,5.1-1.432,9.145a1.645,1.645,0,0,1-1.343,2.6" transform="translate(25.574 85.731)" fill="#231814"/>
    <path id="패스_62" data-name="패스 62" d="M70.758,53.222c-.217.155-8.389,5.084-18.551-5.473,0,0-5.591-5.371-5.239-9.649a2.539,2.539,0,0,1,3.3-2.192c1.349.434,2.613,3.235,5.871,3.946,0,0,1.1-14.546,4.3-19.917a1.846,1.846,0,0,1,3.212.112c.767,1.524,1.139,4.795,0,11.637,0,0,3.574-11.518,7.579-13.993,4.331-2.676.214,14.424.214,14.424s4.137-9.31,7.579-9.182-2.508,13.332-2.508,13.332,4.443-6.249,7.553-5.848-2.478,15.02-13.309,22.8" transform="translate(107.564 39.881)" fill="#ffe8db"/>
    <path id="패스_63" data-name="패스 63" d="M66.575,57.248c-3.758,0-8.869-1.461-14.408-7.217-.586-.556-6.1-6.006-5.693-10.923a4.185,4.185,0,0,1,5.446-3.617,5.917,5.917,0,0,1,2.244,1.649,11.454,11.454,0,0,0,1.688,1.478c.457-4.4,1.715-14.009,4.314-18.377a3.633,3.633,0,0,1,3.113-1.685,3.467,3.467,0,0,1,2.978,1.9,8.3,8.3,0,0,1,.75,2.656c1.29-2.425,2.83-4.637,4.5-5.674a2.638,2.638,0,0,1,3.09-.072c1.251.905,1.655,3.423,1.218,7.513,1.336-1.461,2.708-2.488,4.41-2.442a2.544,2.544,0,0,1,2.132,1.231c.889,1.432.454,4.252-.431,7.21a5.551,5.551,0,0,1,3.488-.948,2.567,2.567,0,0,1,2.165,2.044c1.083,4.295-5.213,16.9-14.72,23.731h0a12.539,12.539,0,0,1-6.286,1.543m5.328-2.88h0ZM50.644,38.575a.916.916,0,0,0-.5.158.854.854,0,0,0-.392.645c-.234,2.843,3.436,7.072,4.742,8.326,9.024,9.373,16.08,5.535,16.491,5.3,8.757-6.315,13.457-16.78,13.466-19.736-1.422.457-3.85,2.847-5.453,5.1a1.646,1.646,0,0,1-2.84-1.632c1.984-4.407,3.459-9.1,3.455-10.863-1.382.754-3.85,4.3-5.522,8.059a1.645,1.645,0,0,1-3.1-1.053c1.191-4.953,1.882-10.074,1.7-12.186-2.468,2.294-5.114,8.747-6.322,12.624a1.621,1.621,0,0,1-1.948,1.112,1.642,1.642,0,0,1-1.244-1.869c1.185-7.151.6-9.725.148-10.623-2.784,4.117-4.1,15.247-4.4,19.186a1.655,1.655,0,0,1-.661,1.2,1.623,1.623,0,0,1-1.336.286,10.148,10.148,0,0,1-5.094-3.14,6.127,6.127,0,0,0-.948-.852.835.835,0,0,0-.244-.039" transform="translate(106.419 38.738)" fill="#002974"/>
    <path id="패스_64" data-name="패스 64" d="M59.086,34.755a1.645,1.645,0,0,1-1.639-1.543C57.138,28.239,50.658,27,50.6,26.995a1.645,1.645,0,0,1-1.326-1.912,1.673,1.673,0,0,1,1.912-1.33c.372.069,9.083,1.738,9.55,9.254a1.641,1.641,0,0,1-1.54,1.744c-.036,0-.069,0-.105,0" transform="translate(112.812 54.363)" fill="#231814"/>
    <path id="패스_65" data-name="패스 65" d="M125.205,49.344c10.4,29.467-5.6,61.978-35.743,72.618s-63-4.624-73.408-34.091,5.6-61.978,35.743-72.618,63,4.624,73.408,34.091" transform="translate(29.515 27.185)" fill="#002974"/>
    <path id="패스_66" data-name="패스 66" d="M128.851,79.5c11.215-3.159,21.526-16.428,18.367-27.644S132.6,33.437,122.272,38.828C109.79,21.34,85.592,11.27,63.717,17.43c-23.761,6.69-39.478,32.682-38.609,56.3C13.56,75.275,7.63,86.2,13.014,97.347c5.068,10.491,20.539,15.128,31.369,10.84" transform="translate(25.217 35.763)" fill="#ffe8db"/>
    <path id="패스_67" data-name="패스 67" d="M36.58,112.6c-9.922,0-19.933-5.18-23.909-13.411C9.854,93.35,9.789,87.131,12.49,82.109a17.418,17.418,0,0,1,12.081-8.642c-.27-25.432,17-50.068,39.84-56.5,21.088-5.934,45.9,2.84,59.526,20.917a17.124,17.124,0,0,1,13.713.063,22.433,22.433,0,0,1,12.292,14.582c3.495,12.41-7.813,26.383-19.5,29.678a1.647,1.647,0,1,1-.9-3.169c10.2-2.873,20.147-15.257,17.228-25.613a19.109,19.109,0,0,0-10.429-12.456,13.794,13.794,0,0,0-12.17.441,1.649,1.649,0,0,1-2.1-.5c-12.66-17.735-36.543-26.469-56.769-20.769C40.885,27.012,27.1,53.326,27.892,74.793a1.639,1.639,0,0,1-1.425,1.688A14.418,14.418,0,0,0,15.39,83.672c-2.2,4.077-2.106,9.211.247,14.079,4.505,9.33,18.752,14.2,29.279,10.024a1.646,1.646,0,1,1,1.214,3.061,25.975,25.975,0,0,1-9.55,1.761" transform="translate(24.078 34.643)" fill="#002974"/>
    <path id="패스_68" data-name="패스 68" d="M17.445,58.579C25.294,86.45,49.459,97.722,77.393,90.1c27.219-7.421,42.377-33.146,36.263-62.159" transform="translate(39.965 64.017)" fill="#ffe8db"/>
    <path id="패스_69" data-name="패스 69" d="M61.913,95.236c-21.75,0-38.6-12.683-44.908-35.068a1.647,1.647,0,0,1,3.169-.9C27.51,85.324,50.257,97.253,78.1,89.661c26.6-7.257,41.031-32.027,35.088-60.234a1.647,1.647,0,1,1,3.222-.681c6.319,30-9.076,56.354-37.441,64.091a65,65,0,0,1-17.06,2.4" transform="translate(38.819 62.873)" fill="#002974"/>
    <path id="패스_70" data-name="패스 70" d="M19.663,53.933a1.637,1.637,0,0,1-.793-.2c-3.271-1.8-5.242-4.232-5.858-7.217-1.116-5.44,2.847-10.6,3.014-10.814a1.645,1.645,0,0,1,2.6,2.021c-.033.043-3.2,4.206-2.383,8.148.415,1.988,1.833,3.666,4.216,4.982a1.645,1.645,0,0,1-.793,3.084" transform="translate(29.356 80.332)" fill="#c8675d"/>
    <path id="패스_71" data-name="패스 71" d="M24.764,48.248a1.648,1.648,0,0,1-1.517-1.007c-1.185-2.817-2.689-4.6-4.472-5.3a4.678,4.678,0,0,0-3.413-.03,1.659,1.659,0,0,1-2.175-.813,1.636,1.636,0,0,1,.783-2.169,7.94,7.94,0,0,1,5.927-.082c2.676,1.02,4.821,3.416,6.384,7.122A1.647,1.647,0,0,1,25.4,48.12a1.675,1.675,0,0,1-.638.128" transform="translate(29.862 87.768)" fill="#c8675d"/>
    <path id="패스_72" data-name="패스 72" d="M55.437,41.748a1.644,1.644,0,0,1-1.432-2.462c1.353-2.366,1.688-4.535,1-6.45-1.359-3.791-6.233-5.687-6.282-5.7a1.646,1.646,0,0,1,1.162-3.08c.257.1,6.325,2.425,8.214,7.651,1.033,2.866.619,5.97-1.231,9.215a1.656,1.656,0,0,1-1.432.829" transform="translate(109.189 54.85)" fill="#c8675d"/>
    <path id="패스_73" data-name="패스 73" d="M50.138,40.323a1.644,1.644,0,0,1-1.622-1.4c-.6-3.975-.023-7.141,1.724-9.405a8.028,8.028,0,0,1,5.1-3.021,1.646,1.646,0,0,1,.365,3.271,4.687,4.687,0,0,0-2.893,1.8c-1.152,1.53-1.5,3.837-1.047,6.858A1.642,1.642,0,0,1,50.388,40.3a1.6,1.6,0,0,1-.25.02" transform="translate(110.618 60.688)" fill="#c8675d"/>
    <path id="패스_74" data-name="패스 74" d="M14.562,72.692,16.77,73.9s9.353-8.764,17.05-11.354l.7-11.689,5.522,9.366S66.835,46.141,80.019,45.473l-.487-12.042L86.9,43.946s15.931-5.927,27.042-4.94c0,0-7.184-16.086-16.185-20.878s-51.131-2.136-51.131-2.136L14.549,44.927Z" transform="translate(33.331 34.953)" fill="#002974"/>
    <path id="패스_75" data-name="패스 75" d="M18.169,77.063l-4.107-2.251-.013-29.474L47.093,15.529l.573-.036c1.738-.1,42.7-2.629,52.01,2.327,9.386,5,16.609,20.98,16.909,21.658l1.145,2.56-2.791-.247c-10.656-.935-26.166,4.785-26.324,4.841l-1.188.444-4.877-6.96.326,8.063-1.626.079c-12.673.645-39.024,14.431-39.29,14.569l-1.385.731L36.99,57.482,36.543,64.9l-1.05.352c-7.276,2.452-16.363,10.913-16.451,11Zm-.816-4.2.326.181c2.429-2.162,9.353-8.02,15.711-10.524l.964-15.991L41.821,59.2c5.5-2.8,25.567-12.693,37.638-14.088l-.652-16.073L88.674,43.12c3.6-1.244,14.5-4.716,23.721-4.729-2.346-4.565-7.9-14.276-14.269-17.666-6.934-3.689-37.655-2.715-49.683-1.981L17.34,46.8Z" transform="translate(32.185 33.811)" fill="#002974"/>
    <path id="패스_76" data-name="패스 76" d="M17.857,32.033c-.092.161,2.409,11.156,2.409,11.156l-5.647-8.316Z" transform="translate(33.491 73.384)" fill="#002974"/>
    <path id="패스_77" data-name="패스 77" d="M21.414,45.983a1.648,1.648,0,0,1-1.362-.721L14.4,36.946a1.651,1.651,0,0,1,.276-2.162l3.242-2.843a1.649,1.649,0,0,1,2.731,1.185c.128.852,1.3,6.154,2.366,10.847a1.646,1.646,0,0,1-.948,1.876,1.691,1.691,0,0,1-.655.135" transform="translate(32.344 72.236)" fill="#002974"/>
    <path id="패스_78" data-name="패스 78" d="M43.633,22.139c.171.069,5.127,10.2,5.127,10.2l-.823-10.018Z" transform="translate(99.96 50.718)" fill="#002974"/>
    <path id="패스_79" data-name="패스 79" d="M49.907,35.128a1.646,1.646,0,0,1-1.478-.921c-2.116-4.321-4.532-9.185-4.966-9.932a1.644,1.644,0,0,1-.293-1.339,1.7,1.7,0,0,1,1.675-1.3l4.3.181a1.649,1.649,0,0,1,1.57,1.511l.826,10.018a1.647,1.647,0,0,1-1.2,1.721,1.669,1.669,0,0,1-.438.059" transform="translate(98.814 49.57)" fill="#002974"/>
    <path id="패스_80" data-name="패스 80" d="M47.845,44.431a14.736,14.736,0,1,1-18.8-8.991,14.737,14.737,0,0,1,18.8,8.991" transform="translate(44.005 79.257)" fill="#ffcfbc"/>
    <path id="패스_81" data-name="패스 81" d="M65.618,38.158a14.736,14.736,0,1,1-18.8-8.991,14.737,14.737,0,0,1,18.8,8.991" transform="translate(84.722 64.886)" fill="#ffcfbc"/>
    <path id="패스_82" data-name="패스 82" d="M18.355,41.125a19.552,19.552,0,0,1,4.374-9.692l-7.523.77Z" transform="translate(34.836 72.01)" fill="#002974"/>
    <path id="패스_83" data-name="패스 83" d="M51.185,30.452a19.569,19.569,0,0,0-9.491-4.8l6.342-4.124Z" transform="translate(95.518 49.323)" fill="#002974"/>
    <path id="패스_84" data-name="패스 84" d="M45.72,46.784s-6.055,10.1-5.229,12.789L32.635,49.45A66.444,66.444,0,0,0,45.72,46.784" transform="translate(74.765 107.178)" fill="#fff"/>
    <path id="패스_85" data-name="패스 85" d="M41.565,62.323a1.519,1.519,0,0,1-1.224-.592L32.482,51.607a1.645,1.645,0,0,1,1.142-2.649,65.017,65.017,0,0,0,12.7-2.58,1.646,1.646,0,0,1,1.958,2.4c-2.955,4.93-5.321,10.291-5.061,11.475a1.723,1.723,0,0,1-.9,1.9,1.8,1.8,0,0,1-.75.171M36.852,51.874l3.8,4.9a44.16,44.16,0,0,1,2.787-6.138c-2.416.582-4.808.984-6.592,1.237" transform="translate(73.618 106.03)" fill="#002974"/>
    <path id="패스_86" data-name="패스 86" d="M36.715,51.022s11.054,4.058,12.1,6.671l-.24-12.812a66.375,66.375,0,0,1-11.861,6.141" transform="translate(84.112 102.818)" fill="#fff"/>
    <path id="패스_87" data-name="패스 87" d="M49.961,60.487a1.641,1.641,0,0,1-1.527-1.033c-.543-1.073-5.749-3.758-11.14-5.739a1.645,1.645,0,0,1,.02-3.1,65.091,65.091,0,0,0,11.5-5.963A1.645,1.645,0,0,1,51.363,46l.244,12.812a1.647,1.647,0,0,1-1.323,1.645,1.555,1.555,0,0,1-.323.033m-7.737-8.362a44.37,44.37,0,0,1,6.019,3.031l-.115-6.2c-1.547.921-3.66,2.113-5.9,3.172" transform="translate(82.966 101.672)" fill="#002974"/>
    <path id="패스_88" data-name="패스 88" d="M26.643,30.021c.1.217.188.438.27.665-.082-.227-.148-.457-.211-.685Z" transform="translate(61.037 68.729)" fill="#efed83"/>
    <path id="패스_89" data-name="패스 89" d="M28.488,35.19l-.053-.138.046.142Z" transform="translate(65.143 80.301)" fill="#efed83"/>
    <path id="패스_90" data-name="패스 90" d="M39.079,35.786a8.564,8.564,0,0,1-9.593-5.578A8.565,8.565,0,0,1,25.52,40.571a8.569,8.569,0,0,1,9.593,5.578,8.563,8.563,0,0,1,3.966-10.363" transform="translate(58.465 69.203)" fill="#f6ce07"/>
    <path id="패스_91" data-name="패스 91" d="M33.51,27.6c.1.217.188.438.27.665-.082-.227-.148-.457-.211-.685Z" transform="translate(76.769 63.176)" fill="#efed83"/>
    <path id="패스_92" data-name="패스 92" d="M35.355,32.766l-.053-.138.046.142Z" transform="translate(80.875 74.748)" fill="#efed83"/>
    <path id="패스_93" data-name="패스 93" d="M45.946,33.362a8.564,8.564,0,0,1-9.593-5.578,8.565,8.565,0,0,1-3.966,10.363,8.569,8.569,0,0,1,9.593,5.578,8.563,8.563,0,0,1,3.966-10.363" transform="translate(74.196 63.65)" fill="#f6ce07"/>
    <path id="패스_94" data-name="패스 94" d="M38.981,51.724c-5.3,0-9.554-2.077-10.873-5.805l-.546-1.55L58.595,33.417l.55,1.55c1.942,5.506-3.353,12.223-12.055,15.3a24.59,24.59,0,0,1-8.109,1.461m-6.871-5.473c2.366,2.448,8.132,2.936,13.888.905s9.935-6.029,10.241-9.419Z" transform="translate(63.14 76.555)" fill="#c8675d"/>
    <path id="패스_95" data-name="패스 95" d="M12.452,23.838c.375-.25.813-.533,1.316-.839s1.047-.625,1.629-.958c-.145-.234-.3-.467-.474-.708s-.342-.467-.5-.688a8.868,8.868,0,0,1-1.218.523,8.416,8.416,0,0,1-1.362.336,3.922,3.922,0,0,1-2.491-.329,5.5,5.5,0,0,1-1.692-1.392,3.335,3.335,0,0,1-.474-3.873A11.614,11.614,0,0,1,11.508,11.8a13.484,13.484,0,0,1,2.722-1.165,7.163,7.163,0,0,1,2.462-.319,4.65,4.65,0,0,1,2.054.6,3.868,3.868,0,0,1,1.464,1.547,3.529,3.529,0,0,1,.207,3.153,7.369,7.369,0,0,1-2.587,3c.191.27.378.543.566.813a2.958,2.958,0,0,0,.181.309l.188.27c.2-.125.369-.224.487-.309s.26-.174.4-.276.329-.211.553-.342.533-.306.935-.523c.329-.191.645-.372.954-.553a2.639,2.639,0,0,1,1.027-.332,1.4,1.4,0,0,1,.816.135,1.564,1.564,0,0,1,.625.563,1.627,1.627,0,0,1,.2,1.3,1.5,1.5,0,0,1-.629.9,5.727,5.727,0,0,1-.977.563q-4.467,2.592-8.7,5.427c-.016.01-.079.053-.191.128a2.435,2.435,0,0,1-.428.22,2.847,2.847,0,0,1-.573.171,1.132,1.132,0,0,1-.6-.036,1.03,1.03,0,0,1-.467-.194,1.759,1.759,0,0,1-.411-.4,1.444,1.444,0,0,1-.326-1,1.818,1.818,0,0,1,.378-.905,5.061,5.061,0,0,1,.612-.694m20-1.747a.988.988,0,0,1,.2-.046,2.469,2.469,0,0,1,.434-.023,2.018,2.018,0,0,1,.52.1,1.068,1.068,0,0,1,.451.309A1.8,1.8,0,0,1,34.538,24a1.194,1.194,0,0,1-.382.717c-.191.161-.3.247-.313.257q-6.56,3.4-12.64,7.319a3.518,3.518,0,0,1-1.583.625,1.1,1.1,0,0,1-1.053-.464q-.686-1-1.385-2a7.015,7.015,0,0,1-.708-1,1.356,1.356,0,0,1-.161-1.01,1.4,1.4,0,0,1,.632-.839c.079-.056.191-.118.329-.2a1.33,1.33,0,0,1,.365-.155,1.277,1.277,0,0,1,.668-.039,1.564,1.564,0,0,1,.55.25,2.138,2.138,0,0,1,.461.418c.135.161.267.323.395.477a3.875,3.875,0,0,0,.276.359,2.457,2.457,0,0,0,.309.306,3,3,0,0,0,.477-.22c.28-.142.694-.388,1.257-.737.484-.3.905-.566,1.277-.813s.566-.375.582-.382q4.171-2.5,8.56-4.775m-15.615-7.54a1.525,1.525,0,0,0-1.086-.908,3.285,3.285,0,0,0-1.738.142,7.227,7.227,0,0,0-1.366.606,6.306,6.306,0,0,0-1.267.915,3.327,3.327,0,0,0-.8,1.089,1.261,1.261,0,0,0,.023,1.119,1.584,1.584,0,0,0,1.214.918,4.057,4.057,0,0,0,2.416-.665c.365-.184.724-.388,1.083-.612a5.552,5.552,0,0,0,.945-.727,2.777,2.777,0,0,0,.606-.816,1.2,1.2,0,0,0,.039-.908l-.069-.151m4.867-4.1c-.112-.165-.244-.362-.388-.573a7.074,7.074,0,0,1-.388-.652,3.066,3.066,0,0,1-.25-.668,1.087,1.087,0,0,1-.007-.563,1.439,1.439,0,0,1,.425-.625,4.085,4.085,0,0,1,.665-.441,1.879,1.879,0,0,1,.994-.234,1.765,1.765,0,0,1,.918.28,3.6,3.6,0,0,1,.905.866c.24.329.48.661.721.994q.508.79.971,1.484t.885,1.372c.359-.191.7-.362,1.027-.517s.589-.273.8-.359a1.4,1.4,0,0,1,.79-.089,2.008,2.008,0,0,1,.757.286,1.615,1.615,0,0,1,.54.546.9.9,0,0,1,.122.678,1.874,1.874,0,0,1-.8,1.155,10.955,10.955,0,0,1-1.547.961c.155.25.306.5.461.754a3.257,3.257,0,0,1,.382.806,5.94,5.94,0,0,1,.135.629l.033.168a1.2,1.2,0,0,1,.02.207,1.331,1.331,0,0,1-.178.74,1.664,1.664,0,0,1-.494.523,3.387,3.387,0,0,1-.671.342,2.273,2.273,0,0,1-.793.053,1.445,1.445,0,0,1-.648-.293,3.8,3.8,0,0,1-.517-.467,2.919,2.919,0,0,1-.346-.438c-.082-.132-.132-.207-.138-.22q-2.133-3.376-4.377-6.707" transform="translate(15.504 15.327)" fill="#002974"/>
    <path id="패스_96" data-name="패스 96" d="M29.872,15.568a.974.974,0,0,1,.086.556,1.625,1.625,0,0,1-.168.586,2.453,2.453,0,0,1-.352.527,1.547,1.547,0,0,1-.454.378,7.087,7.087,0,0,1-1.353.612c-.448.148-.9.319-1.369.517-1.023.434-2.034.866-3.044,1.3s-2.011.859-3.008,1.293a1.471,1.471,0,0,1-.852.1,1.985,1.985,0,0,1-.74-.3,2.629,2.629,0,0,1-.6-.553,5.513,5.513,0,0,1-.441-.645c-.194-.336-.418-.708-.671-1.112s-.51-.826-.773-1.247-.523-.846-.777-1.264-.471-.8-.655-1.139a5.637,5.637,0,0,0-.392-.668,7.44,7.44,0,0,1-.421-.717,6.524,6.524,0,0,1-.336-.744,1.911,1.911,0,0,1-.132-.717,1.363,1.363,0,0,1,.26-.773,2.023,2.023,0,0,1,.632-.6,2.219,2.219,0,0,1,.839-.293,1.533,1.533,0,0,1,.882.135A3.421,3.421,0,0,1,17.4,12.07q.518.844.938,1.622,1.831-.849,3.689-1.655c.125-.053.25-.105.375-.161l1.01-.434a6.441,6.441,0,0,0-.494-.958c-.174-.267-.346-.556-.517-.862a3.612,3.612,0,0,1-.365-1A1.222,1.222,0,0,1,22.21,7.6a1.444,1.444,0,0,1,.378-.339,4.741,4.741,0,0,1,.543-.3,2.942,2.942,0,0,1,.6-.2,1.7,1.7,0,0,1,.543-.046,1.632,1.632,0,0,1,.806.375,4.154,4.154,0,0,1,.642.681,5.865,5.865,0,0,1,.6.921q1.826,3.426,3.544,6.881m6.585,1.909a4.6,4.6,0,0,1,1.415-.355,2.327,2.327,0,0,1,.964.135,1.393,1.393,0,0,1,.615.431,2.68,2.68,0,0,1,.342.579q.622,1.476,1.224,2.952a6.163,6.163,0,0,1,.457,1.125,1.27,1.27,0,0,1-.115,1.023,1.63,1.63,0,0,1-.908.688c-.092.03-.26.086-.5.158a1.9,1.9,0,0,1-.523.112,1.473,1.473,0,0,1-.691-.105,1.6,1.6,0,0,1-.507-.342,1.974,1.974,0,0,1-.369-.494c-.1-.188-.2-.372-.3-.55-.03-.069-.089-.194-.181-.385s-.191-.388-.29-.6-.2-.4-.286-.586a2.538,2.538,0,0,0-.207-.362,3.7,3.7,0,0,0-.484.118c-.26.072-.734.244-1.422.5-.592.227-.954.372-1.089.431s-.207.1-.22.128q-4.991,1.935-9.774,4.15l-.043-.013a4.246,4.246,0,0,1-.655.066,2.068,2.068,0,0,1-.553-.076.761.761,0,0,1-.457-.329,1.9,1.9,0,0,1-.441-1.613,1.281,1.281,0,0,1,.48-.727c.23-.155.352-.237.372-.247q6.857-3.194,14.148-5.818M25.689,15.663a1.463,1.463,0,0,0-.1-.151.615.615,0,0,1-.1-.214,4.5,4.5,0,0,0-.26-.625,4.356,4.356,0,0,0-.378-.573c-.072-.138-.148-.276-.22-.415q-1.446.612-2.876,1.244c-.313.118-.6.234-.875.332a7.013,7.013,0,0,0-.727.313,4.088,4.088,0,0,0-.6.349,3.89,3.89,0,0,0,.444.813c.178.253.352.51.523.777a2.06,2.06,0,0,0,.23.346c.056.056.188.046.4-.033a5.246,5.246,0,0,0,.635-.27c.207-.105.415-.2.619-.293q1.664-.74,3.35-1.451c-.026-.049-.053-.1-.076-.148m7.283-1.079a2.848,2.848,0,0,1-.852.174,1.64,1.64,0,0,1-.944-.29.8.8,0,0,1-.263-.224,2.474,2.474,0,0,1-.234-.339,2.619,2.619,0,0,1-.181-.359,1.671,1.671,0,0,1-.092-.293.851.851,0,0,1,.082-.606,1.984,1.984,0,0,1,.444-.569,4.3,4.3,0,0,1,.457-.234c.237-.109.49-.211.763-.313.342-.128.688-.257,1.03-.382q-.474-.987-.961-1.971-.81.281-1.613.569a3.119,3.119,0,0,1-.889.191,1.645,1.645,0,0,1-.987-.27,1.422,1.422,0,0,1-.582-.576,1.238,1.238,0,0,1-.142-.714,1.416,1.416,0,0,1,.276-.7,1.7,1.7,0,0,1,.708-.536c.635-.27,1.274-.543,1.915-.806-.142-.3-.283-.606-.428-.905a2.017,2.017,0,0,1-.2-.606.893.893,0,0,1,.2-.665,1.337,1.337,0,0,1,.494-.415c.214-.118.421-.22.619-.313a1.882,1.882,0,0,1,1.534-.043,2.047,2.047,0,0,1,.52.316,2.248,2.248,0,0,1,.474.714c.138.309.257.569.362.783Q36.332,9,38.036,12.84a7.992,7.992,0,0,1,.415,1.083,4.852,4.852,0,0,1,.161.862.858.858,0,0,1-.184.688,1.669,1.669,0,0,1-.425.323,2.87,2.87,0,0,1-.5.23,2.018,2.018,0,0,1-1.073.056,1.532,1.532,0,0,1-.708-.3,1.776,1.776,0,0,1-.332-.365c-.118-.161-.23-.329-.336-.507s-.211-.349-.309-.52a3.3,3.3,0,0,1-.207-.378q-.785.286-1.566.576" transform="translate(30.751 7.435)" fill="#002974"/>
    <path id="패스_97" data-name="패스 97" d="M30.515,5.858a5.292,5.292,0,0,1,1.106-.148,1.571,1.571,0,0,1,.994.461,1.466,1.466,0,0,1,.336,1.372,1.486,1.486,0,0,1-.2.323c-.086.109-.168.211-.244.309-.112.066-.247.138-.4.217a2.418,2.418,0,0,1-.48.184,2.415,2.415,0,0,1-.451.178,4.473,4.473,0,0,1-.582.1c-.336.089-.668.181-1,.273q-2.967.78-5.881,1.649A5.118,5.118,0,0,1,22.62,11a2.654,2.654,0,0,1-.787-.039,2.034,2.034,0,0,1-.592-.329,2.526,2.526,0,0,1-.477-.543,1.087,1.087,0,0,1,.1-.994,1.148,1.148,0,0,1,.385-.431,2.51,2.51,0,0,1,.573-.257c.155-.049.309-.1.467-.148.309-.1.619-.2.928-.293l.842-.26c.23-.072.332-.132.309-.181a.264.264,0,0,1-.026-.181.187.187,0,0,0-.007-.128c-.043-.092-.082-.188-.125-.28A1.147,1.147,0,0,1,24.1,6.45c0-.155,0-.29-.007-.4a2.486,2.486,0,0,1,.194-.362,2.612,2.612,0,0,1,.323-.4,2.219,2.219,0,0,1,.471-.27,2.292,2.292,0,0,1,.6-.178,1.892,1.892,0,0,1,.609,0,1.079,1.079,0,0,1,.507.214.774.774,0,0,1,.359.332.327.327,0,0,1,.148.132,1.6,1.6,0,0,1,.1.2.54.54,0,0,1,.178.415c.03.066.059.138.1.217a.9.9,0,0,0,.178.253l1.01-.286c.2-.053.4-.109.6-.165l.635-.171c.138-.036.276-.076.411-.112m-1.7,4.578A5.9,5.9,0,0,1,30.1,10.32a5.815,5.815,0,0,1,1.264.188,7.679,7.679,0,0,1,1.1.48,6.847,6.847,0,0,1,1.079.721,9.752,9.752,0,0,1,1.52,2.067,9.446,9.446,0,0,1,.661,1.214c.178.4.346.823.5,1.257a12.836,12.836,0,0,1,.388,1.3,5.911,5.911,0,0,1,.181,1.264,11.623,11.623,0,0,1,.115,1.237,5.786,5.786,0,0,1-.059,1.106,5.187,5.187,0,0,1-.388,1.079,3.282,3.282,0,0,1-.7.905,5.932,5.932,0,0,1-1.968,1.211,6.43,6.43,0,0,1-2.458.323,3.945,3.945,0,0,1-2.238-.685,8.455,8.455,0,0,1-1.511-1.234,7.658,7.658,0,0,1-1.152-1.573c-.161-.3-.326-.592-.49-.885a7.966,7.966,0,0,1-.428-.879c-.118-.29-.23-.563-.326-.823s-.188-.54-.27-.839a4.343,4.343,0,0,1-.26-.846,8.4,8.4,0,0,1-.118-.918,4.828,4.828,0,0,1,.8-3.475,5.621,5.621,0,0,1,3.472-2.077m4.041,11a1.6,1.6,0,0,0,.7-.652c.069-.171.128-.342.188-.52a2.771,2.771,0,0,0,.105-.556,2.368,2.368,0,0,0,0-.629c-.033-.2-.059-.395-.082-.579a3.99,3.99,0,0,0-.138-.606c-.056-.184-.118-.362-.181-.536-.125-.339-.25-.675-.378-1.014-.112-.181-.211-.355-.293-.52s-.188-.339-.3-.523c-.105-.161-.211-.323-.319-.484a1.448,1.448,0,0,0-.392-.408c-.138-.118-.27-.23-.4-.349a1.761,1.761,0,0,0-.448-.28,1.876,1.876,0,0,0-.444-.049c-.148,0-.306.007-.48.02a1.365,1.365,0,0,0-.494.125c-.155.072-.306.148-.451.23s-.286.161-.415.237a1.324,1.324,0,0,0-.369.336,1.7,1.7,0,0,0-.283.8,6.189,6.189,0,0,0,.411,2.182c.158.392.316.77.467,1.129a7.984,7.984,0,0,0,.576,1.093,4.388,4.388,0,0,0,.392.5c.155.178.309.352.467.536a3.525,3.525,0,0,0,.484.421,1.95,1.95,0,0,0,.559.283.693.693,0,0,0,.148.046c.043.007.122.013.234.02.039-.013.092-.03.161-.046a.617.617,0,0,1,.237-.01c.138-.039.273-.079.411-.115l.323-.089M48.414,19.2a3.379,3.379,0,0,1,.24.757c.049.263.089.52.115.777a1.479,1.479,0,0,1-.984,1.622,1.559,1.559,0,0,1-1-.02,1.954,1.954,0,0,1-.961-.767,3.235,3.235,0,0,1-.411-.872,2.39,2.39,0,0,1-.2-.425c-.053-.148-.105-.293-.145-.434q-.908-3.085-1.9-6.154-1.012.207-2.021.425,1.042,3.13,1.994,6.266a2.837,2.837,0,0,1,.23.655c.043.217.1.438.168.668a2.808,2.808,0,0,1-.01.665,1.144,1.144,0,0,1-.237.586,1.564,1.564,0,0,1-.507.421,1.772,1.772,0,0,1-.816.165,1.972,1.972,0,0,1-1.023-.4,2.043,2.043,0,0,1-.645-.8,3.687,3.687,0,0,1-.27-.645c-.069-.211-.135-.421-.2-.632Q37.388,13.46,34.451,5.937c-.016-.043-.033-.086-.053-.128l-.089-.234c-.105-.26-.207-.52-.309-.783a2.585,2.585,0,0,1-.171-.872,3.17,3.17,0,0,1,.28-.813,1.039,1.039,0,0,1,.569-.622,2.2,2.2,0,0,1,.737-.161,1.129,1.129,0,0,1,.615.155,2.639,2.639,0,0,1,.471.306c.138.109.3.24.471.388.109.168.217.339.319.513a3.61,3.61,0,0,1,.27.579,4.847,4.847,0,0,1,.326.635c.092.211.178.425.263.652L38.6,6.786q.75,2.063,1.468,4.13c.681-.148,1.362-.3,2.047-.438q-1-2.987-2.08-5.963l-.316-.869c-.053-.145-.1-.293-.155-.464a2.234,2.234,0,0,1-.089-.477,1.053,1.053,0,0,1,.244-.875,1.46,1.46,0,0,1,.79-.648,2.484,2.484,0,0,1,.708-.059,1.311,1.311,0,0,1,.582.191,2.7,2.7,0,0,1,.5.27,1.477,1.477,0,0,1,.425.454c.109.165.214.339.326.517s.22.365.339.569a4.322,4.322,0,0,0,.257.589,4.538,4.538,0,0,1,.27.638,2.71,2.71,0,0,0,.092.52c.039.161.089.313.135.454q2.335,6.911,4.265,13.871" transform="translate(47.388 2.556)" fill="#002974"/>
    <path id="패스_98" data-name="패스 98" d="M52.614,16.371a.5.5,0,0,0,.2.007A1.78,1.78,0,0,1,53,16.354a7.254,7.254,0,0,1,1.056.142,2.918,2.918,0,0,1,1.007.454,1.262,1.262,0,0,1,.6.925,1.988,1.988,0,0,1-.016.652,1.145,1.145,0,0,1-.23.546,1.468,1.468,0,0,1-.579.349,3.867,3.867,0,0,1-.717.174,5.794,5.794,0,0,1-.635.066c-.181.007-.283.013-.306.013q-8.807.346-17.3,1.534c-.1.013-.253.039-.457.076s-.359.066-.461.082c-.448.082-.921.148-1.418.194a2.539,2.539,0,0,1-1.362-.217,1.69,1.69,0,0,1-.948-1.05,1.475,1.475,0,0,1,.056-.875,1.249,1.249,0,0,1,.586-.711,3.575,3.575,0,0,1,1.237-.418c.444-.069.9-.145,1.353-.227.053-.01.105-.016.155-.023.316-.046.685-.105,1.112-.171s.81-.125,1.145-.168a.888.888,0,0,1-.1-.267l-.026-.109c-.2-.836-.415-1.675-.625-2.511a1.34,1.34,0,0,1-.03-.5,1.384,1.384,0,0,1,.109-.474,1.778,1.778,0,0,1,.336-.507,10.578,10.578,0,0,1-2.432-.451A6.68,6.68,0,0,1,31.894,11.7a5.359,5.359,0,0,1-1.5-1.613,9.371,9.371,0,0,1-.833-1.915,4.506,4.506,0,0,1,.276-3.715,6.421,6.421,0,0,1,3.169-2.6,14.982,14.982,0,0,1,3.14-.994,21.283,21.283,0,0,1,3.4-.408C40.5.406,41.457.38,42.425.387A11.772,11.772,0,0,1,45.3.755a10.358,10.358,0,0,1,1.27.438,7.321,7.321,0,0,1,1.2.642A6.88,6.88,0,0,1,49.941,3.99,6.246,6.246,0,0,1,50.8,6.564a4.583,4.583,0,0,1-.849,3.508,6.714,6.714,0,0,1-2.932,2.063,2.055,2.055,0,0,1,.681.4,1.347,1.347,0,0,1,.4.642c.079.29.184.744.316,1.353s.263,1.3.4,2.044c.431-.026.862-.053,1.293-.076.392,0,.816-.033,1.277-.082a7.275,7.275,0,0,1,1.224-.043M46.466,7.252a1.842,1.842,0,0,0-.089-.691,3.085,3.085,0,0,0-1.6-2.037A6.372,6.372,0,0,0,41.9,3.9c-.648.007-1.441.023-2.383.063a12.887,12.887,0,0,0-2.689.385A6.088,6.088,0,0,0,34.7,5.31a1.8,1.8,0,0,0-.737,1.744,3.9,3.9,0,0,0,.369,1.237,2.625,2.625,0,0,0,.833.977A4.305,4.305,0,0,0,36.55,9.9a6.618,6.618,0,0,0,2.037.168q1.175-.025,2.393-.069a10.313,10.313,0,0,0,2.333-.339c.362-.089.727-.2,1.089-.332a4.868,4.868,0,0,0,.991-.487,2.7,2.7,0,0,0,.731-.685,1.933,1.933,0,0,0,.342-.9m-3.268,5.7q-.849.079-1.767.188c-.612.069-1.241.125-1.873.161a1.589,1.589,0,0,1,.408.592c.089.286.211.737.365,1.339s.309,1.283.474,2.024c1.125-.122,2.251-.234,3.383-.336.214-.016.425-.036.638-.056a1.268,1.268,0,0,1-.092-.3c-.01-.036-.016-.072-.023-.109-.174-.846-.355-1.695-.536-2.541a.991.991,0,0,1-.013-.359,2.953,2.953,0,0,0,.059-.339.99.99,0,0,1,.145-.4,5.636,5.636,0,0,1-.583.079c-.194.02-.392.036-.586.056" transform="translate(67.107 0.883)" fill="#002974"/>
    <path id="패스_99" data-name="패스 99" d="M37.564.733a1.246,1.246,0,0,1,.668-.546,2.682,2.682,0,0,1,.921-.181c.26-.01.513,0,.763,0a5.622,5.622,0,0,1,.744.063,1.936,1.936,0,0,1,1.2.731,4.234,4.234,0,0,1,.645,1.31A7.645,7.645,0,0,1,42.8,3.576c.049.484.1.875.148,1.172q.7,4.112,1.264,8.221c.053.369.1.74.148,1.112a2.3,2.3,0,0,1-.1,1.053,1.185,1.185,0,0,1-.773.688,3.58,3.58,0,0,1-1.3.2,4.37,4.37,0,0,1-1.362-.247,1.822,1.822,0,0,1-.961-.675,3.1,3.1,0,0,1-.244-.622c-.072-.247-.132-.474-.188-.675a9.009,9.009,0,0,1-.171-.984c-.046-.342-.1-.688-.155-1.04q-.755-4.64-1.685-9.29a4.581,4.581,0,0,1-.069-.859,1.8,1.8,0,0,1,.207-.9m6.8,17.843c.079.1.148.181.214.267a2.23,2.23,0,0,1,.181.293,3.311,3.311,0,0,1,.2.642,1.612,1.612,0,0,1,.007.652,1.585,1.585,0,0,1-.26.592,1.165,1.165,0,0,1-.576.408,2.61,2.61,0,0,1-.823.158,4.289,4.289,0,0,1-.944-.063,3,3,0,0,1-.879-.306,1.5,1.5,0,0,1-.622-.579,2.776,2.776,0,0,1-.3-.9,2.092,2.092,0,0,1,.026-.9.888.888,0,0,1,.546-.569,2.523,2.523,0,0,1,.9-.155,8.636,8.636,0,0,1,1.237.033,2.089,2.089,0,0,1,1.086.428" transform="translate(85.582 0)" fill="#002974"/>
    <path id="패스_100" data-name="패스 100" d="M29.83,31.536a1.635,1.635,0,0,1-.734-.174L3.154,18.448a1.643,1.643,0,1,1,1.464-2.942L30.564,28.419a1.645,1.645,0,0,1-.734,3.117" transform="translate(5.133 35.118)" fill="#fdd143"/>
    <path id="패스_101" data-name="패스 101" d="M28.8,30.16c-.049,0-.1,0-.145-.007L1.5,27.787a1.643,1.643,0,0,1-1.5-1.78,1.683,1.683,0,0,1,1.78-1.5L28.94,26.876A1.645,1.645,0,0,1,28.8,30.16" transform="translate(0 56.144)" fill="#fdd143"/>
    <path id="패스_102" data-name="패스 102" d="M4.416,38.781a1.645,1.645,0,0,1-.635-3.163l13.427-5.631a1.645,1.645,0,1,1,1.27,3.034L5.051,38.653a1.671,1.671,0,0,1-.635.128" transform="translate(6.346 68.407)" fill="#fdd143"/>
    <path id="패스_103" data-name="패스 103" d="M40.373,30.782a1.646,1.646,0,0,1-1.494-2.333L50.97,2.112a1.645,1.645,0,1,1,2.988,1.376L41.867,29.825a1.644,1.644,0,0,1-1.494.958" transform="translate(88.724 2.646)" fill="#fdd143"/>
    <path id="패스_104" data-name="패스 104" d="M45.58,29.071a1.645,1.645,0,0,1-1.142-2.83L64.091,7.347A1.646,1.646,0,1,1,66.372,9.72L46.722,28.61a1.633,1.633,0,0,1-1.142.461" transform="translate(100.649 15.784)" fill="#fdd143"/>
    <path id="패스_105" data-name="패스 105" d="M49.58,21.468a1.645,1.645,0,0,1-.457-3.225L63.106,14.2a1.646,1.646,0,0,1,.915,3.163L50.038,21.4a1.57,1.57,0,0,1-.457.066" transform="translate(109.816 32.364)" fill="#fdd143"/>
  </g>
</svg>
