<svg id="그림_순이따봉" xmlns="http://www.w3.org/2000/svg" xmlns:xlink="http://www.w3.org/1999/xlink" width="536.872" height="830.003" viewBox="0 0 536.872 830.003">
  <defs>
    <clipPath id="clip-path">
      <rect id="사각형_3" data-name="사각형 3" width="536.872" height="830.003" fill="none"/>
    </clipPath>
  </defs>
  <g id="그룹_1" data-name="그룹 1" clip-path="url(#clip-path)">
    <path id="패스_1" data-name="패스 1" d="M233.988,209.525s10.9,3.673,19.4.342L292.274,206c5.746-.572,11.544,2.239,13.96,7.457,2.532,5.469,1.075,11.793-14.037,18.629,0,0,32.945,3.088,6.5,28.381,0,0,20.288,13.527.713,26.3,0,0,19.919,10.255,5.153,20.849-12.424,8.915-66.967,30.262-69.716,39.228L176.931,292.21" transform="translate(223.464 257.875)" fill="#ffe2d7"/>
    <path id="패스_2" data-name="패스 2" d="M236.749,352.114a3.409,3.409,0,0,1-2.342-.932l-57.915-54.636a3.371,3.371,0,0,1-.131-4.779,3.411,3.411,0,0,1,4.8-.126l55.149,52.023c5.911-5.764,20.265-12.892,41.069-22.849,11.607-5.556,22.567-10.806,27.093-14.052,2.808-2.016,4.166-3.987,4.03-5.858-.29-3.989-6.581-8.12-8.762-9.255a3.371,3.371,0,0,1-.3-5.822c4.612-3.009,6.961-6.153,6.986-9.347.036-5-5.569-9.872-7.733-11.329a3.373,3.373,0,0,1-.457-5.239c7.024-6.719,10.208-12.367,8.968-15.906-1.6-4.572-10.457-6.4-13.433-6.678a3.374,3.374,0,0,1-1.086-6.437c9.061-4.1,11.926-7.538,12.734-9.694a5.513,5.513,0,0,0-.376-4.446c-1.709-3.691-6.056-5.966-10.541-5.511l-38.435,3.822c-9.459,3.45-20.79-.291-21.277-.457a3.38,3.38,0,1,1,2.172-6.4c.1.036,9.86,3.23,17.077.4a3.3,3.3,0,0,1,.905-.216l38.883-3.869a17.035,17.035,0,0,1,17.382,9.406,12.107,12.107,0,0,1,.57,9.626c-1.224,3.277-3.969,6.32-8.323,9.194,4.164,1.6,8.516,4.354,10.156,9.034,2.032,5.791-.579,12.451-7.977,20.3,3.182,2.91,7.608,8.1,7.579,14.424-.023,4.327-2.041,8.313-6.015,11.9,3.44,2.563,7.678,6.743,8.068,12,.326,4.374-1.973,8.358-6.83,11.845-5.013,3.6-15.721,8.721-28.12,14.656-14.454,6.921-38.648,18.5-40.338,22.831A3.378,3.378,0,0,1,237.6,352a3.468,3.468,0,0,1-.855.11" transform="translate(221.57 255.993)" fill="#002974"/>
    <path id="패스_3" data-name="패스 3" d="M222.019,226.557a3.377,3.377,0,0,1-.713-6.68l17.513-3.761a3.379,3.379,0,1,1,1.432,6.6l-17.513,3.761a3.427,3.427,0,0,1-.72.077" transform="translate(276.126 270.539)" fill="#c8675d"/>
    <path id="패스_4" data-name="패스 4" d="M222.022,243.075a3.376,3.376,0,0,1-1.036-6.595L245,228.8a3.38,3.38,0,1,1,2.075,6.432l-24.013,7.676a3.332,3.332,0,0,1-1.039.162" transform="translate(276.126 286.319)" fill="#c8675d"/>
    <path id="패스_5" data-name="패스 5" d="M81.251,244.408s172.812,140.22,284.917-74.942c13.974-26.822-2.618-26.53-12.22-23.077-33.318,11.98-73.919-3.622-123.877-13.3Z" transform="translate(102.62 166.665)" fill="#002974"/>
    <path id="패스_6" data-name="패스 6" d="M208.344,294.65c-69.037,0-125.522-45.1-126.165-45.622L78.819,246.3,232.309,131.49l1.482.286c11.965,2.318,23.3,4.953,34.264,7.5,34.006,7.9,63.375,14.725,87.809,5.937,3.171-1.135,13.949-4.372,19.491,1.928,4.39,4.984,3.374,13.451-3.1,25.881-35.264,67.686-80.2,107.58-133.547,118.578a150.313,150.313,0,0,1-30.363,3.05M89.96,246.422c15.28,11.095,78.479,52.778,147.421,38.55,51.228-10.579,94.58-49.291,128.846-115.06,6.95-13.345,4.838-17.392,4.024-18.318-1.919-2.178-7.529-1.662-12.078-.023-26.328,9.462-56.6,2.428-91.661-5.716-10.448-2.428-21.238-4.935-32.537-7.158Z" transform="translate(99.549 164.662)" fill="#002974"/>
    <path id="패스_7" data-name="패스 7" d="M14.942,104.209S9.817,280.986,1.613,327.236a7.236,7.236,0,0,0,7.615,8.471L205.4,323.367Z" transform="translate(1.894 130.499)" fill="#002974"/>
    <path id="패스_8" data-name="패스 8" d="M10.645,343.983a10.615,10.615,0,0,1-7.932-3.534,10.508,10.508,0,0,1-2.548-8.917C8.231,286.05,13.393,110.759,13.442,108.994l.251-8.683,200.64,230.883-203,12.768c-.231.014-.462.02-.69.02m9.319-226.127C18.813,154.3,14.056,292.079,6.85,332.708a3.853,3.853,0,0,0,4.055,4.511l189.341-11.912Z" transform="translate(0 125.617)" fill="#002974"/>
    <path id="패스_9" data-name="패스 9" d="M431.342,213.336c0,110.8-94.974,200.619-212.129,200.619S7.081,324.134,7.081,213.336s94.974-200.62,212.132-200.62,212.129,89.821,212.129,200.62" transform="translate(8.943 15.924)" fill="#002974"/>
    <path id="패스_10" data-name="패스 10" d="M221.1,419.213c-118.842,0-215.524-91.512-215.524-204s96.682-204,215.524-204,215.526,91.515,215.526,204-96.684,204-215.526,204m0-401.241c-115.1,0-208.735,88.483-208.735,197.243S106.009,412.456,221.1,412.456s208.737-88.481,208.737-197.241S336.2,17.972,221.1,17.972" transform="translate(7.049 14.044)" fill="#002974"/>
    <path id="패스_11" data-name="패스 11" d="M253.391,245.526l3.091-13.473c17.513-58.589-10.989-54.543-10.989-54.543s-10.131,8.716-15.454,33.5c-4.65,21.644-53.108,116.864-53.108,116.864" transform="translate(223.464 222.216)" fill="#ffe2d7"/>
    <path id="패스_12" data-name="패스 12" d="M178.823,333.121a3.384,3.384,0,0,1-3.026-4.905c.482-.948,48.311-95.071,52.816-116.044,5.5-25.593,16.1-34.96,16.552-35.345a3.418,3.418,0,0,1,1.74-.788,17.227,17.227,0,0,1,14.63,5.851c7.862,9.077,7.9,26.908.093,53l-3.035,13.259a3.393,3.393,0,0,1-6.617-1.5l3.089-13.471c9.319-31.2,4.879-42.687,1.408-46.78a10.372,10.372,0,0,0-7.615-3.691c-2.315,2.536-9.468,11.622-13.605,30.881-4.689,21.825-51.413,113.781-53.4,117.686a3.4,3.4,0,0,1-3.03,1.851" transform="translate(221.57 220.343)" fill="#002974"/>
    <path id="패스_13" data-name="패스 13" d="M136.888,213.886c1.731,1.151,88.436,35.685,143.384,319.828l3.433,17.545L252.8,552.627Z" transform="translate(172.89 267.845)" fill="#fdd143"/>
    <path id="패스_14" data-name="패스 14" d="M254.69,557.884a3.389,3.389,0,0,1-3.211-2.291L135.568,216.853a3.368,3.368,0,0,1,1.145-3.768,3.415,3.415,0,0,1,3.786-.234l.235.115C155.976,220.554,234.6,271.73,285.5,534.954l3.433,17.536a3.384,3.384,0,0,1-3.182,4.023l-30.908,1.367c-.05,0-.1,0-.152,0M144.985,223.412l112.1,327.605,24.431-1.079-2.682-13.7C234.255,305.719,169.423,240.4,144.985,223.412" transform="translate(170.994 265.968)" fill="#002974"/>
    <path id="패스_15" data-name="패스 15" d="M140.488,217.827S60.359,256.564,46.623,295.3c-13.63,38.435-24.268,91.143,41.212,267.053L379.741,556.2l-63.19-258.395s-15.667-64.113-64.029-86.778Z" transform="translate(45.945 264.268)" fill="#fdd143"/>
    <path id="패스_16" data-name="패스 16" d="M89.711,567.612a3.392,3.392,0,0,1-3.182-2.2C21.907,391.8,30.728,337.15,45.3,296.055c14.04-39.588,92.26-77.78,95.582-79.388a3.434,3.434,0,0,1,1.276-.333l112.032-6.8a3.463,3.463,0,0,1,1.654.315c25.832,12.106,42.379,35.708,51.71,53.374a171.086,171.086,0,0,1,14.173,35.663l63.19,258.4a3.373,3.373,0,0,1-.609,2.858,3.407,3.407,0,0,1-2.618,1.32L89.786,567.612Zm53.547-344.576c-7.3,3.622-79.047,40-91.554,75.267-14.1,39.753-22.569,92.794,40.354,262.5l285.265-6.011-62.19-254.309c-.152-.622-15.71-62.127-61.4-84.154Z" transform="translate(44.066 262.391)" fill="#002974"/>
    <path id="패스_17" data-name="패스 17" d="M103.241,201.693s-11.9,11.719-18.158,21.676A17.934,17.934,0,0,0,83.105,237.9c5.1,17.68,21.444,68.143,44.844,80.49,0,0,16.943-56.967,43.834-64.257,0,0,33.264,45.8,33.606,45.115s3.566-64.769-19.767-90.233Z" transform="translate(104.05 252.576)" fill="#fff"/>
    <path id="패스_18" data-name="패스 18" d="M129.84,323.643a3.405,3.405,0,0,1-1.589-.394C104.089,310.5,87.673,261.278,81.735,240.71A21.339,21.339,0,0,1,84.1,223.457c6.391-10.176,18.149-21.8,18.647-22.289a3.422,3.422,0,0,1,2.691-.964l82.382,7.32a3.393,3.393,0,0,1,2.206,1.09c24.506,26.744,21.277,92.064,20.295,94.021a3.426,3.426,0,0,1-2.772,1.863c-2.535.2-2.673.23-35.165-44.507-23.542,9.192-39.127,60.7-39.288,61.233a3.379,3.379,0,0,1-1.939,2.155,3.417,3.417,0,0,1-1.315.264M106.424,207.077c-3.044,3.106-11.686,12.187-16.57,19.962a14.592,14.592,0,0,0-1.593,11.8c4.211,14.595,19.016,61.3,39.675,76.251,4.612-13.683,20.614-55.775,44.848-62.345a3.408,3.408,0,0,1,3.643,1.282c8.4,11.568,20.7,28.377,27.747,37.741.075-17.836-1.743-58.275-18.31-77.636Z" transform="translate(102.157 250.697)" fill="#002974"/>
    <path id="패스_19" data-name="패스 19" d="M121.84,372.481c-19.231,4.219-60.212,11.854-88.461-17.394-58.718-60.794-5.456-110.08,27.763-109.56l.016,0q-.306-2.72-.541-5.464C51.21,130.91,126.753,35.483,229.349,26.92S422.743,99.9,432.15,209.049s-66.138,204.577-168.734,213.14q-5.618.47-11.186.581" transform="translate(8.943 32.939)" fill="#ffe8db"/>
    <path id="패스_20" data-name="패스 20" d="M241.238,265.3l-1.2,21.955a48.146,48.146,0,0,1-9.833,26.613l-2.808,3.671-68.542-27.913V259.252C106.065,243.565,61.8,203.819,38.349,151.059" transform="translate(48.435 189.168)" fill="#ffe8db"/>
    <path id="패스_21" data-name="패스 21" d="M147.607,201.051s-24.823,3.045-35.124,2.885" transform="translate(142.066 251.772)" fill="#ffe8db"/>
    <path id="패스_22" data-name="패스 22" d="M154.4,375.826a3.4,3.4,0,0,1-3.141-2.095C93.634,234.272,57.822,246.862,57.467,247a3.441,3.441,0,0,1-4.431-1.757,3.33,3.33,0,0,1,1.618-4.392c.6-.279,6.094-2.624,15.56,1.029,18.4,7.108,48.494,35.309,87.32,129.279a3.376,3.376,0,0,1-1.849,4.41,3.432,3.432,0,0,1-1.29.252" transform="translate(66.613 300.369)" fill="#002974"/>
    <path id="패스_23" data-name="패스 23" d="M85.615,416.647s-11.906-44.433,61.7-82.715l103.141-73.143,61.359,68.359L132.778,474.979" transform="translate(107.234 326.581)" fill="#fdd143"/>
    <path id="패스_24" data-name="패스 24" d="M134.7,480.237a3.378,3.378,0,0,1-2.152-5.993l176.295-143.6-56.973-63.471L151.21,338.564a3.1,3.1,0,0,1-.4.241c-70.384,36.606-60.105,78.431-59.994,78.85A3.393,3.393,0,0,1,84.26,419.4c-.516-1.919-11.722-47.411,63.2-86.47l102.949-73.01a3.4,3.4,0,0,1,4.5.5l61.357,68.359a3.368,3.368,0,0,1-.38,4.865L136.852,479.474a3.393,3.393,0,0,1-2.148.763" transform="translate(105.308 324.701)" fill="#002974"/>
    <path id="패스_25" data-name="패스 25" d="M157.118,431.2a3.287,3.287,0,0,1-1.122-.2c-2.41-.865-8.054-2.885-58.564-65.609-24.692-30.66-48.286-61.215-48.521-61.519a3.388,3.388,0,0,1,5.381-4.117c35.871,46.467,95.829,121.468,104.023,124.9a3.439,3.439,0,0,1,1.919,4.369,3.359,3.359,0,0,1-3.116,2.178" transform="translate(60.886 373.73)" fill="#002974"/>
    <path id="패스_26" data-name="패스 26" d="M153.811,272.122l76.007,83.645,38.236-40.51s-13.827-57.066-66.643-71.668Z" transform="translate(194.264 305.043)" fill="#fff"/>
    <path id="패스_27" data-name="패스 27" d="M231.716,361.023h-.032a3.4,3.4,0,0,1-2.485-1.113l-76.012-83.645a3.37,3.37,0,0,1,.767-5.16l47.6-28.532a3.425,3.425,0,0,1,2.659-.36c54.117,14.964,68.451,71.724,69.033,74.131a3.368,3.368,0,0,1-.824,3.106l-38.236,40.507a3.4,3.4,0,0,1-2.473,1.065m-70.728-86.247,70.775,77.884,34.4-36.451c-2.793-9.356-18.3-54.061-62.375-67.089Z" transform="translate(192.369 303.165)" fill="#002974"/>
    <path id="패스_28" data-name="패스 28" d="M58.7,166.729a3.394,3.394,0,0,1-3-1.793c-5.185-9.7-11.387-15.293-18.441-16.622C27.146,146.4,18.187,153.9,18.1,153.978a3.411,3.411,0,0,1-4.784-.363,3.364,3.364,0,0,1,.351-4.757c.459-.394,11.435-9.671,24.789-7.2,9.206,1.712,17.025,8.475,23.241,20.1a3.367,3.367,0,0,1-1.4,4.568,3.4,3.4,0,0,1-1.591.4" transform="translate(15.781 176.875)" fill="#c8675d"/>
    <path id="패스_29" data-name="패스 29" d="M224.013,255.094a3.374,3.374,0,0,1-1.229-6.525l20.777-8.032a3.38,3.38,0,1,1,2.458,6.3l-20.779,8.032a3.4,3.4,0,0,1-1.227.227" transform="translate(278.638 300.93)" fill="#c8675d"/>
    <path id="패스_30" data-name="패스 30" d="M65.295,208.915a3.489,3.489,0,0,1-.724-.077c-20.738-4.482-34.361-13.334-40.487-26.3-8.774-18.57,1.315-38.363,1.749-39.2a3.391,3.391,0,0,1,6.031,3.1c-.091.176-8.982,17.746-1.616,33.264,5.191,10.944,17.224,18.523,35.764,22.53a3.377,3.377,0,0,1-.717,6.68" transform="translate(25.904 177.212)" fill="#c8675d"/>
    <path id="패스_31" data-name="패스 31" d="M51.954,239.877s120.066-59.5,133.8-67.111l5.495-56.827,21.091,44.919s93.209-29.559,118.624-25.8V91.308s23.178,37.6,23.178,41.7c0,0,33.538-1.291,50.77,5.662a11.582,11.582,0,0,1,3.166,1.822c12.363,10.439-17.857-96.2-99.592-110.555S100.375,50.192,100.375,50.192,10.17,172.759,14.062,175.858s37.892,64.019,37.892,64.019" transform="translate(17.606 33.122)" fill="#002974"/>
    <path id="패스_32" data-name="패스 32" d="M52.51,246.2l-1.575-2.822c-12.7-22.755-34.011-60.007-37.143-63.107-3.186-2.529-4.834-3.842,41.144-68.5,21.829-30.7,44.423-61.411,44.649-61.717l.7-.948,1.138-.313c1.272-.347,128.05-34.651,209.6-20.325,66.736,11.723,100.489,83.823,104.61,107.35.7,4,1.007,8.329-2.055,10.074-.826.468-3.041,1.315-5.75-.968a8.3,8.3,0,0,0-2.245-1.268c-16.348-6.592-49.03-5.43-49.363-5.414l-3.526.135v-3.324c-.661-2.743-8.045-15.856-16.389-29.775V140.83l-3.895-.574c-24.339-3.579-116.167,25.383-117.092,25.676l-2.842.9-17.092-36.4-4.476,46.28-1.557.863c-13.646,7.561-129.032,64.753-133.938,67.183ZM19.585,176.739c6.271,8.3,25.665,42.577,35.708,60.532,17.8-8.831,111.731-55.444,129.2-64.758l6.513-67.357,25.1,53.447c15.366-4.777,86.1-26.273,113.41-25.358V81.2l6.287,10.2c9.007,14.608,19.455,32.165,22.682,40.023,8.269-.167,34.552-.122,49.65,5.973q.513.206.991.432c-1.131-7.378-6.938-24.7-18.858-43.521-14.648-23.129-40.49-52.172-80.427-59.185C233.885,21.768,117.109,51.636,104.357,55,73.123,97.465,24.34,165.554,19.585,176.739m-1.455-1.662a4.24,4.24,0,0,1,.392.369,3.232,3.232,0,0,0-.392-.369M352.7,134.862v0Z" transform="translate(15.659 31.266)" fill="#002974"/>
    <path id="패스_33" data-name="패스 33" d="M48.42,111.918l1.489,68.472L28.157,130.375Z" transform="translate(35.563 140.152)" fill="#002974"/>
    <path id="패스_34" data-name="패스 34" d="M55.952,201.745l-29.6-68.053,27.57-25.115ZM34.51,135.424l13.9,31.978-.95-43.778Z" transform="translate(33.288 135.969)" fill="#002974"/>
    <path id="패스_35" data-name="패스 35" d="M73.493,108.881s-31.549,32.561-30.175,48.456L32.913,117.259Z" transform="translate(41.569 136.349)" fill="#002974"/>
    <path id="패스_36" data-name="패스 36" d="M42.364,161.256l-11.3-43.512L85.9,106.426,78.269,114.3c-8.477,8.755-30.254,34.048-29.236,45.82Zm-2.942-38.334,6.223,23.969c4.924-10.518,14.121-22.036,20.639-29.516Z" transform="translate(39.238 133.275)" fill="#002974"/>
    <path id="패스_37" data-name="패스 37" d="M57.761,4.015,84.777,43.207S52.267,41.84,57.761,4.015" transform="translate(72.162 5.028)" fill="#002974"/>
    <path id="패스_38" data-name="패스 38" d="M93.311,51.895l-6.782-.284c-.586-.025-14.47-.73-23.5-11.57C56.639,32.379,54.376,21.786,56.3,8.559L57.54,0ZM62.464,19.088c.292,6.8,2.227,12.37,5.786,16.64A25.241,25.241,0,0,0,79.018,43.1Z" transform="translate(70.268)" fill="#002974"/>
    <path id="패스_39" data-name="패스 39" d="M192.283,200.157a69.947,69.947,0,1,1-69.945-69.613,69.78,69.78,0,0,1,69.945,69.613" transform="translate(66.17 163.478)" fill="#ffcfbc"/>
    <path id="패스_40" data-name="패스 40" d="M192,221.036c-15.694-4.286-21.861-31.536-13.773-60.863s27.364-49.629,43.056-45.343" transform="translate(220.603 143.083)" fill="#ffcbbb"/>
    <path id="패스_41" data-name="패스 41" d="M210.88,113.293c4.691,1.282,1.939,26.095-6.149,55.424s-18.446,52.064-23.137,50.782" transform="translate(229.354 141.874)" fill="#ffcfbc"/>
    <path id="패스_42" data-name="패스 42" d="M6.6,233.483a4.869,4.869,0,0,0-.444,8.631c31.435,18.4,151.952,77.183,243.062-40.453,5.461-7.05-.631-17.334-9.143-15.532-29.528,6.25-88.316,18.816-115.936-6.883Z" transform="translate(4.738 224.466)" fill="#002974"/>
    <path id="패스_43" data-name="패스 43" d="M116.226,278.746q-4.562,0-9.195-.232c-46.729-2.356-85.99-22.64-100.7-31.25a8.241,8.241,0,0,1,.738-14.608l119.616-55.2,1.672,1.556c26.221,24.4,84.544,12.054,112.573,6.119l.337-.072a12.343,12.343,0,0,1,13.227,5.685,13.137,13.137,0,0,1-.69,15.214c-37.432,48.332-83.681,72.785-137.577,72.785m9.217-93.267L9.922,238.789a1.484,1.484,0,0,0-.88,1.3,1.427,1.427,0,0,0,.731,1.351C48.5,264.111,83.053,272.649,113.1,272.652c72.966.007,119.45-50.318,135.328-70.816a6.4,6.4,0,0,0,.321-7.487,5.718,5.718,0,0,0-6.069-2.678l-.337.072c-30.775,6.514-87.537,18.532-116.9-6.264" transform="translate(2.844 222.228)" fill="#002974"/>
    <path id="패스_44" data-name="패스 44" d="M254.095,428.024a3.379,3.379,0,0,1-.07-6.757c3.623-.072,7.316-.264,10.973-.57,46.387-3.872,88.995-26.129,119.971-62.672,33.639-39.69,50.284-93.2,45.665-146.815C421.4,104.089,332.066,23.766,231.5,32.161c-46.389,3.872-89,26.131-119.971,62.672-33.64,39.692-50.286,93.2-45.665,146.815q.234,2.7.534,5.378a3.382,3.382,0,0,1-2.926,3.723,3.942,3.942,0,0,1-.516.031c-.156,0-.315,0-.473,0-15.723,0-37.106,12.108-46.088,32.651-9.534,21.816-1.971,47.1,21.3,71.192,25.106,25.994,60.694,21.831,85.284,16.437a3.38,3.38,0,1,1,1.462,6.6C98.258,383.4,60.269,387.744,32.8,359.3-1.333,323.968,3.97,294.907,10.168,280.734c9.5-21.739,31.587-35.075,49.109-36.573-.063-.646-.122-1.291-.179-1.937-4.773-55.386,12.447-110.7,47.24-151.747,32.148-37.924,76.392-61.026,124.592-65.05C335.212,16.76,427.846,99.8,437.4,210.634c4.77,55.388-12.447,110.7-47.24,151.747-32.148,37.924-76.394,61.026-124.594,65.05-3.8.318-7.635.516-11.4.592Z" transform="translate(7.078 31.063)" fill="#002974"/>
    <path id="패스_45" data-name="패스 45" d="M229.292,322.8a3.415,3.415,0,0,1-1.283-.25l-68.544-27.915a3.378,3.378,0,0,1-2.109-3.128V263.628C104.461,247.118,60.737,207.4,37.141,154.3a3.391,3.391,0,0,1,6.207-2.73c23.153,52.093,66.3,90.846,118.373,106.321a3.38,3.38,0,0,1,2.424,3.237v28.108l64.025,26.072L229.4,313.7a44.608,44.608,0,0,0,9.145-24.75l1.2-21.955a3.394,3.394,0,0,1,6.778.365l-1.2,21.955A51.306,51.306,0,0,1,234.8,317.793l-2.808,3.671a3.4,3.4,0,0,1-2.7,1.333" transform="translate(46.54 187.288)" fill="#002974"/>
    <path id="패스_46" data-name="패스 46" d="M165.733,162.7c-33.913,0-43.078-8.106-44.2-9.243a3.368,3.368,0,0,1,.054-4.779,3.408,3.408,0,0,1,4.741,0c.367.322,13.734,11.372,68.963,5.559,54.663-5.759,59.024-22.372,59.062-22.541a3.34,3.34,0,0,1,3.849-2.782,3.43,3.43,0,0,1,2.845,3.9c-.333,2.214-4.985,21.813-65.043,28.142a290.5,290.5,0,0,1-30.274,1.75" transform="translate(152.279 161.38)" fill="#c8675d"/>
    <path id="패스_47" data-name="패스 47" d="M145.549,120c1.8,10.583-3.87,20.365-12.659,21.843s-17.373-5.9-19.17-16.487,3.87-20.363,12.659-21.84,17.371,5.9,19.17,16.484" transform="translate(143.208 129.392)" fill="#002974"/>
    <path id="패스_48" data-name="패스 48" d="M132.554,147.291c-9.586,0-18.364-8.18-20.286-19.491a24.794,24.794,0,0,1,2.765-16.586,17.671,17.671,0,0,1,27.665-4.655,24.865,24.865,0,0,1,8.092,14.759c2.107,12.4-4.82,23.948-15.44,25.737a16.847,16.847,0,0,1-2.8.236m-2.028-38.708a10.342,10.342,0,0,0-1.686.14,11.458,11.458,0,0,0-7.927,5.865,18.087,18.087,0,0,0-1.951,12.086c1.482,8.732,8.326,14.9,15.257,13.719,6.929-1.167,11.36-9.219,9.878-17.948a18.145,18.145,0,0,0-5.836-10.775,11.9,11.9,0,0,0-7.735-3.086" transform="translate(141.312 127.512)" fill="#002974"/>
    <path id="패스_49" data-name="패스 49" d="M128.715,111.577c.478,2.815-1.03,5.417-3.367,5.811s-4.621-1.57-5.1-4.385,1.03-5.417,3.367-5.811,4.621,1.57,5.1,4.385" transform="translate(151.762 134.171)" fill="#fff"/>
    <path id="패스_50" data-name="패스 50" d="M202.344,131.8a3.4,3.4,0,0,1-.869-.113L165.3,122.179a3.374,3.374,0,0,1-.72-6.255l32.827-17.259a3.4,3.4,0,0,1,4.587,1.41,3.367,3.367,0,0,1-1.417,4.563l-25.135,13.219,27.765,7.3a3.377,3.377,0,0,1-.864,6.644" transform="translate(205.583 123.067)" fill="#002974"/>
  </g>
</svg>
