<svg xmlns="http://www.w3.org/2000/svg" width="133.908" height="129.184" viewBox="0 0 133.908 129.184">
  <g id="그림_따봉" transform="translate(1768.229 -1242.681) rotate(30)">
    <path id="패스_197" data-name="패스 197" d="M40.608,60.913s-5.054,7.923-4.491,10.111l-5.842-8.382a50.925,50.925,0,0,0,10.333-1.729" transform="translate(-849.686 1968.071)" fill="#fff"/>
    <path id="패스_198" data-name="패스 198" d="M36.717,72.723a1.1,1.1,0,0,1-.9-.471l-5.842-8.385a1.1,1.1,0,0,1-.088-1.111,1.107,1.107,0,0,1,.926-.616,50.317,50.317,0,0,0,10.065-1.676,1.1,1.1,0,0,1,1.26,1.639c-2.556,4.008-4.593,8.327-4.355,9.245a1.1,1.1,0,0,1-1.065,1.375m-3.849-8.545,3.255,4.67a36.457,36.457,0,0,1,2.734-5.585,54.671,54.671,0,0,1-5.989.915" transform="translate(-850.286 1967.471)" fill="#002974"/>
    <path id="패스_199" data-name="패스 199" d="M35.1,63.361s8.532,3.612,9.273,5.743l.2-10.3a51.5,51.5,0,0,1-9.478,4.56" transform="translate(-843.903 1965.537)" fill="#fff"/>
    <path id="패스_200" data-name="패스 200" d="M44.964,70.8a1.1,1.1,0,0,1-1.038-.741c-.308-.886-4.355-3.264-8.662-5.085a1.1,1.1,0,0,1,.1-2.063,50.717,50.717,0,0,0,9.231-4.445,1.1,1.1,0,0,1,1.68.957l-.209,10.3a1.1,1.1,0,0,1-.928,1.067,1.5,1.5,0,0,1-.172.011m-6.381-6.748a35.2,35.2,0,0,1,5.336,3.029l.117-5.739a55.889,55.889,0,0,1-5.453,2.71" transform="translate(-844.502 1964.937)" fill="#002974"/>
    <path id="패스_201" data-name="패스 201" d="M11.908,56.036s-.622,9.055-2.741,12.682a2.078,2.078,0,0,0,1.038,2.945c4.819,1.942,16.848,4.221,41.848-3.757,0,0-16.571-1.2-24.731-10.793Z" transform="translate(-875.331 1962.221)" fill="#002974"/>
    <path id="패스_202" data-name="패스 202" d="M67.553,42.835s5.5,7.113,9.242,8.879a2.084,2.084,0,0,1,.765,3.033c-2.908,4.392-11.58,13.241-36.6,21.142,0,0,13.015-10.591,14.468-23.236Z" transform="translate(-836.874 1946.386)" fill="#002974"/>
    <path id="패스_203" data-name="패스 203" d="M96.87,50.487A46.233,46.233,0,0,1,66.637,107.71,44.656,44.656,0,0,1,10.184,78,46.231,46.231,0,0,1,40.417,20.776,44.656,44.656,0,0,1,96.87,50.487" transform="translate(-876.126 1917.363)" fill="#002974"/>
    <path id="패스_204" data-name="패스 204" d="M98.265,76.164c8.882-2.184,17.367-12.522,15.238-21.632S102.62,39.271,94.366,43.276c-9.24-14.449-27.888-23.3-45.211-19.043-18.819,4.626-31.93,25.013-31.977,44.023-9.1.873-14.077,9.465-10.2,18.593,3.647,8.589,15.621,12.806,24.239,9.7" transform="translate(-879.224 1922.786)" fill="#ffe8db"/>
    <path id="패스_205" data-name="패스 205" d="M25.758,99.254c-8.011,0-16.3-4.553-19.2-11.387C4.532,83.089,4.7,78.11,7.027,74.2a13.5,13.5,0,0,1,9.66-6.328c.488-20.418,14.737-39.684,32.8-44.122C66.176,19.644,85.314,27.51,95.368,42.48a12.975,12.975,0,0,1,10.577.359,17.67,17.67,0,0,1,9.227,12.031c2.327,9.957-6.878,20.7-16.05,22.95a1.1,1.1,0,0,1-.523-2.136c8.165-2.006,16.426-11.774,14.431-20.315A15.461,15.461,0,0,0,105,44.822a10.693,10.693,0,0,0-9.559.033,1.109,1.109,0,0,1-1.405-.4C84.621,29.74,66.1,21.938,50.014,25.889,34.752,29.641,18.93,46.736,18.873,68.847a1.1,1.1,0,0,1-.994,1.093,11.323,11.323,0,0,0-8.961,5.387c-1.964,3.3-2.085,7.555-.334,11.682,3.284,7.723,14.385,12.144,22.855,9.093a1.1,1.1,0,0,1,.748,2.072,18.966,18.966,0,0,1-6.429,1.08" transform="translate(-879.82 1922.197)" fill="#002974"/>
    <path id="패스_206" data-name="패스 206" d="M13.231,60.317C18.521,82.961,37.1,92.78,59.221,87.543c21.551-5.105,34.216-25.3,30.318-48.8" transform="translate(-870.131 1941.474)" fill="#ffe8db"/>
    <path id="패스_207" data-name="패스 207" d="M48.456,90.633a36.458,36.458,0,0,1-19.435-5.259c-8.11-5.021-13.734-13.391-16.261-24.206a1.1,1.1,0,1,1,2.142-.5C17.293,70.9,22.574,78.8,30.178,83.5c8.052,4.98,18.214,6.214,29.39,3.568C80.741,82.059,92.864,62.5,89.055,39.52a1.1,1.1,0,0,1,2.169-.361c4.01,24.177-8.8,44.758-31.15,50.052a50.51,50.51,0,0,1-11.618,1.421" transform="translate(-870.731 1940.874)" fill="#002974"/>
    <path id="패스_208" data-name="패스 208" d="M12.8,60.661a1.091,1.091,0,0,1-.578-.165A8.423,8.423,0,0,1,7.957,54.7c-.71-4.311,2.5-8.268,2.637-8.435a1.1,1.1,0,0,1,1.7,1.4c-.029.031-2.721,3.37-2.167,6.689a6.331,6.331,0,0,0,3.249,4.271,1.1,1.1,0,0,1-.578,2.035" transform="translate(-876.58 1950.023)" fill="#c8675d"/>
    <path id="패스_209" data-name="패스 209" d="M16.877,57.555a1.1,1.1,0,0,1-1.034-.721c-.871-2.382-2.046-3.911-3.488-4.546a3.738,3.738,0,0,0-2.76-.112,1.1,1.1,0,0,1-.871-2.019,5.992,5.992,0,0,1,4.458.095c2.039.871,3.631,2.831,4.729,5.827a1.1,1.1,0,0,1-.655,1.412,1.133,1.133,0,0,1-.378.066" transform="translate(-876.324 1954.708)" fill="#c8675d"/>
    <path id="패스_210" data-name="패스 210" d="M54.777,48.157A1.083,1.083,0,0,1,54.206,48a1.1,1.1,0,0,1-.367-1.511,6.477,6.477,0,0,0,.988-5.411c-1.01-3.176-4.8-4.846-4.841-4.863a1.1,1.1,0,0,1,.873-2.019c.194.084,4.753,2.1,6.066,6.216a8.565,8.565,0,0,1-1.208,7.221,1.1,1.1,0,0,1-.939.528" transform="translate(-826.839 1935.908)" fill="#c8675d"/>
    <path id="패스_211" data-name="패스 211" d="M51.01,47.777a1.1,1.1,0,0,1-1.091-.981c-.345-3.185.207-5.668,1.643-7.388a6.057,6.057,0,0,1,3.909-2.134,1.091,1.091,0,0,1,1.177,1.018,1.1,1.1,0,0,1-1.012,1.175,3.817,3.817,0,0,0-2.413,1.386c-1.018,1.243-1.394,3.161-1.117,5.706a1.1,1.1,0,0,1-.974,1.212,1.083,1.083,0,0,1-.121.007" transform="translate(-826.242 1939.713)" fill="#c8675d"/>
    <path id="패스_212" data-name="패스 212" d="M10.05,67.282l1.691,1.045s7.6-6.748,13.707-8.585l.911-9.372,4.041,7.7S51.815,47.6,62.163,47.477l-.011-9.691L67.6,46.465s12.66-4.258,21.333-3.115c0,0-5.131-13.151-12.036-17.286s-39.987-3.332-39.987-3.332L10.895,44.97Z" transform="translate(-873.946 1922.197)" fill="#002974"/>
    <path id="패스_213" data-name="패스 213" d="M12.472,70.293,9.54,68.483l.889-23.434,26.678-22.8.389-.009c1.357-.033,33.483-.765,40.579,3.486C85.219,30,90.355,43,90.568,43.554l.677,1.733L89.4,45.045c-8.3-1.1-20.715,3.022-20.84,3.064l-.82.277-3.869-6.17.009,6.948-1.091.013c-9.981.117-31.079,10.375-31.293,10.479l-.961.468-2.824-5.38-.625,6.438-.706.211c-5.8,1.744-13.219,8.29-13.294,8.356Zm-.686-3.009.462.284c1.883-1.595,7.648-6.247,12.79-8.048L26.232,47.2l5.261,10.023c4.188-1.986,20.632-9.533,30.182-10.2l-.013-12.467,7.025,11.2C71.45,44.9,80.453,42.3,87.812,42.694c-1.606-3.6-5.787-12.04-10.868-15.084-5.36-3.211-29.584-3.394-39-3.183L12.589,46.092Z" transform="translate(-874.558 1921.596)" fill="#002974"/>
    <path id="패스_214" data-name="패스 214" d="M12.743,42.187c-.077.128,1.544,9.04,1.544,9.04l-4.168-6.86Z" transform="translate(-873.864 1945.609)" fill="#002974"/>
    <path id="패스_215" data-name="패스 215" d="M14.887,52.928a1.11,1.11,0,0,1-.941-.528L9.778,45.537a1.1,1.1,0,0,1,.238-1.416l2.626-2.18a1.1,1.1,0,0,1,1.8.864c.073.715.968,5.75,1.526,8.824a1.106,1.106,0,0,1-.691,1.227,1.159,1.159,0,0,1-.392.07m-2.736-7.72.607,1c-.088-.5-.163-.941-.224-1.318Z" transform="translate(-874.464 1945.008)" fill="#002974"/>
    <path id="패스_216" data-name="패스 216" d="M44.62,31.616c.132.062,3.7,8.356,3.7,8.356L47.985,31.9Z" transform="translate(-832.479 1932.928)" fill="#002974"/>
    <path id="패스_217" data-name="패스 217" d="M48.922,41.67a1.1,1.1,0,0,1-1.01-.664c-1.23-2.857-3.26-7.522-3.594-8.162a1.1,1.1,0,0,1,.992-1.722l3.365.277a1.1,1.1,0,0,1,1.01,1.049l.337,8.079a1.1,1.1,0,0,1-.853,1.117,1.031,1.031,0,0,1-.246.026m-1.885-8.2c.156.345.334.748.539,1.219l-.048-1.177Z" transform="translate(-833.079 1932.33)" fill="#002974"/>
    <path id="패스_218" data-name="패스 218" d="M37.8,54A11.908,11.908,0,0,1,30.18,68.82,11.5,11.5,0,0,1,15.729,61,11.907,11.907,0,0,1,23.35,46.181,11.5,11.5,0,0,1,37.8,54" transform="translate(-867.757 1949.76)" fill="#ffcfbc"/>
    <path id="패스_219" data-name="패스 219" d="M58.921,47.295A11.908,11.908,0,0,1,51.3,62.117,11.5,11.5,0,0,1,36.849,54.3,11.907,11.907,0,0,1,44.47,39.478a11.5,11.5,0,0,1,14.451,7.817" transform="translate(-842.423 1941.719)" fill="#ffcfbc"/>
    <path id="패스_220" data-name="패스 220" d="M26.8,26.144S16.767,23.111,20.31,15.771Z" transform="translate(-862.548 1913.922)" fill="#002974"/>
    <path id="패스_221" data-name="패스 221" d="M13.057,49.2a15.913,15.913,0,0,1,3.726-7.65l-5.919.383Z" transform="translate(-872.97 1944.85)" fill="#002974"/>
    <path id="패스_222" data-name="패스 222" d="M49.6,38.152A15.257,15.257,0,0,0,42.319,34l5.092-3.112Z" transform="translate(-835.239 1932.052)" fill="#002974"/>
    <path id="패스_223" data-name="패스 223" d="M23.965,40.346c.07.176.134.356.189.541-.055-.185-.1-.37-.141-.556Z" transform="translate(-857.255 1943.382)" fill="#f6ce07"/>
    <path id="패스_224" data-name="패스 224" d="M25.869,46.6c-.011-.037-.026-.075-.037-.112.011.037.022.077.031.114Z" transform="translate(-855.016 1950.769)" fill="#f6ce07"/>
    <path id="패스_225" data-name="패스 225" d="M33.263,45.37a6.711,6.711,0,0,1-7.344-4.786,6.956,6.956,0,0,1-3.425,8.2,6.709,6.709,0,0,1,7.342,4.786,6.955,6.955,0,0,1,3.427-8.2" transform="translate(-859.019 1943.686)" fill="#f6ce07"/>
    <path id="패스_226" data-name="패스 226" d="M31.927,37.819c.07.176.134.356.189.541-.055-.185-.1-.37-.141-.556Z" transform="translate(-847.704 1940.351)" fill="#f6ce07"/>
    <path id="패스_227" data-name="패스 227" d="M33.831,44.074c-.011-.037-.026-.075-.037-.112.011.037.022.077.031.114Z" transform="translate(-845.465 1947.738)" fill="#f6ce07"/>
    <path id="패스_228" data-name="패스 228" d="M41.225,42.843a6.711,6.711,0,0,1-7.344-4.786,6.956,6.956,0,0,1-3.425,8.2A6.709,6.709,0,0,1,37.8,51.045a6.953,6.953,0,0,1,3.427-8.2" transform="translate(-849.469 1940.654)" fill="#f6ce07"/>
    <path id="패스_229" data-name="패스 229" d="M35.334,61.164a3.606,3.606,0,0,1-1.674-.444c-1.81-.957-3.508-3.438-4.423-6.478-1.405-4.667-.548-8.8,2-9.6a3.271,3.271,0,0,1,2.549.308c1.812.957,3.508,3.438,4.425,6.478,1.408,4.67.55,8.8-2,9.605a2.879,2.879,0,0,1-.878.134M32.116,46.7a.691.691,0,0,0-.216.033c-.979.308-1.68,3.141-.559,6.871.842,2.8,2.288,4.608,3.345,5.167a1.133,1.133,0,0,0,.86.161c.979-.312,1.683-3.143.559-6.871-.842-2.8-2.29-4.612-3.348-5.169a1.4,1.4,0,0,0-.642-.191" transform="translate(-851.738 1948.387)" fill="#c8675d"/>
    <path id="패스_236" data-name="패스 236" d="M39.235,62.119a1.935,1.935,0,0,0-.407-1.357c-2.749-3.517-11.015,3.689-11.015,3.689-4.535-8.363-6.555-8.624-8.209-7.837-1.2.57-1.57,2.584-1.139,3.867a61.9,61.9,0,0,0,6.484,15.109c5.358,8.646,13.815,3.986,13.815,3.986,2.107-.816,6.453-5.3,7.144-7.377a1.782,1.782,0,0,0-1.452-2.439c2.07-4.008-2.422-3.649-2.422-3.649,1.146-4.927-2.8-3.99-2.8-3.99l-3.088,3.055" transform="translate(-864.061 1962.563)" fill="#ffe8db"/>
    <path id="패스_237" data-name="패스 237" d="M34.122,82.516c-3.011,0-6.669-1.175-9.5-5.747a58.385,58.385,0,0,1-6.139-13.927c-.167-.528-.317-1-.453-1.41-.607-1.795-.053-4.377,1.709-5.213,2.813-1.337,5.312.6,9,7.144,1.922-1.507,5.934-4.342,9-4.047a3.609,3.609,0,0,1,2.562,1.37,2.933,2.933,0,0,1,.475.867,3.3,3.3,0,0,1,2.217.908,3.856,3.856,0,0,1,.928,3.22,3.392,3.392,0,0,1,2.349,1.34A3.089,3.089,0,0,1,46.5,69.77a2.8,2.8,0,0,1,.88.893,2.878,2.878,0,0,1,.178,2.479c-.79,2.38-5.376,7.122-7.788,8.057a13.088,13.088,0,0,1-5.644,1.318M21.3,58.04a1.356,1.356,0,0,0-.62.167c-.561.264-.869,1.632-.57,2.525.143.422.3.906.466,1.447a55.744,55.744,0,0,0,5.91,13.428c4.731,7.63,12.045,3.768,12.355,3.6,1.918-.752,6.046-5.008,6.625-6.757a.864.864,0,0,0,.029-.651,1.113,1.113,0,0,0-.616-.359,1.1,1.1,0,0,1-.8-1.59c.46-.889.484-1.416.356-1.612-.242-.363-1.245-.473-1.711-.438a1.1,1.1,0,0,1-1.159-1.344c.277-1.188.231-2.074-.123-2.433a1.473,1.473,0,0,0-1.089-.271l-2.833,2.8a1.1,1.1,0,0,1-1.546-1.564L38.7,62.3a.8.8,0,0,0-.134-.253,1.4,1.4,0,0,0-1.043-.537c-2.505-.257-6.9,3.077-8.389,4.373a1.095,1.095,0,0,1-1.687-.3C23.934,59.1,22.21,58.04,21.3,58.04" transform="translate(-864.663 1961.961)" fill="#002974"/>
    <line id="선_2" data-name="선 2" x1="3.442" y2="3.112" transform="translate(-825.467 2028.669)" fill="#ffe8db"/>
    <path id="패스_238" data-name="패스 238" d="M28.122,65.582a1.1,1.1,0,0,1-.737-1.916l3.442-3.112A1.1,1.1,0,1,1,32.3,62.186L28.858,65.3a1.1,1.1,0,0,1-.737.284" transform="translate(-853.588 1967.299)" fill="#002974"/>
    <line id="선_3" data-name="선 3" x1="3.117" y2="2.507" transform="translate(-822.72 2032.318)" fill="#ffe8db"/>
    <path id="패스_239" data-name="패스 239" d="M29.37,66.637a1.1,1.1,0,0,1-.688-1.958L31.8,62.172a1.1,1.1,0,1,1,1.377,1.713L30.059,66.4a1.1,1.1,0,0,1-.688.242" transform="translate(-852.089 1969.29)" fill="#002974"/>
    <path id="패스_240" data-name="패스 240" d="M20.479,61.474a5.461,5.461,0,0,0,4.709-1.458" transform="translate(-861.437 1966.995)" fill="#ffe8db"/>
    <path id="패스_241" data-name="패스 241" d="M21.973,63.248a5.6,5.6,0,0,1-1.126-.1A1.1,1.1,0,0,1,21.3,61a4.36,4.36,0,0,0,3.706-1.159,1.1,1.1,0,0,1,1.555,1.555,6.414,6.414,0,0,1-4.593,1.854" transform="translate(-862.035 1966.396)" fill="#002974"/>
    <path id="패스_242" data-name="패스 242" d="M40.118,64.064a1.939,1.939,0,0,1-.411-1.355c.332-4.5,11.121-3.337,11.121-3.337-.86-9.531.662-10.914,2.461-11.224,1.3-.227,2.719,1.225,3.068,2.532A62.444,62.444,0,0,1,59.322,66.9C59.66,77.144,50.114,78.2,50.114,78.2c-2.186.548-8.242-.636-9.955-1.953a1.815,1.815,0,0,1-.147-2.853C36.1,71.285,40,68.977,40,68.977c-3.656-3.4.117-4.914.117-4.914l4.23.735" transform="translate(-840.096 1952.731)" fill="#ffe8db"/>
    <path id="패스_243" data-name="패스 243" d="M49.273,80.043c-2.906,0-7.56-1.08-9.183-2.327A2.849,2.849,0,0,1,38.862,75.6a2.769,2.769,0,0,1,.238-1.282,3.065,3.065,0,0,1-1.329-2.358,3.488,3.488,0,0,1,1.21-2.5,3.868,3.868,0,0,1-1.023-3.163A3.4,3.4,0,0,1,39.3,64.231a3.162,3.162,0,0,1-.092-1,3.714,3.714,0,0,1,1.386-2.62c2.353-1.96,7.243-1.96,9.629-1.837-.556-7.54.425-10.586,3.477-11.112,1.953-.319,3.823,1.489,4.32,3.334.112.418.246.893.4,1.421a59.043,59.043,0,0,1,2.6,15.049c.365,11.13-10.083,12.41-10.188,12.423a6.54,6.54,0,0,1-1.562.154M40.888,65.808a1.556,1.556,0,0,0-.77.893c-.09.5.359,1.26,1.234,2.072a1.1,1.1,0,0,1-.189,1.753c-.493.293-1.2.961-1.192,1.39.007.306.442.719,1.164,1.106a1.1,1.1,0,0,1,.249,1.755,1.16,1.16,0,0,0-.326.7.852.852,0,0,0,.372.5c1.436,1.1,7.159,2.228,9.02,1.757.49-.066,8.673-1.12,8.374-10.19a56.162,56.162,0,0,0-2.516-14.515c-.158-.543-.3-1.029-.414-1.463-.24-.9-1.232-1.848-1.819-1.731-.724.125-2.419.416-1.553,10.041a1.1,1.1,0,0,1-.323.882,1.087,1.087,0,0,1-.889.31c-1.933-.2-7.366-.385-9.308,1.236a1.5,1.5,0,0,0-.6,1.089.835.835,0,0,0,.022.279l3.711.644a1.1,1.1,0,0,1-.374,2.167Z" transform="translate(-840.695 1952.132)" fill="#002974"/>
    <line id="선_4" data-name="선 4" x2="4.555" y2="0.574" transform="translate(-800.093 2021.709)" fill="#ffe8db"/>
    <path id="패스_244" data-name="패스 244" d="M44.215,59.881a.976.976,0,0,1-.139-.009L39.519,59.3a1.1,1.1,0,0,1,.275-2.182l4.557.574a1.1,1.1,0,0,1-.136,2.191" transform="translate(-839.75 1963.503)" fill="#002974"/>
    <line id="선_5" data-name="선 5" x2="3.953" y2="0.264" transform="translate(-800.083 2026.123)" fill="#ffe8db"/>
    <path id="패스_245" data-name="패스 245" d="M43.618,61.577c-.026,0-.051,0-.075,0L39.59,61.31a1.1,1.1,0,0,1-1.025-1.17,1.146,1.146,0,0,1,1.17-1.025l3.953.264a1.1,1.1,0,0,1-.07,2.2" transform="translate(-839.744 1965.911)" fill="#002974"/>
    <path id="패스_246" data-name="패스 246" d="M48.668,52.545a5.488,5.488,0,0,1-4.689,1.524" transform="translate(-833.248 1958.033)" fill="#ffe8db"/>
    <path id="패스_247" data-name="패스 247" d="M45.474,55.848a6.329,6.329,0,0,1-1.089-.1,1.1,1.1,0,0,1,.387-2.164,4.337,4.337,0,0,0,3.691-1.192,1.1,1.1,0,0,1,1.612,1.5,6.72,6.72,0,0,1-4.6,1.955" transform="translate(-833.848 1957.434)" fill="#002974"/>
    <path id="패스_248" data-name="패스 248" d="M5.085,45.677A1.1,1.1,0,0,1,4.032,44.9L1.388,36.132a1.1,1.1,0,0,1,2.1-.636l2.646,8.763A1.1,1.1,0,0,1,5.4,45.631a1.141,1.141,0,0,1-.319.046" transform="translate(-884.393 1936.644)" fill="#f6ce07"/>
    <path id="패스_249" data-name="패스 249" d="M1.1,41A1.1,1.1,0,0,1,.768,38.85l8.541-2.71a1.1,1.1,0,0,1,.666,2.1L1.433,40.949A1.159,1.159,0,0,1,1.1,41" transform="translate(-886.002 1938.295)" fill="#f6ce07"/>
    <path id="패스_250" data-name="패스 250" d="M60.673,51.714a1.1,1.1,0,0,1-1.054-.781l-2.642-8.763a1.1,1.1,0,1,1,2.1-.636L61.727,50.3a1.1,1.1,0,0,1-.735,1.373,1.141,1.141,0,0,1-.319.046" transform="translate(-817.712 1943.887)" fill="#002974"/>
    <path id="패스_251" data-name="패스 251" d="M56.69,47.038a1.1,1.1,0,0,1-.332-2.149l8.543-2.71a1.1,1.1,0,1,1,.666,2.1l-8.545,2.712a1.159,1.159,0,0,1-.332.051" transform="translate(-819.322 1945.537)" fill="#002974"/>
  </g>
</svg>
