<svg xmlns="http://www.w3.org/2000/svg" xmlns:xlink="http://www.w3.org/1999/xlink" width="152" height="128" viewBox="0 0 152 128">
  <defs>
    <clipPath id="clip-path">
      <rect id="사각형_52" data-name="사각형 52" width="152" height="128" fill="none"/>
    </clipPath>
  </defs>
  <g id="큐알" transform="translate(0 0)">
    <g id="그룹_72" data-name="그룹 72" transform="translate(0 0)" clip-path="url(#clip-path)">
      <path id="패스_369" data-name="패스 369" d="M126.687,1.5H44.12A20.683,20.683,0,0,0,23.26,22V72.019L3.161,91.774a5.524,5.524,0,0,0,3.984,9.449H23.26v1.925a20.683,20.683,0,0,0,20.861,20.5h82.567a20.681,20.681,0,0,0,20.859-20.5V22A20.681,20.681,0,0,0,126.687,1.5" transform="translate(1.477 1.426)" fill="#fff"/>
      <path id="패스_370" data-name="패스 370" d="M44.12-1.5h82.567A23.708,23.708,0,0,1,150.546,22v81.148a23.708,23.708,0,0,1-23.859,23.5H44.12a23.731,23.731,0,0,1-23.836-22.425H7.145a8.6,8.6,0,0,1-8-5.336,8.34,8.34,0,0,1,1.918-9.253l19.2-18.873V22A23.709,23.709,0,0,1,44.12-1.5Zm82.567,122.148a17.7,17.7,0,0,0,17.859-17.5V22A17.7,17.7,0,0,0,126.687,4.5H44.12A17.7,17.7,0,0,0,26.26,22V73.277l-21,20.636a2.388,2.388,0,0,0-.571,2.7,2.568,2.568,0,0,0,2.451,1.608H26.26v4.925a17.7,17.7,0,0,0,17.86,17.5Z" transform="translate(1.477 1.426)" fill="#fdd143"/>
      <path id="패스_371" data-name="패스 371" d="M20.44,89.519V78.533H42.8v21.973H20.44Zm19.163,0V81.672H23.634V97.365H39.6Zm-12.776,0V84.81h9.581v9.416H26.827Zm22.357,9.416v-1.57H45.991V91.088h3.194V81.672h3.194V78.533H45.991V75.395H33.214V72.256h3.194V69.115H30.021v6.279H26.827V72.256H20.44V69.115h6.387V62.838H23.634v3.139H20.44V59.7h6.387v3.139h3.194v3.139h3.194V62.838h3.194v3.139H42.8V62.838H39.6V59.7H30.021V56.561H39.6V53.422H30.021V50.283H26.827v3.139H20.44V44h3.194v3.141H42.8V44H39.6V40.865H33.214V44H30.021V40.865H23.634V34.588h6.387v6.277h3.194V37.727H39.6V34.588H42.8v3.139H39.6v3.139H42.8V44h3.194V37.727h3.194V34.588H45.991V25.172h6.387v3.139h3.194V31.45H52.378v3.139h3.194V53.422H49.184V50.283H45.991v3.139H42.8v3.139H39.6V59.7H42.8v3.139h3.194v3.139h6.387V62.838H49.184V59.7H45.991V56.561h6.387v6.277h3.194V56.561h3.194v6.277h3.194V53.422h3.194V50.283h3.2v3.139h-3.2v3.139h3.2V59.7h9.581V56.561H74.735V53.422H71.541V47.145H68.348V44h3.194V40.865h3.194V37.727H71.541V34.588H68.348v6.277h-3.2V37.727H61.959v3.139H58.765V37.727h3.194V34.588H58.765V25.172H55.571V22.034h3.194v3.139h3.194V12.616h3.194v6.279h6.389V15.754H68.348V9.477h6.387v3.139H71.541v3.139h6.387V12.616h3.194V9.477h6.387v9.418H81.122V15.754H77.929v6.279h3.194V31.45h3.194V28.311h3.194V44H93.9V40.865H90.7V34.588h6.389V44h6.387V40.865h-3.194V34.588h3.194v6.277h3.194V37.727h6.387V44h-3.194V40.865h-3.194V44h-3.194v9.418h3.194v3.139h-3.194V59.7H97.092v3.139H93.9v3.139H87.509V62.838H84.316V59.7H81.122v6.277h3.194v3.139H93.9v3.141h6.389V69.115H97.092V65.977h3.194V62.838h3.194v3.139h3.194v3.139h3.194V62.838h-3.194V59.7h6.387v9.416h-3.194v6.279h3.194v6.277h-3.194v9.416h3.194v3.139h-9.581v6.279H93.9V97.365h6.389V94.226H93.9V87.949H90.7v6.277H87.509v3.139H90.7v3.141H84.316V91.088H81.122v6.277H77.929V94.226H74.735V81.672h3.194v9.416h3.194V81.672h3.194V75.395H81.122V72.256H77.929V69.115h3.194V65.977H77.929V62.838H74.735V75.395h3.194v3.139H71.541V84.81H68.348v6.277h3.194v3.139H68.348v3.139h6.387v3.141H68.348V97.365h-3.2V94.226H61.959v6.279H49.184Zm9.581-4.709V91.088h3.194V81.672H55.571V84.81h3.194v3.139H52.378v3.139H49.184v3.139h3.194v3.139h6.387Zm44.714-3.139V87.949h3.194V81.672h3.194V78.533h-3.194V69.115h-3.194v9.418h3.194v3.139h-3.194V84.81h-3.194v9.416h3.194Zm-15.97-1.568v-1.57H84.316v3.139h3.194ZM68.348,83.24V81.672h-3.2V84.81h3.2ZM97.092,80.1V75.395H87.509V84.81h9.583Zm-6.389,0V78.533H93.9v3.139H90.7ZM65.152,76.963V75.395h6.389V72.256H65.152V69.115H61.959v3.141h3.194v3.139H58.765V72.256H55.571v3.139H52.378V72.256H49.184V69.115H45.991V65.977H42.8v3.139H39.6v3.141H42.8V69.115h3.194v3.141h3.194v3.139h3.194v3.139H65.152Zm-9.581-9.416v-1.57H52.378v3.139h3.194Zm15.97-1.57V62.838H65.152v3.139h3.2v3.139h3.194ZM90.7,61.27V59.7H87.509v3.139H90.7Zm6.389-3.139v-1.57h3.194V47.145H97.092v3.139H93.9v3.139H90.7V50.283H84.316V47.145H81.122V44h3.194V34.588H81.122V31.45H77.929V28.311H74.735V31.45H71.541V22.034h3.194v3.139h3.194V22.034H74.735V18.895H71.541v3.139H68.348V31.45h3.194v3.139h3.194V31.45h3.194v9.416H74.735V44H71.541v3.141h3.194v6.277h3.194V50.283h6.387v3.139h3.194v3.139H93.9V59.7h3.2ZM93.9,54.99V53.422h3.2v3.139H93.9ZM42.8,51.852V50.283h3.194V47.145H42.8v3.139H39.6v3.139H42.8Zm9.581-6.277V44H49.184v3.141h3.194Zm0-15.7V28.311H49.184V31.45h3.194Zm12.774-1.568V25.172H61.959V31.45h3.194ZM84.316,14.186v-1.57H81.122v3.139h3.194Zm25.551,84.749v-1.57h3.194v3.141h-3.194Zm0-45.513V50.283h-3.194V47.145h3.194v3.139h3.194v6.277h-3.194ZM20.44,20.463V9.477H42.8V31.45H20.44Zm19.163,0V12.616H23.634v15.7H39.6Zm-12.776,0V15.754h9.581v9.418H26.827Zm63.876,0V9.477H113.06V31.45H90.7Zm19.164,0V12.616H93.9v15.7h15.97Zm-12.774,0V15.754h9.581v9.418H97.092Zm-51.1,0V18.895h3.194v3.139H45.991Zm6.387-3.139v-1.57H49.184V9.477h3.194v3.139h3.194V9.477h3.194v3.139H55.571v6.279H52.378Z" transform="translate(20.13 9.01)" fill="#002974"/>
    </g>
  </g>
</svg>
