<svg xmlns="http://www.w3.org/2000/svg" width="224" height="224" viewBox="0 0 224 224">
  <g id="그림_오늘도_달성" data-name="그림_오늘도 달성" transform="translate(0.004 -0.31)">
    <path id="패스_252" data-name="패스 252" d="M222.6,111.3A111.3,111.3,0,1,1,111.3,0,111.3,111.3,0,0,1,222.6,111.3" transform="translate(0.562 0.378)" fill="#fdd143"/>
    <path id="패스_253" data-name="패스 253" d="M44.082,58.244s-22.132,16.219-27.4,17.7c-4.6,1.29,17.518,21.037,39.661,20.325s-12.26-38.023-12.26-38.023" transform="translate(19.219 68.008)" fill="#002974"/>
    <path id="패스_254" data-name="패스 254" d="M138.4,83.364c0,29.9-24.959,54.139-55.746,54.139S26.9,113.263,26.9,83.364,51.862,29.225,82.65,29.225,138.4,53.464,138.4,83.364" transform="translate(31.8 34.313)" fill="#002974"/>
    <path id="패스_255" data-name="패스 255" d="M83.232,139.165C51.9,139.165,26.4,114.392,26.4,83.944S51.9,28.725,83.232,28.725,140.059,53.5,140.059,83.944s-25.493,55.221-56.827,55.221m0-108.279c-30.144,0-54.668,23.8-54.668,53.058S53.089,137,83.232,137,137.9,113.2,137.9,83.944,113.374,30.886,83.232,30.886" transform="translate(31.219 33.732)" fill="#002974"/>
    <path id="패스_256" data-name="패스 256" d="M46.088,49.782c2.161,6.836-2.678,14.46-10.808,17.032s-16.472-.886-18.635-7.722a12.133,12.133,0,0,1,1.878-10.618,17.105,17.105,0,0,1,8.93-6.414c8.13-2.57,16.474.886,18.635,7.722" transform="translate(19.291 48.23)" fill="#ffe8db"/>
    <path id="패스_257" data-name="패스 257" d="M30.413,69.329a17.038,17.038,0,0,1-6.527-1.269A13,13,0,0,1,16.193,60a13.244,13.244,0,0,1,2.019-11.56,18.207,18.207,0,0,1,9.494-6.827A18.012,18.012,0,0,1,40,41.978a12.654,12.654,0,0,1,6.032,19.078,17.988,17.988,0,0,1-9.85,7.367,19.1,19.1,0,0,1-5.768.905M33.471,42.87a17,17,0,0,0-5.115.8,16.013,16.013,0,0,0-8.366,6,11.107,11.107,0,0,0-1.738,9.678,10.883,10.883,0,0,0,6.462,6.715,15.855,15.855,0,0,0,10.816.3A15.852,15.852,0,0,0,44.208,59.9a10.5,10.5,0,0,0-5.035-15.925,14.9,14.9,0,0,0-5.7-1.1" transform="translate(18.713 47.647)" fill="#002974"/>
    <path id="패스_258" data-name="패스 258" d="M30.6,53.879h-.006c-.43,0-4.257-.091-6.017-2.222a3.876,3.876,0,0,1-.776-3.285c.91-4.94,11.506-3.8,13.615-3.525a1.083,1.083,0,0,1,.931,1.215,1.1,1.1,0,0,1-1.215.929c-4.286-.56-10.808-.385-11.21,1.774a1.73,1.73,0,0,0,.316,1.513c.953,1.154,3.477,1.431,4.37,1.439a1.081,1.081,0,0,1-.009,2.161" transform="translate(28.103 52.092)" fill="#002974"/>
    <path id="패스_259" data-name="패스 259" d="M25.8,57.853a3.966,3.966,0,0,1-.454-.024,4.877,4.877,0,0,1-3.19-1.729,6.114,6.114,0,0,1-1.344-4.733c.638-5.23,7.134-10.2,7.411-10.41A1.081,1.081,0,0,1,29.53,42.68c-.061.045-6.045,4.631-6.57,8.954a3.965,3.965,0,0,0,.893,3.123,2.781,2.781,0,0,0,1.733.925,3.559,3.559,0,0,0,2.589-1.065,1.081,1.081,0,0,1,1.4,1.642A5.844,5.844,0,0,1,25.8,57.853" transform="translate(24.669 47.68)" fill="#002974"/>
    <path id="패스_260" data-name="패스 260" d="M23.343,57.27a4.8,4.8,0,0,1-3.2-1.154c-4.61-3.933,1.271-13.17,1.958-14.209a1.08,1.08,0,0,1,1.8,1.189c-1.571,2.386-5.046,9.085-2.323,11.411.192.169,1.725,1.416,4.113-.227a1.08,1.08,0,1,1,1.223,1.781,6.266,6.266,0,0,1-3.579,1.21" transform="translate(21.924 48.47)" fill="#002974"/>
    <path id="패스_261" data-name="패스 261" d="M20.365,55.728c-.043,0-.084,0-.125,0A3.434,3.434,0,0,1,17.6,54.256c-2.291-2.965-.4-8.986-.171-9.662a1.08,1.08,0,0,1,2.051.676c-.471,1.435-1.515,5.924-.171,7.666a1.294,1.294,0,0,0,1,.629A3.82,3.82,0,0,0,22.4,52.432a1.081,1.081,0,0,1,1.6,1.45,5.571,5.571,0,0,1-3.635,1.846" transform="translate(19.703 51.294)" fill="#002974"/>
    <path id="패스_262" data-name="패스 262" d="M109.7,101.578,35.18,58.243,21.565,63.125c-.123.039,21.1,49.365,23.559,57.426h78.155s-1.061-16.63-13.578-18.973" transform="translate(25.601 68.006)" fill="#fff"/>
    <path id="패스_263" data-name="패스 263" d="M123.846,122.209H45.693a1.083,1.083,0,0,1-1.035-.763c-1.757-5.762-13.31-33.083-19.517-47.763-4.208-9.952-4.208-9.952-3.992-10.43a1.1,1.1,0,0,1,.618-.566l13.615-4.878a1.064,1.064,0,0,1,.908.082l74.36,43.238c13.023,2.589,14.229,19.223,14.274,19.932a1.083,1.083,0,0,1-1.078,1.148m-77.369-2.161h76.158c-.514-3.676-2.881-15.016-12.567-16.831a.917.917,0,0,1-.344-.128L35.637,60.011,23.55,64.344c.638,1.534,1.984,4.72,3.581,8.5,5.984,14.151,16.926,40.031,19.346,47.206" transform="translate(25.034 67.427)" fill="#002974"/>
    <path id="패스_264" data-name="패스 264" d="M38.747,50.4,18.495,56.694l.683,17.49,17.488-5.74" transform="translate(22.036 58.9)" fill="#fff"/>
    <path id="패스_265" data-name="패스 265" d="M19.759,75.843a1.081,1.081,0,0,1-1.081-1.037L18,57.318a1.082,1.082,0,0,1,.759-1.076l20.252-6.291a1.08,1.08,0,1,1,.642,2.062L20.187,58.059l.6,15.229L36.91,68a1.078,1.078,0,1,1,.674,2.049L20.1,75.792a1.121,1.121,0,0,1-.337.052" transform="translate(21.456 58.32)" fill="#002974"/>
    <path id="패스_266" data-name="패스 266" d="M116.69,120.561c11.231,1.869,21.626-3.343,25.668-13.1,4.966-11.99-1.774-23.1-11.437-22.409h-.175a51.921,51.921,0,1,0-11.05,32.022" transform="translate(31.8 38.845)" fill="#ffe8db"/>
    <path id="패스_267" data-name="패스 267" d="M79.4,138.632A53,53,0,1,1,132.4,84.517a12.589,12.589,0,0,1,10.237,5.418c3.568,4.947,4.056,11.869,1.3,18.517C139.783,118.483,129.29,124,117.679,122.3A52.652,52.652,0,0,1,79.4,138.632m0-103.843a50.841,50.841,0,1,0,36.981,85.73,1.23,1.23,0,0,1,.205-.218q1.478-1.588,2.835-3.317a1.081,1.081,0,1,1,1.7,1.333q-.81,1.034-1.664,2.019c10,.89,18.886-4.039,22.478-12.712,2.462-5.95,2.066-12.092-1.061-16.425a10.371,10.371,0,0,0-9.3-4.493c-.028,0-.231,0-.257,0a1.08,1.08,0,0,1-1.081-1.081A50.9,50.9,0,0,0,79.4,34.789" transform="translate(31.219 38.264)" fill="#002974"/>
    <path id="패스_268" data-name="패스 268" d="M44.216,78.737,37.05,87.462l20.721-4.277L74.148,95.661l3.19-12.671s-17.211,3.964-33.122-4.253" transform="translate(43.582 91.803)" fill="#fdd143"/>
    <path id="패스_269" data-name="패스 269" d="M74.726,97.322a1.078,1.078,0,0,1-.655-.22L58.088,84.925,37.849,89.1a1.058,1.058,0,0,1-1.143-.5,1.085,1.085,0,0,1,.089-1.245l7.164-8.727a1.083,1.083,0,0,1,1.333-.274c15.383,7.944,32.214,4.2,32.382,4.16a1.081,1.081,0,0,1,1.29,1.318L75.772,96.5a1.077,1.077,0,0,1-1.046.817M62.254,85.381l11.824,9.008,2.379-9.44a57.444,57.444,0,0,1-14.2.432M45.082,80.672l-4.677,5.7,12.766-2.637a46.311,46.311,0,0,1-8.089-3.06" transform="translate(43.001 91.223)" fill="#002974"/>
    <path id="패스_270" data-name="패스 270" d="M73.765,76.252a1.052,1.052,0,0,1-.143-.009,1.082,1.082,0,0,1-.931-1.212c1.349-10.2,11.752-13.935,12.2-14.088a1.081,1.081,0,0,1,.713,2.04c-.1.035-9.593,3.469-10.765,12.329a1.08,1.08,0,0,1-1.07.94" transform="translate(84.955 71.073)" fill="#c8675d"/>
    <path id="패스_271" data-name="패스 271" d="M75.113,79.267a1.081,1.081,0,0,1-.7-1.908c2.325-1.958,3.549-4.072,3.633-6.28A9.082,9.082,0,0,0,75.526,65a1.08,1.08,0,0,1,1.511-1.545,11.142,11.142,0,0,1,3.175,7.679c-.1,2.853-1.584,5.5-4.4,7.877a1.071,1.071,0,0,1-.7.253" transform="translate(86.523 73.707)" fill="#c8675d"/>
    <path id="패스_272" data-name="패스 272" d="M63.539,38.405s-.484-11.169,11.327-10.966Z" transform="translate(74.335 32.236)" fill="#002974"/>
    <path id="패스_273" data-name="패스 273" d="M27.1,54.17c6.944-1.69,14.557,5.1,17.008,15.158s-1.2,19.591-8.139,21.281" transform="translate(32.034 62.977)" fill="#ffcfbc"/>
    <path id="패스_274" data-name="패스 274" d="M37.179,90.206c-2.349.571-6.237-7.123-8.686-17.185S25.96,54.34,28.309,53.767" transform="translate(31.448 62.809)" fill="#ffcfbc"/>
    <path id="패스_275" data-name="패스 275" d="M79.4,138.632A53,53,0,1,1,132.4,84.517a12.589,12.589,0,0,1,10.237,5.418c3.568,4.947,4.056,11.869,1.3,18.517C139.783,118.483,129.29,124,117.679,122.3A52.652,52.652,0,0,1,79.4,138.632m0-103.843a50.841,50.841,0,1,0,36.981,85.73,1.23,1.23,0,0,1,.205-.218q1.478-1.588,2.835-3.317a1.081,1.081,0,1,1,1.7,1.333q-.81,1.034-1.664,2.019c10,.89,18.886-4.039,22.478-12.712,2.462-5.95,2.066-12.092-1.061-16.425a10.371,10.371,0,0,0-9.3-4.493c-.028,0-.231,0-.257,0a1.08,1.08,0,0,1-1.081-1.081A50.9,50.9,0,0,0,79.4,34.789" transform="translate(31.219 38.264)" fill="#002974"/>
    <path id="패스_276" data-name="패스 276" d="M30.23,58.094s10.436,1.059,12.9,2.425c0,0,8.472-8.173,9.974-9.211V62.953s30.293,8.634,32.158,10.14L95.591,62.531,93,75.414,120.46,86.483l-1.64,12.022,8.063-12.742s5.055-18.489-.957-26.921S97.232,32.513,97.232,32.513L54.465,33.842,32.194,53.418Z" transform="translate(35.663 38.13)" fill="#002974"/>
    <path id="패스_277" data-name="패스 277" d="M119.4,100.168a1.091,1.091,0,0,1-.37-.065,1.076,1.076,0,0,1-.7-1.161l1.524-11.19L93.175,77a1.077,1.077,0,0,1-.655-1.215L94.4,66.476l-7.787,7.953a1.082,1.082,0,0,1-1.45.086c-1.5-1.07-20.289-6.667-31.775-9.943a1.074,1.074,0,0,1-.784-1.037V54.218c-2.146,1.93-5.684,5.288-8.143,7.661a1.086,1.086,0,0,1-1.277.169c-1.658-.921-8.372-1.878-12.478-2.3a1.078,1.078,0,0,1-.886-1.491l1.964-4.681a1.075,1.075,0,0,1,.283-.4L54.335,33.611a1.084,1.084,0,0,1,.679-.268L97.78,32.012a1.059,1.059,0,0,1,.7.231c.931.735,22.869,18.093,28.9,26.556,6.239,8.748,1.331,27.055,1.119,27.831a1.136,1.136,0,0,1-.13.292l-8.059,12.744a1.086,1.086,0,0,1-.914.5M94.815,75.33l26.627,10.732a1.08,1.08,0,0,1,.668,1.148l-.966,7.1,5.316-8.4c.456-1.766,4.532-18.329-.834-25.856-5.478-7.685-25.45-23.7-28.173-25.867L55.47,35.491l-21.8,19.154-1.307,3.116c2.758.32,8.476,1.065,11.113,2.06,1.98-1.906,8.225-7.88,9.587-8.82a1.069,1.069,0,0,1,1.115-.067,1.082,1.082,0,0,1,.579.955V62.72c5.958,1.7,26.1,7.521,30.857,9.632l9.783-10a1.081,1.081,0,0,1,1.833.968Z" transform="translate(35.082 37.549)" fill="#002974"/>
    <path id="패스_278" data-name="패스 278" d="M88.312,82.642A18.583,18.583,0,1,1,69.731,64.061,18.582,18.582,0,0,1,88.312,82.642" transform="translate(59.95 74.762)" fill="#ffcfbc"/>
    <path id="패스_279" data-name="패스 279" d="M110.436,71.693s-7.778,24.276-14.257,26.271-42.218-6.14-47.861-14.7c0,0,34.74-3.052,43.506-7.488,0,0,15.664-1.258,18.612-4.087" transform="translate(56.665 83.624)" fill="#002974"/>
    <path id="패스_280" data-name="패스 280" d="M60.841,67.221a1.072,1.072,0,0,1-.644-.214l-9.712-7.2a1.078,1.078,0,0,1,.584-1.945l12.971-.733a1.056,1.056,0,0,1,1.141,1.018,1.083,1.083,0,0,1-1.018,1.139l-9.991.564,7.313,5.42a1.08,1.08,0,0,1-.644,1.947" transform="translate(58.674 66.715)" fill="#002974"/>
    <path id="패스_281" data-name="패스 281" d="M38.935,62.029a1.08,1.08,0,0,1-.06-2.159l9.989-.564L41.55,53.888a1.08,1.08,0,1,1,1.288-1.733l9.712,7.2a1.079,1.079,0,0,1-.584,1.945L39,62.027l-.061,0" transform="translate(44.517 60.691)" fill="#002974"/>
    <path id="패스_282" data-name="패스 282" d="M56.942,79.252a21.466,21.466,0,0,1-5.954-.86c-9.416-2.738-15.247-11.255-13-18.99a1.083,1.083,0,0,1,1.34-.735L71.4,67.99a1.082,1.082,0,0,1,.737,1.34,13.35,13.35,0,0,1-7.985,8.513,18.655,18.655,0,0,1-7.214,1.409M39.817,61.059c-1.111,6.3,3.942,12.98,11.774,15.255a17.676,17.676,0,0,0,11.726-.465,11.472,11.472,0,0,0,6.39-6.1Z" transform="translate(44.111 68.449)" fill="#c8675d"/>
    <path id="패스_283" data-name="패스 283" d="M29.663,25.819a1.112,1.112,0,0,1-.115-.651,4.8,4.8,0,0,1,.138-.867c.076-.3.164-.59.261-.875s.184-.51.255-.681a3.012,3.012,0,0,1,.886-1.273,3.638,3.638,0,0,1,1.446-.774,3.856,3.856,0,0,1,1.813-.1,3.774,3.774,0,0,1,1.489.648,4.115,4.115,0,0,1,1.089,1.2,5.279,5.279,0,0,1,.629,1.556,5.972,5.972,0,0,1,.156,1.61,8.653,8.653,0,0,1-.218,1.539,14.97,14.97,0,0,1-.452,1.528c-.184.512-.365,1.022-.56,1.537a15.521,15.521,0,0,1-1.072,2.366c-.411.735-.854,1.5-1.32,2.284-.054.091-.132.229-.233.413s-.21.374-.331.564a4.684,4.684,0,0,1-.387.523.872.872,0,0,1-.4.287.5.5,0,0,1-.335.011,2.4,2.4,0,0,1-.4-.153c-.147-.067-.279-.134-.406-.2s-.236-.117-.322-.151c-.843-.328-1.664-.7-2.47-1.111a22.2,22.2,0,0,1-2.332-1.374,16.2,16.2,0,0,1-2.092-1.666,13.223,13.223,0,0,1-1.759-2.047,6.534,6.534,0,0,1-.849-1.843,5.486,5.486,0,0,1-.212-2.114,4,4,0,0,1,.711-1.926,3.35,3.35,0,0,1,1.913-1.251,4.594,4.594,0,0,1,1.649-.207,3.712,3.712,0,0,1,1.282.326,3.98,3.98,0,0,1,.99.661,7.733,7.733,0,0,1,.759.782c.27.473.538.949.8,1.42" transform="translate(25.562 24.224)" fill="#002974"/>
    <path id="패스_284" data-name="패스 284" d="M46.447,30.865a.264.264,0,0,0,.136-.009.967.967,0,0,1,.132-.03,3.968,3.968,0,0,1,.73.039,1.883,1.883,0,0,1,.689.268,1.023,1.023,0,0,1,.419.718,1.855,1.855,0,0,1-.006.523,1.1,1.1,0,0,1-.153.454,1.162,1.162,0,0,1-.408.324,3.248,3.248,0,0,1-.493.192,4.093,4.093,0,0,1-.43.1c-.125.019-.2.028-.21.03q-6.221.914-12.392,2.189c-.073.015-.147.035-.218.056a1.9,1.9,0,0,1-.218.056,9.078,9.078,0,0,1-.994.2,1.592,1.592,0,0,1-.975-.136,1.249,1.249,0,0,1-.666-.821,1.334,1.334,0,0,1,.054-.709,1.034,1.034,0,0,1,.43-.588,2.575,2.575,0,0,1,.888-.37c.318-.069.64-.143.966-.225.035-.009.073-.017.11-.024,1.286-.3,2.621-.56,4-.791l-.616-3.147q-.687.088-1.366.106a6.739,6.739,0,0,1-1.34-.093,5.652,5.652,0,0,1-1.273-.383,4.243,4.243,0,0,1-1.139-.737,3.67,3.67,0,0,1-1-1.271,7.145,7.145,0,0,1-.508-1.53,4.217,4.217,0,0,1,.372-3.008,5.416,5.416,0,0,1,2.341-2.168,10.834,10.834,0,0,1,2.224-.888,14.61,14.61,0,0,1,2.36-.439c.657-.071,1.314-.128,1.977-.162a6.8,6.8,0,0,1,1.954.169,5.876,5.876,0,0,1,.849.29,4.265,4.265,0,0,1,.8.454,4.434,4.434,0,0,1,1.4,1.61,5.207,5.207,0,0,1,.512,2.012,4.692,4.692,0,0,1-.316,2.187,4.763,4.763,0,0,1-1.128,1.617,5.887,5.887,0,0,1-1.72,1.109,9.054,9.054,0,0,1-2.1.625q.3,1.566.59,3.129c.417-.071.8-.14,1.143-.207s.676-.123,1-.177.659-.108.988-.16.692-.1,1.083-.147a6.316,6.316,0,0,0,.785-.132,3.86,3.86,0,0,1,.743-.1m-4.063-6.95a1.7,1.7,0,0,0-.041-.549,2.126,2.126,0,0,0-1.031-1.558,3.645,3.645,0,0,0-1.956-.372c-.445.03-.992.078-1.645.145a8.3,8.3,0,0,0-1.876.4,4.529,4.529,0,0,0-1.526.841,1.693,1.693,0,0,0-.588,1.426,3.388,3.388,0,0,0,.207.988,1.821,1.821,0,0,0,.549.765,2.491,2.491,0,0,0,.951.462,3.889,3.889,0,0,0,1.416.065c.549-.043,1.1-.093,1.671-.149A6.516,6.516,0,0,0,40.142,26a6.886,6.886,0,0,0,.763-.318,3.813,3.813,0,0,0,.7-.439,2.4,2.4,0,0,0,.521-.586,1.907,1.907,0,0,0,.259-.743" transform="translate(35.949 21.947)" fill="#002974"/>
    <path id="패스_285" data-name="패스 285" d="M40.56,25.07c.123-.03.264-.058.424-.084s.32-.052.475-.069c.186-.024.372-.045.558-.067q2.506-.3,5.016-.54,1.206-.139,2.369-.238,1-.084,2.083-.169c.722-.056,1.34-.091,1.854-.112l.091-.006c.313,0,.622-.019.934-.039a2.752,2.752,0,0,1,.918.1.982.982,0,0,1,.774.9,1.04,1.04,0,0,1-.413.906,1.472,1.472,0,0,1-.856.4,5.7,5.7,0,0,1-.99.065q-6.5.431-12.973,1.245c-.015,0-.084.009-.205.026a2.48,2.48,0,0,1-.43.011,3.872,3.872,0,0,1-.51-.056.909.909,0,0,1-.445-.194.835.835,0,0,1-.251-.3,1.1,1.1,0,0,1-.121-.383.953.953,0,0,1,.2-.759,1.3,1.3,0,0,1,.573-.4c.2-.063.421-.125.648-.182.045-.006.091-.017.138-.028a.955.955,0,0,1,.136-.03m14.264,7.315a1.882,1.882,0,0,1,.635.136.756.756,0,0,1,.411.46.812.812,0,0,1-.512,1.152,1.774,1.774,0,0,1-.523.166c-.177.026-.348.045-.51.054q-5.161.347-10.3.938c-.3.035-.6.067-.921.1s-.64.058-.964.084a1.169,1.169,0,0,1-.817-.229,1.255,1.255,0,0,1-.458-.761q-.133-.755-.264-1.515a1.744,1.744,0,0,1-.019-.573,1.237,1.237,0,0,1,.212-.581,1.474,1.474,0,0,1,.735-.525,4.7,4.7,0,0,1,.957-.216c.21-.024.538-.067.981-.115s1.057-.125,1.839-.216,1.772-.2,2.972-.309,2.656-.24,4.376-.363c-.019-.279-.039-.555-.061-.834q-5.362.392-10.708,1.048c-.151.017-.287.035-.406.05a1.394,1.394,0,0,1-.367,0c-.138-.009-.268-.024-.374-.039a.481.481,0,0,1-.3-.184,1.021,1.021,0,0,1-.281-.916.6.6,0,0,1,.171-.3,1.168,1.168,0,0,1,.3-.2,1.662,1.662,0,0,1,.341-.134c.115-.028.214-.056.3-.082a3.851,3.851,0,0,1,.7-.151c.229-.028.46-.056.7-.082s.527-.061.869-.1.756-.082,1.236-.125,1.081-.106,1.8-.177,1.573-.153,2.565-.24,2.174-.186,3.549-.285a3.736,3.736,0,0,1,1.811.218,1.165,1.165,0,0,1,.687,1.068l.1,1.688a1.328,1.328,0,0,1-.11.612,1.177,1.177,0,0,1-.475.525,1.252,1.252,0,0,1-.573.225c-.194.022-.391.039-.584.052q-5.1.353-10.185.949c.03.255.061.508.089.763q5.679-.665,11.383-1.029M40.444,17.74a1.568,1.568,0,0,1,.538-.175c.08-.009.166-.017.264-.019a.986.986,0,0,1,.27.022,1.139,1.139,0,0,1,.692.318,1.425,1.425,0,0,1,.32.471,2.683,2.683,0,0,1,.115.365c.03.128.063.257.091.387q.149.668.294,1.336a.864.864,0,0,1,.032.285.411.411,0,0,0,.1.253.424.424,0,0,0,.2.21.6.6,0,0,0,.255.039,1.227,1.227,0,0,0,.281-.043.965.965,0,0,1,.283-.03q3.42-.366,6.846-.631a4.275,4.275,0,0,1,.542-.052c.188-.006.378-.017.568-.03a4,4,0,0,1,.94.054,1.243,1.243,0,0,1,.828.506.635.635,0,0,1,.179.571,1.46,1.46,0,0,1-.413.545,1.834,1.834,0,0,1-.625.361,4.179,4.179,0,0,1-.728.184c-.244.041-.5.069-.756.091s-.5.037-.739.056c-.121.011-.255.015-.4.022a2.262,2.262,0,0,0-.4.043l-.8.065c-.125.011-.4.037-.83.073s-.884.08-1.368.128-.938.091-1.366.134-.7.073-.83.086c-.231.011-.475.032-.724.067s-.5.063-.746.093c-.266.028-.549.061-.854.086a3.7,3.7,0,0,1-.877-.017,2.254,2.254,0,0,1-.778-.261,1.34,1.34,0,0,1-.553-.638c-.084-.153-.151-.287-.205-.406a1.32,1.32,0,0,1-.112-.417,2.927,2.927,0,0,0-.035-.46c-.028-.233-.063-.484-.106-.752s-.082-.514-.119-.748-.058-.383-.069-.456c.006-.19.024-.383.048-.571a2.038,2.038,0,0,1,.151-.538,1.28,1.28,0,0,1,.264-.309c.125-.112.229-.21.318-.294" transform="translate(45.673 20.748)" fill="#002974"/>
    <path id="패스_286" data-name="패스 286" d="M54.4,30.211q-.039-1.472-.08-2.941c-.4,0-.767-.006-1.1,0s-.726.019-1.171.032c-.352.011-.715.013-1.091,0a5.319,5.319,0,0,1-1.052-.125,1.715,1.715,0,0,1-.715-.367,2.214,2.214,0,0,1-.525-.635,1.966,1.966,0,0,1-.188-.564c-.041-.218-.076-.432-.1-.644a5.1,5.1,0,0,1-.039-.547c0-.153,0-.238,0-.253q-.094-2-.186-3.992c0-.03-.011-.125-.026-.285a3.211,3.211,0,0,1,0-.56c.013-.214.039-.434.076-.663a1.619,1.619,0,0,1,.236-.616,1.487,1.487,0,0,1,.934-.612,6.681,6.681,0,0,1,1.314-.182q5.028-.175,10.06-.132l.359.013a6.461,6.461,0,0,1,.743.086,2.941,2.941,0,0,1,.776.253.894.894,0,0,1,.482.536,1.171,1.171,0,0,1,.054.32c0,.125.006.253,0,.385a1.862,1.862,0,0,1-.043.372.914.914,0,0,1-.086.261.888.888,0,0,1-.6.385,6.3,6.3,0,0,1-1.305.071q-4.3-.042-8.591.073a1.537,1.537,0,0,0-.813.2,1.17,1.17,0,0,0-.391.419.941.941,0,0,0-.115.465c0,.153.011.268.011.341l.16,1.995c.019.145.048.322.076.523a.641.641,0,0,0,.214.434.87.87,0,0,0,.6.212c.24,0,.5,0,.78-.011q3.952-.11,7.908-.084a4.712,4.712,0,0,1,1.9.357.961.961,0,0,1,.389.37,1.434,1.434,0,0,1,.2.5.949.949,0,0,1,0,.473.894.894,0,0,1-.229.4,2.136,2.136,0,0,1-1.714.741c-.689.022-1.368.032-2.034.039s-1.351,0-2.055-.009q.019,1.459.041,2.92,2.843-.016,5.688.041a5.092,5.092,0,0,1,.711.147,1.714,1.714,0,0,1,.638.367,1.035,1.035,0,0,1,.294.776,1.851,1.851,0,0,1-.093.514,1.121,1.121,0,0,1-.225.421,1.1,1.1,0,0,1-.456.253,2.755,2.755,0,0,1-.517.108,3.271,3.271,0,0,1-.439.024l-.212,0c-2.107-.039-3.888-.041-5.351-.032s-2.669.03-3.618.052-1.688.041-2.217.05-.925.024-1.186.03l-.48.019c-.061,0-.1,0-.136.006-.311.009-.648.022-1.007.022a1.532,1.532,0,0,1-.934-.287A1.2,1.2,0,0,1,47.4,31.8a1.348,1.348,0,0,1,.169-.692,1.047,1.047,0,0,1,.519-.508,2.513,2.513,0,0,1,.931-.22c.322-.013.653-.035.983-.063q2.2-.078,4.4-.11" transform="translate(55.599 20.261)" fill="#002974"/>
    <path id="패스_287" data-name="패스 287" d="M59.023,24.289c-.024-.147-.039-.281-.048-.4s-.006-.244,0-.374a1.8,1.8,0,0,0,0-.341.508.508,0,0,1,.041-.272c.006-.1.015-.205.017-.307.084-1.124.166-2.248.253-3.371l.037-.635a.6.6,0,0,0,.061-.205.53.53,0,0,1,.058-.207.424.424,0,0,1,.19-.339,1.292,1.292,0,0,1,.413-.458,1.377,1.377,0,0,1,.307-.1,1.284,1.284,0,0,1,.376-.03c.162-.019.354-.032.581-.039s.5,0,.845.026q.632.045,1.269.1c.179.013.352.026.527.041a4.183,4.183,0,0,1,.575.091c.35.028.7.058,1.052.089.16.013.309.03.456.05a2.487,2.487,0,0,1,.4.093c.367.032.735.067,1.1.1a2.1,2.1,0,0,1,.32.054c.1.024.216.058.341.1.108.041.207.076.292.106a.734.734,0,0,1,.24.147.838.838,0,0,1,.268.214,3.119,3.119,0,0,1,.212.3,1.23,1.23,0,0,1,.166.7l-.13.341a.851.851,0,0,1-.251.326.592.592,0,0,1-.195.158,2.424,2.424,0,0,0-.24.13,1.7,1.7,0,0,1-.255.041,1.654,1.654,0,0,0-.281.039.806.806,0,0,1-.274.015.918.918,0,0,0-.3.015l-.428-.039q-2.237-.233-4.476-.421c-.078,1.081-.162,2.161-.242,3.242.328.024.655.048.983.073a4.136,4.136,0,0,0,.64.1l.689.058q1.543.13,3.082.281a2.978,2.978,0,0,1,.657.266.66.66,0,0,1,.5.426.811.811,0,0,1,.186.7.842.842,0,0,1-.473.7,2.656,2.656,0,0,1-.962.279c-.175.026-.359.045-.553.056l-.573.032c-.216-.017-.408-.028-.579-.03s-.335-.009-.486-.024q-2.091-.185-4.182-.333a2.487,2.487,0,0,1-.756-.162,2.683,2.683,0,0,1-.683-.22.922.922,0,0,1-.506-.471,2.862,2.862,0,0,1-.134-.294c-.043-.121-.086-.257-.125-.4M61.651,33.2q5.469.408,10.914,1.094a1.543,1.543,0,0,1,.586.207.93.93,0,0,1-.411,1.608,1.237,1.237,0,0,1-.566.061Q66.08,35.411,59.959,35a1.187,1.187,0,0,1-.756-.378,1.679,1.679,0,0,1-.229-.4,1.014,1.014,0,0,1-.073-.456l.026-1.869c0-.073.013-.16.017-.261a1.341,1.341,0,0,1,.065-.326,1.3,1.3,0,0,1,.328-.551,1.639,1.639,0,0,1,.367-.231,1.746,1.746,0,0,1,.5-.11c.164-.017.333-.026.5-.03s.333,0,.5.013c.346.024.694.05,1.04.078.21.015.465.043.756.08s.629.076,1,.106q3.634.308,7.255.735c.041-.357.084-.713.125-1.07q-5.692-.671-11.406-1.048a.76.76,0,0,0-.335-.108.417.417,0,0,1-.281-.261,1.068,1.068,0,0,1-.186-.473,1.618,1.618,0,0,1,.041-.5.856.856,0,0,1,.125-.125,1.009,1.009,0,0,0,.143-.145.5.5,0,0,1,.158-.089A1.22,1.22,0,0,0,59.8,27.5a.956.956,0,0,1,.4-.084c.482.032.964.065,1.448.1.3.022.631.045.975.073s.752.043,1.232.054q4.01.331,8.014.808a6.083,6.083,0,0,1,1.042.205,2.014,2.014,0,0,1,.7.341A1.186,1.186,0,0,1,74.1,30.2c-.08.6-.158,1.206-.238,1.809a1.157,1.157,0,0,1-.073.3c-.032.089-.071.179-.115.274a1.318,1.318,0,0,1-.584.456,1.39,1.39,0,0,1-.622.076,1,1,0,0,1-.3.009c-.086-.013-.186-.022-.29-.037q-5.064-.616-10.142-1c-.028.374-.056.746-.084,1.117M77.5,22.949a.427.427,0,0,1,.2.428,1.1,1.1,0,0,1,.032.27,2.1,2.1,0,0,1-.019.309,1.047,1.047,0,0,1-.22.545,1.3,1.3,0,0,1-.975.35,4.157,4.157,0,0,1-.577-.022c-.212-.019-.434-.048-.666-.078-.255-.035-.512-.069-.767-.1l-.227,1.763a1.55,1.55,0,0,1-.48,1,1.383,1.383,0,0,1-1.128.257l-.367-.045a.614.614,0,0,0-.164-.086.546.546,0,0,1-.166-.086,2.529,2.529,0,0,1-.333-.326,1.01,1.01,0,0,1-.19-.376,1.862,1.862,0,0,1-.039-.37c0-.1.009-.164.013-.207l.772-6.633a.2.2,0,0,1-.03-.169,1.287,1.287,0,0,1,.082-.29c.05-.14.091-.264.127-.372a1.066,1.066,0,0,1,.169-.3,1.279,1.279,0,0,1,.182-.177.4.4,0,0,1,.262-.08c.1-.032.2-.065.316-.1a.8.8,0,0,1,.3-.03,1.441,1.441,0,0,1,1.279.469,1.251,1.251,0,0,1,.2.359.5.5,0,0,0,.013.2c.013.063.035.134.056.207a.579.579,0,0,1,.019.236c-.011.078-.024.179-.039.294a1.046,1.046,0,0,1-.022.363,1.406,1.406,0,0,0-.056.246c-.078.6-.153,1.191-.229,1.787.132.015.264.035.4.05a1.745,1.745,0,0,0,.3.1,3.258,3.258,0,0,0,.328.054l.329.045a1.366,1.366,0,0,1,.324.089,1.11,1.11,0,0,1,.37.1,1.048,1.048,0,0,1,.625.331" transform="translate(68.95 20.356)" fill="#002974"/>
    <path id="패스_288" data-name="패스 288" d="M67.841,26.765a.832.832,0,0,1-.387-.566,1.261,1.261,0,0,1,.067-.877,2.787,2.787,0,0,1,.525-.767,5.162,5.162,0,0,1,.746-.648,8.613,8.613,0,0,0,.713-.558c.311-.262.618-.529.929-.793s.625-.529.942-.806c.115-.1.24-.207.389-.316s.285-.229.43-.354a2.641,2.641,0,0,0,.363-.389,1.154,1.154,0,0,0,.216-.43c.054-.242.11-.482.166-.718a2.132,2.132,0,0,1,.246-.627.977.977,0,0,1,.471-.4,1.5,1.5,0,0,1,.826-.041,3.56,3.56,0,0,1,.722.2.736.736,0,0,1,.45.512,1.677,1.677,0,0,1-.041.873,1.907,1.907,0,0,0-.069.89,1.549,1.549,0,0,0,.285.709,3.09,3.09,0,0,1,.365.655,5.94,5.94,0,0,0,.718,1.359,9.948,9.948,0,0,1,.789,1.307q.285.525.525,1.074a2.842,2.842,0,0,1,.246,1.132,1.016,1.016,0,0,1-.257.789,1.276,1.276,0,0,1-.676.372,1.585,1.585,0,0,1-.817-.052,1.345,1.345,0,0,1-.685-.5A19.6,19.6,0,0,1,74.8,25.824c-.367-.666-.743-1.344-1.137-2.034q-.489.34-.869.6c-.251.171-.517.367-.806.579s-.558.417-.81.612-.475.365-.668.508a3.6,3.6,0,0,0-.35.268,4.395,4.395,0,0,1-.605.417,1.665,1.665,0,0,1-.711.2,3.077,3.077,0,0,1-.523-.032,1.171,1.171,0,0,1-.475-.182m-.069,4.895a2.314,2.314,0,0,1,.841-1.541,4.07,4.07,0,0,1,1.774-.78,9.67,9.67,0,0,1,2.492-.134,24.474,24.474,0,0,1,2.974.37q1.559.289,2.922.67a9.351,9.351,0,0,1,2.3.951,3.867,3.867,0,0,1,1.392,1.34,2.894,2.894,0,0,1-.75,3.456,3.984,3.984,0,0,1-1.783.663,10.3,10.3,0,0,1-2.425,0c-.905-.1-1.867-.242-2.879-.428s-1.954-.393-2.835-.625a9.8,9.8,0,0,1-2.263-.864A3.9,3.9,0,0,1,68.1,33.486a2.521,2.521,0,0,1-.331-1.826m11.9,2.1a.652.652,0,0,0-.281-.663,3.476,3.476,0,0,0-.975-.532,11.057,11.057,0,0,0-1.4-.419c-.527-.123-1.048-.233-1.578-.328s-1.044-.179-1.563-.249a10.476,10.476,0,0,0-1.418-.1,3.068,3.068,0,0,0-1.05.16.657.657,0,0,0-.48.523.633.633,0,0,0,.294.6,3.188,3.188,0,0,0,.936.491,12.84,12.84,0,0,0,1.353.391c.508.119,1.018.227,1.534.32s1.042.2,1.567.3a11.466,11.466,0,0,0,1.435.188,2.962,2.962,0,0,0,1.094-.1.732.732,0,0,0,.534-.575m.493-8.6c-.443-.115-.839-.22-1.191-.309a1.071,1.071,0,0,1-.746-.627,1.019,1.019,0,0,1-.035-.586,2.968,2.968,0,0,1,.158-.573.838.838,0,0,1,.333-.35,1.575,1.575,0,0,1,.707-.145,3.575,3.575,0,0,1,.462.058c.244.039.506.084.789.132l.8.138c.253.043.408.069.471.086.1-.469.19-.934.285-1.4a4.108,4.108,0,0,1,.086-.478,2.124,2.124,0,0,1,.179-.456c.056-.106.11-.207.164-.3a.84.84,0,0,1,.277-.279,1.053,1.053,0,0,1,.6-.19,2.2,2.2,0,0,1,.754.115,1.925,1.925,0,0,1,.6.322.892.892,0,0,1,.326.441,1.723,1.723,0,0,1,.037.67c-.03.257-.054.413-.065.469q-.762,3.475-1.521,6.948l-.024,0c0,.015-.024.063-.056.145a1.673,1.673,0,0,1-.158.292,1.75,1.75,0,0,1-.283.331,1.171,1.171,0,0,1-.434.244,1.521,1.521,0,0,1-.739.022,1.431,1.431,0,0,1-.7-.4.981.981,0,0,1-.3-.506,1.567,1.567,0,0,1-.082-.514,4.546,4.546,0,0,1,.028-.484l.523-2.561c-.415-.086-.832-.171-1.245-.255" transform="translate(78.829 21.786)" fill="#002974"/>
    <path id="패스_289" data-name="패스 289" d="M84.486,25.93a1.148,1.148,0,0,1,.227-.618,4.435,4.435,0,0,1,.555-.681c.216-.223.437-.43.666-.627s.417-.35.562-.46a3,3,0,0,1,1.407-.659,3.732,3.732,0,0,1,1.642.056,3.918,3.918,0,0,1,1.621.828,3.843,3.843,0,0,1,.966,1.312,4.08,4.08,0,0,1,.346,1.584,5.3,5.3,0,0,1-.236,1.662,6.022,6.022,0,0,1-.674,1.47A8.813,8.813,0,0,1,90.6,31.02a15.059,15.059,0,0,1-1.158,1.091c-.415.354-.834.7-1.258,1.048A16.143,16.143,0,0,1,86.07,34.67c-.726.43-1.493.869-2.291,1.314-.093.052-.231.13-.408.24s-.37.218-.571.32a4.324,4.324,0,0,1-.6.259.861.861,0,0,1-.491.048.508.508,0,0,1-.3-.158,2.845,2.845,0,0,1-.272-.335c-.089-.132-.175-.255-.251-.374a3.208,3.208,0,0,0-.2-.292q-.843-1.06-1.578-2.2a21.673,21.673,0,0,1-1.325-2.353,16.774,16.774,0,0,1-.968-2.492,13.18,13.18,0,0,1-.491-2.654,6.524,6.524,0,0,1,.19-2.019,5.427,5.427,0,0,1,.875-1.936,3.959,3.959,0,0,1,1.578-1.312,3.341,3.341,0,0,1,2.274-.123,4.609,4.609,0,0,1,1.528.644,3.706,3.706,0,0,1,.944.925,4,4,0,0,1,.525,1.07A8.2,8.2,0,0,1,84.5,24.3q-.007.817-.017,1.629" transform="translate(89.172 24.141)" fill="#002974"/>
    <rect id="사각형_9" data-name="사각형 9" width="224" height="224" transform="translate(-0.004 0.31)" fill="none"/>
  </g>
</svg>
