<svg xmlns="http://www.w3.org/2000/svg" width="232" height="224" viewBox="0 0 232 224">
  <g id="순이_그림" data-name="순이 그림" transform="translate(-370.67 -252.688)">
    <path id="패스_106" data-name="패스 106" d="M16.2,45.879s-2.734,15.531-7.139,21.4a3.573,3.573,0,0,0,1.308,5.283c8.191,4.243,29.1,10.4,74.84,1.237,0,0-29.15-5.137-41.884-23.217Z" transform="translate(395.304 383.697)" fill="#002974"/>
    <path id="패스_107" data-name="패스 107" d="M93.635,37.558s8.467,13.3,14.782,17.047a3.571,3.571,0,0,1,.808,5.382c-5.945,7.052-22.906,20.739-68.678,29.765,0,0,24.974-15.893,29.824-37.471Z" transform="translate(492.571 359.236)" fill="#002974"/>
    <path id="패스_108" data-name="패스 108" d="M169.976,75c8.51,42.813-20.093,84.575-63.883,93.278S19.9,149.33,11.4,106.517,31.49,21.942,75.28,13.239s86.186,18.946,94.7,61.76" transform="translate(402.473 283.035)" fill="#002974"/>
    <path id="패스_109" data-name="패스 109" d="M91.3,173.337a82.807,82.807,0,0,1-45.382-13.494A79.767,79.767,0,0,1,23.576,47.45,84.125,84.125,0,0,1,138.412,24.627,79.776,79.776,0,0,1,160.751,137.02a83.212,83.212,0,0,1-52.8,34.666A85.463,85.463,0,0,1,91.3,173.337m1.726-158.26a81.711,81.711,0,0,0-15.881,1.568A79.312,79.312,0,0,0,26.827,49.676,75.821,75.821,0,0,0,48.066,156.541,80.173,80.173,0,0,0,157.5,134.794,75.825,75.825,0,0,0,136.261,27.928,78.862,78.862,0,0,0,93.023,15.077" transform="translate(400.994 281.561)" fill="#002974"/>
    <path id="패스_110" data-name="패스 110" d="M173.789,115.426c16.356-2.131,33.49-18.422,31.329-34.56s-16.767-28.374-32.332-22.981c-13.967-26.668-45.848-45.41-77.752-41.253C60.379,21.152,33.1,53.954,29.545,86.784c-16.5-.169-27.016,13.754-21.72,30.238,4.985,15.515,25.73,25.01,41.778,21.239" transform="translate(389.615 293.525)" fill="#ffe8db"/>
    <path id="패스_111" data-name="패스 111" d="M43.734,142.515c-15.672,0-32-9.972-36.328-23.438-2.735-8.526-1.589-17.035,3.146-23.351,4.249-5.661,10.989-9.034,18.7-9.42,4.628-35.19,33.737-65.837,66.99-70.171,30.726-3.995,63.652,13.119,78.977,40.839A24.2,24.2,0,0,1,194.41,59.7c7.583,4.594,12.861,12.958,14.123,22.37,2.368,17.674-16.14,34.567-33.038,36.77a1.972,1.972,0,1,1-.523-3.908c15.014-1.954,31.62-17.268,29.6-32.345a26.983,26.983,0,0,0-12.25-19.533A20.288,20.288,0,0,0,174.892,61.2a2.008,2.008,0,0,1-2.44-.953c-14.211-27.161-46.059-44.086-75.691-40.205C60.984,24.709,36.256,58.488,33.009,88.45a1.988,1.988,0,0,1-1.985,1.765c-.2,0-.2,0-.3,0-7.044,0-13.213,2.852-16.966,7.856-3.969,5.287-4.9,12.509-2.552,19.813C15.7,131.831,34.858,141.5,50.614,137.8a1.97,1.97,0,1,1,.926,3.829,34.072,34.072,0,0,1-7.806.883" transform="translate(388.155 292.084)" fill="#002974"/>
    <path id="패스_112" data-name="패스 112" d="M14.052,56.264c5.3,40.1,36.458,60.495,76.6,55.531,39.114-4.834,65.2-37.384,62.524-78.716" transform="translate(413.643 346.069)" fill="#ffe8db"/>
    <path id="패스_113" data-name="패스 113" d="M80.359,115.984c-36.313,0-62.012-21.826-66.791-57.989a1.971,1.971,0,0,1,3.908-.516c4.98,37.68,34.189,58.8,74.4,53.837,38.409-4.747,63.41-36.261,60.8-76.636a1.97,1.97,0,0,1,3.932-.252c2.754,42.557-23.666,75.781-64.246,80.8a97.968,97.968,0,0,1-12,.756" transform="translate(413.212 344.594)" fill="#002974"/>
    <path id="패스_114" data-name="패스 114" d="M16.375,61.921a1.962,1.962,0,0,1-1.186-.4c-4.089-3.085-6.284-6.753-6.532-10.9-.449-7.6,5.953-13.836,6.221-14.1a1.969,1.969,0,0,1,2.73,2.837c-.051.051-5.37,5.267-5.015,11.039.181,2.939,1.852,5.626,4.968,7.978a1.97,1.97,0,0,1-1.186,3.542" transform="translate(396.053 352.784)" fill="#c8675d"/>
    <path id="패스_115" data-name="패스 115" d="M23.436,54.464a1.959,1.959,0,0,1-1.9-1.473c-1.119-4.263-2.919-7.111-5.358-8.467a6.854,6.854,0,0,0-4.873-.717,1.969,1.969,0,0,1-1.162-3.762,10.823,10.823,0,0,1,7.954,1.036c3.412,1.9,5.851,5.575,7.245,10.917a1.957,1.957,0,0,1-1.406,2.4,1.794,1.794,0,0,1-.5.067" transform="translate(396.832 363.965)" fill="#c8675d"/>
    <path id="패스_116" data-name="패스 116" d="M58.712,54.009a1.94,1.94,0,0,1-1.21-.414,1.974,1.974,0,0,1-.347-2.766c2.4-3.081,3.317-6.1,2.73-8.991-1.158-5.661-7.647-9.321-7.71-9.361a1.97,1.97,0,0,1,1.9-3.451c.331.185,8.128,4.55,9.664,12,.839,4.074-.331,8.183-3.471,12.225a1.971,1.971,0,0,1-1.556.76" transform="translate(523.768 330.794)" fill="#c8675d"/>
    <path id="패스_117" data-name="패스 117" d="M52.964,49.559a1.972,1.972,0,0,1-1.97-1.954c-.039-5.524,1.363-9.7,4.168-12.426a10.888,10.888,0,0,1,7.411-3.069,1.975,1.975,0,0,1,1.9,2.045,2.14,2.14,0,0,1-2.025,1.9,7.212,7.212,0,0,0-4.594,2.005C55.888,40,54.9,43.208,54.934,47.574a1.973,1.973,0,0,1-1.954,1.986Z" transform="translate(523.283 340.828)" fill="#c8675d"/>
    <path id="패스_118" data-name="패스 118" d="M43.224,56.723a27.039,27.039,0,0,1-8.935-1.414c-4.885-1.718-8-4.787-8.762-8.64a1.961,1.961,0,0,1,1.548-2.317l39.784-7.907a1.968,1.968,0,0,1,2.317,1.544c.768,3.857-.934,7.883-4.791,11.335a30.554,30.554,0,0,1-14.305,6.713,35.233,35.233,0,0,1-6.855.686M30.14,47.756a10.245,10.245,0,0,0,5.453,3.837,26.593,26.593,0,0,0,13.714.579,26.579,26.579,0,0,0,12.45-5.78,10.246,10.246,0,0,0,3.573-5.626Z" transform="translate(447.063 353.987)" fill="#c8675d"/>
    <path id="패스_119" data-name="패스 119" d="M11.468,86.964l2.809,2.116s14.68-10.251,25.841-12.3l3.3-16.023,5.768,14.049S89.03,60.67,107.393,62.376l1.726-16.748,8.088,16s23.2-5.019,38.365-1.438c0,0-6.725-23.67-18.213-32.089S67.093,14.961,67.093,14.961l-50.11,33.61Z" transform="translate(405.817 289.042)" fill="#002974"/>
    <path id="패스_120" data-name="패스 120" d="M15.812,93.018l-4.881-3.676,5.8-40.406L68.14,14.448l.686.055C71.249,14.7,128.3,19.369,140.1,28.02c11.9,8.723,18.663,32.148,18.946,33.141l.918,3.223-3.266-.768c-14.565-3.443-37.274,1.4-37.5,1.446l-1.485.323-5.744-11.362-1.237,12-1.938-.177C91.014,64.18,51.822,78.028,51.424,78.17l-1.765.626-4.038-9.818L43.355,79.986l-1.308.244C31.445,82.168,17.124,92.1,16.982,92.2Zm-.65-5.421.752.571c3.613-2.4,14.668-9.377,24.111-11.544l4.342-21.074,7.513,18.292C59.63,71.2,90.23,61.248,107.2,61.8l2.218-21.543,10.44,20.66c5.019-.977,21.413-3.774,34.41-1.777-2.23-6.568-8.1-21.779-16.5-27.937C128.84,24.652,85.908,19.865,69.2,18.486L20.382,51.23Z" transform="translate(404.255 287.514)" fill="#002974"/>
    <path id="패스_121" data-name="패스 121" d="M16.556,32.629c-.158.2,1.107,15.9,1.107,15.9l-6.15-12.623Z" transform="translate(405.065 342.387)" fill="#231814"/>
    <path id="패스_122" data-name="패스 122" d="M19.134,51.972a1.958,1.958,0,0,1-1.769-1.107L11.211,38.242a1.97,1.97,0,0,1,.7-2.514l5.043-3.282a1.968,1.968,0,0,1,3.03,1.887c0,1.273.682,10.113,1.115,15.511a1.957,1.957,0,0,1-1.962,2.127M15.513,38.081l.839,1.722c-.063-.823-.11-1.54-.154-2.163Z" transform="translate(403.579 340.928)" fill="#002974"/>
    <path id="패스_123" data-name="패스 123" d="M46.812,25.868c.221.13,5.055,15.121,5.055,15.121l.859-14.018Z" transform="translate(510.989 321.747)" fill="#002974"/>
    <path id="패스_124" data-name="패스 124" d="M53.338,44.429a1.969,1.969,0,0,1-1.875-1.367C49.8,37.9,47.042,29.477,46.562,28.3a1.972,1.972,0,0,1,2.08-2.9l5.914,1.107a1.955,1.955,0,0,1,1.6,2.049L55.3,42.577a1.979,1.979,0,0,1-1.722,1.836,1.734,1.734,0,0,1-.244.016M51.317,29.907c.2.591.429,1.276.689,2.057l.114-1.907Z" transform="translate(509.062 320.272)" fill="#002974"/>
    <path id="패스_125" data-name="패스 125" d="M56.51,53.458a20.584,20.584,0,1,1-24.2-16.177,20.588,20.588,0,0,1,24.2,16.177" transform="translate(417.811 355.914)" fill="#ffcfbc"/>
    <path id="패스_126" data-name="패스 126" d="M78.08,49.171a20.584,20.584,0,1,1-24.2-16.177,20.588,20.588,0,0,1,24.2,16.177" transform="translate(482.443 342.765)" fill="#ffcfbc"/>
    <path id="패스_127" data-name="패스 127" d="M35.02,27.155s-17.232-7.092-9.633-19.12Z" transform="translate(440.759 266.722)" fill="#002974"/>
    <path id="패스_128" data-name="패스 128" d="M14.571,43.077A24.923,24.923,0,0,1,22.876,32.2L12.4,32.14Z" transform="translate(407.714 340.815)" fill="#002974"/>
    <path id="패스_129" data-name="패스 129" d="M15.852,52.089,11.786,31.638l18.852.1-4.8,3.526a23.142,23.142,0,0,0-7.608,9.924ZM16.589,35.6l.619,3.1a27.284,27.284,0,0,1,2.407-3.085Z" transform="translate(405.914 339.438)" fill="#002974"/>
    <path id="패스_130" data-name="패스 130" d="M56.361,36.55A25.358,25.358,0,0,0,44.451,29.3L54.1,25.164Z" transform="translate(503.523 319.554)" fill="#002974"/>
    <path id="패스_131" data-name="패스 131" d="M64.282,45.657l-4.917-5.764A23.622,23.622,0,0,0,48.46,33.278l-5.543-1.454,17.146-7.363Zm-10.05-14.4a27.8,27.8,0,0,1,3.585,2.116L57.143,30Z" transform="translate(499.034 317.53)" fill="#002974"/>
    <path id="패스_132" data-name="패스 132" d="M51.289,95.821c.4.035,14.829.138,19.9-21.432,0,0,3.128-11.3-.634-16.586a3.837,3.837,0,0,0-5.977-.3c-1.418,1.607-.9,6.217-4.594,9.66,0,0-12.654-18.064-20.952-22.579a2.79,2.79,0,0,0-4.089,2.62c.177,2.573,2.214,7.111,8.971,15.133,0,0-13.529-12.217-20.648-12.343C15.571,49.852,34.12,68.908,34.12,68.908s-12.568-8.916-16.941-6.095,13.545,15.4,13.545,15.4-10.6-4.7-14.333-1.781,14.81,17.619,34.9,19.384" transform="translate(418.414 378.901)" fill="#ffe8db"/>
    <path id="패스_133" data-name="패스 133" d="M52.694,99.252l-.1,0h0c-17.445-1.533-35.135-12.84-37-19.127a3.33,3.33,0,0,1,1.06-3.762c1.615-1.269,3.971-1.517,6.39-1.3-3.747-3.282-7.1-6.965-7.048-9.613a3.347,3.347,0,0,1,1.592-2.817c2.206-1.434,5.508-.886,8.79.362-3.711-4.684-6.245-9.1-5.2-11.528.327-.756,1.154-1.978,3.593-1.978,3.29.059,7.549,2.21,11.445,4.743A14.59,14.59,0,0,1,34.445,48.8a4.763,4.763,0,0,1,7-4.483c6.95,3.786,16.441,16.09,20.1,21.074a14.743,14.743,0,0,0,1.485-4.062,8.6,8.6,0,0,1,1.533-3.668,5.811,5.811,0,0,1,9.065.473c4.18,5.882,1.269,17,.922,18.249C69.328,98.638,54.1,99.252,52.694,99.252m.189-3.932h0c.622,0,13.242-.28,17.859-19.915.816-2.971,2.309-11.291-.323-14.991a1.818,1.818,0,0,0-1.4-.764,1.993,1.993,0,0,0-1.5.622,8.076,8.076,0,0,0-.67,2.025A14.653,14.653,0,0,1,62.8,70.067a2.063,2.063,0,0,1-1.548.516,1.963,1.963,0,0,1-1.406-.827c-.13-.177-12.485-17.733-20.286-21.976a.817.817,0,0,0-.808.043.784.784,0,0,0-.374.705c.11,1.584,1.359,5.512,8.514,14a1.969,1.969,0,0,1-2.825,2.73C40.5,62.045,30.214,53.748,24.915,53.433,25.624,55.911,30.825,62.656,37,69a1.971,1.971,0,0,1-2.553,2.982c-5.311-3.766-12.162-7.021-14.463-6.174.642,2.017,6.635,7.552,13.34,12.261A1.968,1.968,0,0,1,31.4,81.48c-3.632-1.6-9.708-3.313-11.969-2.238C20.688,82.5,35.371,93.764,52.883,95.32" transform="translate(416.933 377.436)" fill="#002974"/>
    <path id="패스_134" data-name="패스 134" d="M31.485,50.063s-9.061,7.868-4.692,16.389" transform="translate(447.153 395.997)" fill="#ffe8db"/>
    <path id="패스_135" data-name="패스 135" d="M28.279,69.893a1.973,1.973,0,0,1-1.753-1.072c-5.015-9.782,4.74-18.41,5.153-18.777a1.973,1.973,0,0,1,2.592,2.974c-.327.28-7.84,6.977-4.239,14.006a1.97,1.97,0,0,1-1.753,2.868" transform="translate(445.664 394.527)" fill="#002974"/>
    <path id="패스_136" data-name="패스 136" d="M69.125,93.164c-.359.185-13.651,5.8-26.581-12.194,0,0-7.21-9.239-5.76-15.57a3.84,3.84,0,0,1,5.409-2.565c1.923.942,3.211,5.4,7.939,7.17,0,0,4.787-21.531,10.724-28.878a2.792,2.792,0,0,1,4.783.863c.816,2.443.67,7.419-2.506,17.41,0,0,7.832-16.46,14.36-19.3C84.553,37.03,74.7,61.728,74.7,61.728s8.2-13.041,13.324-12.107-6.631,19.411-6.631,19.411,8-8.4,12.568-7.123-6.95,21.94-24.836,31.254" transform="translate(480.942 365.93)" fill="#ffe8db"/>
    <path id="패스_137" data-name="패스 137" d="M64.935,97.6c-5.646,0-14.183-2.411-22.524-14.01-.749-.961-7.69-10.121-6.079-17.158a5.738,5.738,0,0,1,3.148-3.912,5.809,5.809,0,0,1,5.051.012,8.54,8.54,0,0,1,2.817,2.805,14.718,14.718,0,0,0,2.927,3.187c1.481-6.008,5.543-21.011,10.515-27.169a4.768,4.768,0,0,1,8.187,1.477,14.545,14.545,0,0,1,.441,5.689c2.632-3.833,5.744-7.45,8.762-8.762a3.471,3.471,0,0,1,4.074.453c1.9,1.844,1.245,6.895-.39,12.639,2.557-2.415,5.405-4.16,7.982-3.7a3.355,3.355,0,0,1,2.549,2c1.06,2.427-.63,7.111-2.841,11.579,2.159-1.139,4.428-1.8,6.4-1.245a3.341,3.341,0,0,1,2.419,3.073C99.057,71.084,87.041,88.3,71.5,96.381l0,0A16.487,16.487,0,0,1,64.935,97.6M70.6,94.636h0Zm-28.6-28.744a1.938,1.938,0,0,0-.816.185,1.814,1.814,0,0,0-1,1.233c-1.016,4.428,3.55,11.551,5.394,13.923C57.39,97.677,69.166,93.1,69.734,92.867c15.582-8.14,24.844-24.155,24.757-27.649-.043,0-.079,0-.122,0-2.545,0-7.383,3.826-10.078,6.65A1.971,1.971,0,0,1,81.2,69.445c4.4-6.918,7.816-14.313,7.635-16.433-2.423.1-7.529,5.724-11,11.236a1.971,1.971,0,0,1-3.5-1.781c3.258-8.171,5.48-16.346,5.216-18.954-5.011,2.7-11.146,13.951-13.175,18.2a1.968,1.968,0,0,1-3.652-1.442c3.357-10.574,3.014-14.68,2.51-16.185a.776.776,0,0,0-.619-.512.762.762,0,0,0-.764.26c-5.575,6.9-10.287,27.854-10.33,28.063a1.963,1.963,0,0,1-.985,1.3,2.01,2.01,0,0,1-1.627.118A14.617,14.617,0,0,1,44.192,67.7,8.283,8.283,0,0,0,42.8,66.077a1.847,1.847,0,0,0-.8-.185" transform="translate(479.471 364.457)" fill="#002974"/>
    <path id="패스_138" data-name="패스 138" d="M40.027,47.493S51.4,51.3,50.629,60.841" transform="translate(490.289 388.442)" fill="#ffe8db"/>
    <path id="패스_139" data-name="패스 139" d="M52.1,64.282c-.055,0-.106,0-.165-.008a1.972,1.972,0,0,1-1.8-2.124c.638-7.868-8.861-11.185-9.266-11.323a1.97,1.97,0,0,1,1.253-3.735c.528.177,12.832,4.42,11.937,15.381A1.965,1.965,0,0,1,52.1,64.282" transform="translate(488.833 386.971)" fill="#002974"/>
    <path id="패스_140" data-name="패스 140" d="M33.749,43.671a1.969,1.969,0,0,1-1.265-3.479l10.038-8.427a1.967,1.967,0,1,1,2.529,3.014l-5.847,4.913,6.705-.047h.016a1.97,1.97,0,0,1,.016,3.94l-12.178.087Z" transform="translate(465.68 338.272)" fill="#002974"/>
    <path id="패스_141" data-name="패스 141" d="M27.437,45.766a1.969,1.969,0,0,1-.737-3.794l6.217-2.525-7.285-2.3a1.969,1.969,0,0,1,1.186-3.755l12.5,3.948a1.969,1.969,0,0,1,.146,3.7L28.174,45.62a1.949,1.949,0,0,1-.737.146" transform="translate(443.192 344.384)" fill="#002974"/>
    <path id="패스_142" data-name="패스 142" d="M38.651,37.394a1.928,1.928,0,0,1-1.119-.351L4.887,14.473A1.97,1.97,0,0,1,7.125,11.23L39.769,33.8a1.97,1.97,0,0,1-1.119,3.589" transform="translate(382.535 276.067)" fill="#fdd143"/>
    <path id="패스_143" data-name="패스 143" d="M38.322,33.354a1.98,1.98,0,0,1-.449-.047L1.521,24.789a1.969,1.969,0,1,1,.9-3.833l36.348,8.51a1.97,1.97,0,0,1-.449,3.889" transform="translate(370.67 306.572)" fill="#fdd143"/>
    <path id="패스_144" data-name="패스 144" d="M3.956,37.032a1.97,1.97,0,0,1-.5-3.877l19.3-5.011a1.972,1.972,0,1,1,.993,3.818l-19.3,5.007a1.972,1.972,0,0,1-.5.063" transform="translate(376.504 328.415)" fill="#fdd143"/>
    <path id="패스_145" data-name="패스 145" d="M43.03,39.713a1.927,1.927,0,0,1-1.068-.315,1.967,1.967,0,0,1-.587-2.722L62.91,3.338a1.97,1.97,0,1,1,3.309,2.139L44.685,38.811a1.969,1.969,0,0,1-1.655.9" transform="translate(493.522 250.255)" fill="#fdd143"/>
    <path id="패스_146" data-name="패스 146" d="M48.358,35.863a1.97,1.97,0,0,1-1.15-3.569L77.536,10.522a1.972,1.972,0,0,1,2.3,3.2L49.508,35.492a1.951,1.951,0,0,1-1.15.37" transform="translate(509.742 272.945)" fill="#fdd143"/>
    <path id="패스_147" data-name="패스 147" d="M52.438,25.406a1.969,1.969,0,0,1-.268-3.92L71.913,18.74a2,2,0,0,1,2.226,1.674A1.971,1.971,0,0,1,72.46,22.64L52.714,25.386a2.164,2.164,0,0,1-.276.02" transform="translate(521.752 299.873)" fill="#fdd143"/>
    <path id="패스_152" data-name="패스 152" d="M47.9,52.958s-10.184,12.5-9.589,16.315L29.641,54.014s10.436.5,18.261-1.056" transform="translate(459.303 404.508)" fill="#fff"/>
    <path id="패스_153" data-name="패스 153" d="M39.76,72.69a1.931,1.931,0,0,1-1.69-.973L29.4,56.458a1.967,1.967,0,0,1,.035-2.005,1.831,1.831,0,0,1,1.769-.938c.11,0,10.306.469,17.784-1.016a1.943,1.943,0,0,1,2.072.914A1.965,1.965,0,0,1,50.9,55.67c-5.09,6.256-9.377,13.159-9.168,14.77a1.987,1.987,0,0,1-1.97,2.25m-5.22-15.16,4.7,8.262A60.9,60.9,0,0,1,44.8,57.084a89.392,89.392,0,0,1-10.263.445" transform="translate(457.835 403.041)" fill="#002974"/>
    <path id="패스_154" data-name="패스 154" d="M34.4,57.414s14.191,7.663,15.1,11.41L51.675,51.41s-9.451,4.448-17.276,6" transform="translate(473.523 399.957)" fill="#fff"/>
    <path id="패스_155" data-name="패스 155" d="M50.965,72.264a1.967,1.967,0,0,1-1.915-1.509c-.425-1.564-7.025-6.308-14.116-10.141a1.969,1.969,0,0,1,.548-3.664C42.972,55.461,52.21,51.139,52.3,51.1A1.969,1.969,0,0,1,55.1,53.125L52.919,70.539a1.97,1.97,0,0,1-1.844,1.722l-.11,0M41.1,59.59a60.224,60.224,0,0,1,8.478,5.918l1.178-9.428A98.446,98.446,0,0,1,41.1,59.59" transform="translate(472.061 398.487)" fill="#002974"/>
  </g>
</svg>
